SplineFontDB: 3.2
FontName: PostironicHillSilentHill1Font
FullName: PostironicHillSilentHill1Font
FamilyName: PostironicHillSilentHill1Font
Weight: Book
Copyright: silentmemes (c).2023. All Rights Reserved
Version: 1.00 April 22, 2023, initial release
ItalicAngle: 0
UnderlinePosition: -292
UnderlineWidth: 150
Ascent: 1638
Descent: 410
InvalidEm: 0
sfntRevision: 0x00010000
LayerCount: 2
Layer: 0 1 "+BBcEMAQ0BD0EOAQ5 +BD8EOwQwBD0A" 1
Layer: 1 1 "+BB8ENQRABDUENAQ9BDgEOQAA +BD8EOwQwBD0A" 0
XUID: [1021 117 -558561149 23876]
StyleMap: 0x0040
FSType: 0
OS2Version: 3
OS2_WeightWidthSlopeOnly: 0
OS2_UseTypoMetrics: 0
CreationTime: 1682168780
ModificationTime: 1703601749
PfmFamily: 17
TTFWeight: 400
TTFWidth: 5
LineGap: 222
VLineGap: 0
Panose: 2 0 5 0 0 0 0 0 0 0
OS2TypoAscent: 1434
OS2TypoAOffset: 0
OS2TypoDescent: -410
OS2TypoDOffset: 0
OS2TypoLinegap: 205
OS2WinAscent: 1716
OS2WinAOffset: 0
OS2WinDescent: 418
OS2WinDOffset: 0
HheadAscent: 1716
HheadAOffset: 0
HheadDescent: -418
HheadDOffset: 0
OS2SubXSize: 1434
OS2SubYSize: 1331
OS2SubXOff: 0
OS2SubYOff: 283
OS2SupXSize: 1434
OS2SupYSize: 1331
OS2SupXOff: 0
OS2SupYOff: 977
OS2StrikeYSize: 102
OS2StrikeYPos: 530
OS2CapHeight: 1434
OS2XHeight: 1024
OS2Vendor: 'HL  '
OS2CodePages: 20000001.00000000
OS2UnicodeRanges: 800002a7.5000004a.00000000.00000000
DEI: 91125
ShortTable: maxp 16
  1
  0
  300
  143
  7
  0
  0
  1
  0
  0
  0
  0
  0
  0
  0
  0
EndShort
LangName: 1033 "silentmemes +AKkA.2023. All Rights Reserved" "" "Regular" "PostironicHillSilentHill1Font:Version 1.00" "" "Version 1.00 April 22, 2023, initial release" "" "silentmemes+AK4A" "" "Postironic Hill" "This font was created using FontCreator 9.0 from High-Logic.com"
GaspTable: 1 65535 2 0
Encoding: UnicodeBmp
UnicodeInterp: none
NameList: AGL For New Fonts
DisplaySize: -48
AntiAlias: 1
FitToEm: 0
WinInfo: 561 51 18
BeginChars: 65538 300

StartChar: .notdef
Encoding: 65536 -1 0
Width: 1024
GlyphClass: 1
Flags: W
LayerCount: 2
Fore
SplineSet
100 0 m 1,0,-1
 100 1434 l 1,1,-1
 924 1434 l 1,2,-1
 924 0 l 1,3,-1
 100 0 l 1,0,-1
150 50 m 1,4,-1
 874 50 l 1,5,-1
 874 1384 l 1,6,-1
 150 1384 l 1,7,-1
 150 50 l 1,4,-1
325 1148 m 1,8,9
 356 1176 356 1176 383 1191 c 0,10,11
 436 1221 436 1221 495 1221 c 0,12,13
 587 1221 587 1221 643 1173.5 c 128,-1,14
 699 1126 699 1126 699 1046 c 0,15,16
 699 997 699 997 676 947.5 c 128,-1,17
 653 898 653 898 589 818 c 0,18,19
 526 738 526 738 490 686 c 128,-1,20
 454 634 454 634 454 587 c 0,21,22
 454 549 454 549 478 454 c 1,23,-1
 446 454 l 1,24,25
 411 551 411 551 411 602 c 0,26,27
 411 678 411 678 492.5 820 c 128,-1,28
 574 962 574 962 574 1037 c 0,29,30
 574 1094 574 1094 541 1127 c 128,-1,31
 508 1160 508 1160 450 1160 c 0,32,33
 412 1160 412 1160 381 1143 c 0,34,35
 355 1128 355 1128 325 1103 c 1,36,-1
 325 1148 l 1,8,9
389 334 m 2,37,-1
 446 392 l 2,38,39
 457 402 457 402 466 402 c 0,40,41
 476 402 476 402 488 391 c 2,42,-1
 544 331 l 2,43,44
 553 320 553 320 553 311 c 0,45,46
 553 300 553 300 543 289 c 2,47,-1
 487 227 l 2,48,49
 473 213 473 213 466 213 c 0,50,51
 455 213 455 213 446 223 c 2,52,-1
 385 294 l 2,53,54
 378 303 378 303 378 312 c 0,55,56
 378 322 378 322 389 334 c 2,37,-1
EndSplineSet
EndChar

StartChar: exclam
Encoding: 33 33 4
Width: 396
GlyphClass: 1
Flags: W
LayerCount: 2
Fore
SplineSet
86 132 m 2,0,-1
 150 197 l 2,1,2
 161 208 161 208 172 208 c 0,3,4
 182 208 182 208 197 196 c 2,5,-1
 259 128 l 2,6,7
 269 116 269 116 269 106 c 0,8,9
 269 94 269 94 258 81 c 2,10,-1
 195 13 l 2,11,12
 179 -3 179 -3 172 -3 c 0,13,14
 160 -3 160 -3 150 8 c 2,15,-1
 81 87 l 2,16,17
 73 97 73 97 73 107 c 0,18,19
 73 119 73 119 86 132 c 2,0,-1
89 1107 m 1,20,-1
 274 1107 l 1,21,-1
 251 946 l 1,22,-1
 251 393 l 1,23,-1
 89 370 l 1,24,-1
 89 1107 l 1,20,-1
EndSplineSet
EndChar

StartChar: quotedbl
Encoding: 34 34 5
Width: 672
GlyphClass: 1
Flags: W
LayerCount: 2
Fore
SplineSet
132 1512 m 1,0,-1
 213 1512 l 1,1,2
 213 1432 213 1432 253 1432 c 2,3,-1
 293 1432 l 1,4,-1
 273 1291 l 1,5,-1
 273 1210 l 1,6,-1
 132 1190 l 1,7,-1
 132 1512 l 1,0,-1
426 1526 m 1,8,-1
 507 1526 l 1,9,10
 507 1446 507 1446 547 1446 c 2,11,-1
 587 1446 l 1,12,-1
 567 1305 l 1,13,-1
 567 1224 l 1,14,-1
 426 1204 l 1,15,-1
 426 1526 l 1,8,-1
EndSplineSet
EndChar

StartChar: numbersign
Encoding: 35 35 6
Width: 1336
GlyphClass: 1
Flags: W
LayerCount: 2
Fore
SplineSet
596 859 m 1,0,-1
 511 569 l 1,1,-1
 753 569 l 1,2,-1
 839 859 l 1,3,-1
 596 859 l 1,0,-1
673 1434 m 1,4,-1
 766 1434 l 1,5,-1
 625 957 l 1,6,-1
 867 957 l 1,7,-1
 1009 1434 l 1,8,-1
 1101 1434 l 1,9,-1
 960 957 l 1,10,-1
 1219 957 l 1,11,-1
 1190 860 l 1,12,-1
 931 860 l 1,13,-1
 848 570 l 1,14,-1
 1127 570 l 1,15,-1
 1097 472 l 1,16,-1
 817 472 l 1,17,-1
 677 0 l 1,18,-1
 585 0 l 1,19,-1
 724 472 l 1,20,-1
 484 472 l 1,21,-1
 342 0 l 1,22,-1
 250 0 l 1,23,-1
 390 472 l 1,24,-1
 117 472 l 1,25,-1
 147 570 l 1,26,-1
 418 570 l 1,27,-1
 504 860 l 1,28,-1
 209 860 l 1,29,-1
 238 957 l 1,30,-1
 533 957 l 1,31,-1
 673 1434 l 1,4,-1
EndSplineSet
EndChar

StartChar: dollar
Encoding: 36 36 7
Width: 1014
GlyphClass: 1
Flags: W
LayerCount: 2
Fore
SplineSet
577 1552 m 1,0,-1
 577 1450 l 1,1,2
 645 1442 645 1442 718 1415 c 0,3,4
 728 1409 728 1409 737 1409 c 0,5,6
 762 1409 762 1409 778 1454 c 1,7,-1
 828 1454 l 1,8,-1
 931 1172 l 1,9,-1
 882 1172 l 1,10,11
 822 1306 822 1306 714 1351 c 0,12,13
 640 1381 640 1381 577 1390 c 1,14,-1
 577 850 l 1,15,16
 818 757 818 757 899.5 667 c 128,-1,17
 981 577 981 577 981 403 c 0,18,19
 981 206 981 206 861.5 103 c 128,-1,20
 742 0 742 0 577 -17 c 1,21,-1
 577 -256 l 1,22,-1
 504 -256 l 1,23,-1
 504 -19 l 1,24,25
 316 -16 316 -16 238 19 c 0,26,27
 228 25 228 25 219 25 c 0,28,29
 194 25 194 25 178 -20 c 1,30,-1
 128 -20 l 1,31,-1
 128 311 l 1,32,-1
 177 311 l 1,33,34
 227 128 227 128 329.5 85 c 128,-1,35
 432 42 432 42 504 42 c 1,36,-1
 504 677 l 1,37,38
 290 744 290 744 205 830 c 0,39,40
 113 921 113 921 113 1079 c 0,41,42
 113 1245 113 1245 238 1350 c 0,43,44
 343 1438 343 1438 504 1452 c 1,45,-1
 504 1552 l 1,46,-1
 577 1552 l 1,0,-1
577 655 m 1,47,-1
 577 45 l 1,48,49
 702 62 702 62 788.5 141 c 128,-1,50
 875 220 875 220 875 360 c 0,51,52
 875 476 875 476 806 543 c 0,53,54
 744 602 744 602 577 655 c 1,47,-1
504 873 m 1,55,-1
 504 1393 l 1,56,57
 385 1388 385 1388 305 1321 c 0,58,59
 219 1248 219 1248 219 1139 c 0,60,61
 219 1041 219 1041 274 986 c 0,62,63
 326 932 326 932 504 873 c 1,55,-1
EndSplineSet
EndChar

StartChar: percent
Encoding: 37 37 8
Width: 1610
GlyphClass: 1
Flags: W
LayerCount: 2
Fore
SplineSet
449 1459 m 256,0,1
 547 1459 547 1459 639.5 1410 c 128,-1,2
 732 1361 732 1361 784 1270.5 c 128,-1,3
 836 1180 836 1180 836 1080 c 0,4,5
 836 981 836 981 785.5 891.5 c 128,-1,6
 735 802 735 802 642.5 751.5 c 128,-1,7
 550 701 550 701 449 701 c 0,8,9
 349 701 349 701 256.5 751.5 c 128,-1,10
 164 802 164 802 113 891.5 c 128,-1,11
 62 981 62 981 62 1080 c 0,12,13
 62 1180 62 1180 114 1270.5 c 128,-1,14
 166 1361 166 1361 258.5 1410 c 128,-1,15
 351 1459 351 1459 449 1459 c 256,0,1
206 1066 m 0,16,17
 219 974 219 974 261.5 892.5 c 128,-1,18
 304 811 304 811 368 768 c 0,19,20
 425 728 425 728 482 728 c 0,21,22
 489 728 489 728 495 729 c 0,23,24
 558 732 558 732 610 782 c 128,-1,25
 662 832 662 832 683 918 c 0,26,27
 696 972 696 972 696 1029 c 0,28,29
 696 1061 696 1061 692 1094 c 0,30,31
 680 1187 680 1187 636 1269.5 c 128,-1,32
 592 1352 592 1352 529 1394 c 0,33,34
 471 1432 471 1432 414 1432 c 2,35,-1
 403 1432 l 2,36,37
 342 1429 342 1429 290 1380 c 128,-1,38
 238 1331 238 1331 217 1245 c 0,39,40
 202 1187 202 1187 202 1128 c 0,41,42
 202 1097 202 1097 206 1066 c 0,16,17
297 -29 m 1,43,-1
 1237 1432 l 1,44,-1
 1321 1432 l 1,45,-1
 383 -29 l 1,46,-1
 297 -29 l 1,43,-1
1161 738 m 0,47,48
 1258 738 1258 738 1351 688.5 c 128,-1,49
 1444 639 1444 639 1496 548.5 c 128,-1,50
 1548 458 1548 458 1548 359 c 0,51,52
 1548 259 1548 259 1497.5 169.5 c 128,-1,53
 1447 80 1447 80 1354.5 30 c 128,-1,54
 1262 -20 1262 -20 1161 -20 c 256,55,56
 1060 -20 1060 -20 968 30 c 128,-1,57
 876 80 876 80 825 169.5 c 128,-1,58
 774 259 774 259 774 359 c 0,59,60
 774 458 774 458 826 548.5 c 128,-1,61
 878 639 878 639 970.5 688.5 c 128,-1,62
 1063 738 1063 738 1161 738 c 0,47,48
918 344 m 0,63,64
 931 252 931 252 973.5 170.5 c 128,-1,65
 1016 89 1016 89 1080 46 c 0,66,67
 1139 7 1139 7 1196 7 c 2,68,-1
 1207 7 l 2,69,70
 1270 10 1270 10 1322 60 c 128,-1,71
 1374 110 1374 110 1395 196 c 0,72,73
 1408 250 1408 250 1408 307 c 0,74,75
 1408 339 1408 339 1404 372 c 0,76,77
 1392 465 1392 465 1348 547.5 c 128,-1,78
 1304 630 1304 630 1241 672 c 0,79,80
 1183 710 1183 710 1126 710 c 2,81,-1
 1115 710 l 2,82,83
 1054 707 1054 707 1002 658 c 128,-1,84
 950 609 950 609 929 523 c 0,85,86
 914 465 914 465 914 406 c 0,87,88
 914 375 914 375 918 344 c 0,63,64
EndSplineSet
EndChar

StartChar: ampersand
Encoding: 38 38 9
Width: 1274
GlyphClass: 1
Flags: W
LayerCount: 2
Fore
SplineSet
470 1154 m 1,0,-1
 760 1154 l 1,1,-1
 760 1082 l 1,2,-1
 542 1082 l 1,3,-1
 542 744 l 1,4,-1
 615 744 l 2,5,6
 687 744 687 744 687 865 c 1,7,-1
 760 865 l 1,8,-1
 760 816 l 1,9,10
 714 696 714 696 542 696 c 1,11,-1
 542 551 l 1,12,-1
 663 551 l 1,13,-1
 639 430 l 1,14,-1
 639 358 l 1,15,-1
 687 358 l 1,16,-1
 856 382 l 1,17,-1
 856 310 l 1,18,-1
 736 310 l 1,19,-1
 736 165 l 1,20,-1
 880 165 l 2,21,22
 1027 165 1027 165 1097 286 c 1,23,-1
 1146 286 l 1,24,25
 1146 117 1146 117 1049 117 c 0,26,27
 1025 117 1025 117 1025 20 c 1,28,-1
 904 20 l 1,29,-1
 784 -4 l 1,30,-1
 784 117 l 1,31,-1
 736 117 l 1,32,-1
 567 93 l 1,33,-1
 567 189 l 1,34,-1
 663 189 l 1,35,-1
 663 286 l 1,36,37
 559 286 559 286 542 382 c 1,38,-1
 470 382 l 1,39,-1
 470 575 l 1,40,-1
 374 575 l 1,41,42
 374 479 374 479 325 479 c 2,43,-1
 277 479 l 1,44,-1
 277 189 l 1,45,46
 374 189 374 189 374 141 c 2,47,-1
 374 93 l 1,48,-1
 567 93 l 1,49,-1
 567 20 l 1,50,-1
 349 20 l 1,51,-1
 181 -4 l 1,52,53
 181 93 181 93 132 93 c 2,54,-1
 84 93 l 1,55,-1
 84 479 l 1,56,57
 181 479 181 479 181 527 c 0,58,59
 181 581 181 581 277 599 c 1,60,61
 277 672 277 672 349 672 c 2,62,-1
 374 672 l 1,63,-1
 374 1058 l 1,64,65
 470 1058 470 1058 470 1106 c 2,66,-1
 470 1154 l 1,0,-1
784 1058 m 1,67,-1
 856 1058 l 1,68,69
 832 925 832 925 832 865 c 1,70,-1
 760 865 l 1,71,72
 784 997 784 997 784 1058 c 1,67,-1
1025 672 m 1,73,-1
 1146 672 l 1,74,-1
 1146 599 l 1,75,76
 1025 599 1025 599 1025 551 c 0,77,78
 1025 497 1025 497 929 479 c 1,79,-1
 929 382 l 1,80,-1
 856 382 l 1,81,-1
 856 575 l 1,82,-1
 784 575 l 1,83,-1
 784 648 l 1,84,-1
 1025 672 l 1,73,-1
EndSplineSet
EndChar

StartChar: quotesingle
Encoding: 39 39 10
Width: 346
GlyphClass: 1
Flags: W
LayerCount: 2
Fore
SplineSet
102 1542 m 1,0,-1
 207 1542 l 1,1,2
 207 1437 207 1437 260 1437 c 2,3,-1
 312 1437 l 1,4,-1
 286 1253 l 1,5,-1
 286 1148 l 1,6,-1
 102 1122 l 1,7,-1
 102 1542 l 1,0,-1
EndSplineSet
EndChar

StartChar: parenleft
Encoding: 40 40 11
Width: 758
GlyphClass: 1
Flags: W
LayerCount: 2
Fore
SplineSet
252 601 m 0,0,1
 254 878 254 878 351.5 1131 c 128,-1,2
 449 1384 449 1384 620 1573 c 1,3,-1
 700 1573 l 1,4,5
 528 1331 528 1331 470 1135 c 0,6,7
 413 942 413 942 413 612 c 2,8,-1
 413 590 l 2,9,10
 413 260 413 260 470 68 c 0,11,12
 528 -128 528 -128 700 -370 c 1,13,-1
 620 -370 l 1,14,15
 449 -181 449 -181 351.5 71.5 c 128,-1,16
 254 324 254 324 252 601 c 0,0,1
EndSplineSet
EndChar

StartChar: parenright
Encoding: 41 41 12
Width: 758
GlyphClass: 1
Flags: W
LayerCount: 2
Fore
SplineSet
138 -370 m 1,0,-1
 58 -370 l 1,1,2
 230 -128 230 -128 288 68 c 0,3,4
 345 260 345 260 345 590 c 2,5,-1
 345 612 l 2,6,7
 345 942 345 942 288 1135 c 0,8,9
 230 1331 230 1331 58 1573 c 1,10,-1
 138 1573 l 1,11,12
 309 1384 309 1384 406.5 1131 c 128,-1,13
 504 878 504 878 506 601 c 0,14,15
 504 324 504 324 406.5 71.5 c 128,-1,16
 309 -181 309 -181 138 -370 c 1,0,-1
EndSplineSet
EndChar

StartChar: asterisk
Encoding: 42 42 13
Width: 1024
GlyphClass: 1
Flags: W
LayerCount: 2
Fore
SplineSet
498 1294 m 1,0,1
 494 1365 494 1365 461 1424 c 0,2,3
 424 1490 424 1490 424 1508 c 0,4,5
 424 1540 424 1540 447.5 1559.5 c 128,-1,6
 471 1579 471 1579 510 1579 c 0,7,8
 547 1579 547 1579 571.5 1561 c 128,-1,9
 596 1543 596 1543 596 1514 c 0,10,11
 596 1493 596 1493 560 1425 c 0,12,13
 527 1364 527 1364 523 1295 c 1,14,15
 589 1320 589 1320 636 1370 c 0,16,17
 687 1425 687 1425 705 1431 c 0,18,19
 716 1434 716 1434 726 1434 c 0,20,21
 744 1434 744 1434 761 1424 c 0,22,23
 787 1407 787 1407 799 1371 c 0,24,25
 805 1352 805 1352 805 1335 c 0,26,27
 805 1320 805 1320 801 1307 c 0,28,29
 791 1277 791 1277 763 1269 c 0,30,31
 757 1267 757 1267 744 1267 c 0,32,33
 719 1267 719 1267 668 1276 c 0,34,35
 640 1281 640 1281 613 1281 c 0,36,37
 572 1281 572 1281 532 1270 c 1,38,39
 576 1215 576 1215 637 1187 c 0,40,41
 705 1155 705 1155 716 1140 c 0,42,43
 729 1122 729 1122 729 1102 c 0,44,45
 729 1093 729 1093 727 1085 c 0,46,47
 719 1055 719 1055 688 1032 c 0,48,49
 659 1010 659 1010 629 1010 c 0,50,51
 628 1010 628 1010 628 1011 c 1,52,53
 597 1011 597 1011 580 1034 c 0,54,55
 568 1051 568 1051 558 1128 c 0,56,57
 548 1195 548 1195 511 1253 c 1,58,59
 473 1195 473 1195 465 1129 c 0,60,61
 456 1054 456 1054 445 1039 c 0,62,63
 426 1014 426 1014 396 1012 c 2,64,-1
 391 1012 l 2,65,66
 363 1012 363 1012 334 1033 c 0,67,68
 304 1054 304 1054 295 1084 c 0,69,70
 291 1094 291 1094 291 1104 c 0,71,72
 291 1121 291 1121 302 1136 c 0,73,74
 315 1153 315 1153 385 1187 c 0,75,76
 446 1216 446 1216 490 1269 c 1,77,78
 449 1280 449 1280 410 1280 c 0,79,80
 383 1280 383 1280 357 1275 c 0,81,82
 303 1264 303 1264 279 1264 c 0,83,84
 270 1264 270 1264 265 1266 c 0,85,86
 235 1275 235 1275 224 1304 c 0,87,88
 218 1317 218 1317 218 1333 c 0,89,90
 218 1350 218 1350 224 1369 c 0,91,92
 235 1404 235 1404 260 1422 c 0,93,94
 277 1434 277 1434 294 1434 c 0,95,96
 303 1434 303 1434 312 1431 c 0,97,98
 332 1425 332 1425 386 1369 c 0,99,100
 433 1320 433 1320 498 1294 c 1,0,1
EndSplineSet
EndChar

StartChar: plus
Encoding: 43 43 14
Width: 1014
GlyphClass: 1
Flags: W
LayerCount: 2
Fore
SplineSet
437 647 m 1,0,-1
 87 647 l 1,1,-1
 87 787 l 1,2,-1
 437 787 l 1,3,-1
 437 1156 l 1,4,-1
 438 1157 l 1,5,-1
 577 1157 l 1,6,-1
 577 787 l 1,7,-1
 926 787 l 1,8,-1
 927 786 l 1,9,-1
 927 647 l 1,10,-1
 577 647 l 1,11,-1
 577 277 l 1,12,-1
 437 277 l 1,13,-1
 437 647 l 1,0,-1
EndSplineSet
EndChar

StartChar: comma
Encoding: 44 44 15
Width: 294
GlyphClass: 1
Flags: W
LayerCount: 2
Fore
SplineSet
105 156 m 1,0,-1
 238 156 l 1,1,-1
 221 40 l 1,2,-1
 221 -110 l 1,3,-1
 171 -110 l 1,4,-1
 171 23 l 1,5,-1
 105 23 l 1,6,-1
 105 156 l 1,0,-1
105 -110 m 1,7,-1
 171 -110 l 1,8,-1
 171 -143 l 2,9,10
 171 -176 171 -176 138 -176 c 2,11,-1
 105 -176 l 1,12,-1
 105 -110 l 1,7,-1
EndSplineSet
EndChar

StartChar: hyphen
Encoding: 45 45 16
AltUni2: 0000ad.ffffffff.0 0000ad.ffffffff.0
Width: 670
GlyphClass: 1
Flags: W
LayerCount: 2
Fore
SplineSet
156 409 m 2,0,1
 116 409 116 409 116 437 c 2,2,-1
 116 520 l 2,3,4
 116 549 116 549 157 549 c 2,5,-1
 513 549 l 2,6,7
 554 549 554 549 554 520 c 2,8,-1
 554 437 l 2,9,10
 554 409 554 409 514 409 c 2,11,-1
 156 409 l 2,0,1
EndSplineSet
EndChar

StartChar: period
Encoding: 46 46 17
Width: 305
GlyphClass: 1
Flags: W
LayerCount: 2
Fore
SplineSet
53 167 m 1,0,-1
 213 167 l 1,1,2
 213 27 213 27 133 27 c 1,3,4
 98 7 98 7 53 7 c 1,5,-1
 53 167 l 1,0,-1
EndSplineSet
EndChar

StartChar: slash
Encoding: 47 47 18
Width: 569
GlyphClass: 1
Flags: W
LayerCount: 2
Fore
SplineSet
93 -50 m 1,0,-1
 13 -50 l 1,1,-1
 554 1434 l 1,2,-1
 634 1434 l 1,3,-1
 93 -50 l 1,0,-1
EndSplineSet
EndChar

StartChar: zero
Encoding: 48 48 19
Width: 936
GlyphClass: 1
Flags: W
LayerCount: 2
Fore
SplineSet
274 1198 m 1,0,-1
 674 1198 l 1,1,2
 674 1098 674 1098 724 1098 c 2,3,-1
 774 1098 l 1,4,-1
 774 898 l 1,5,-1
 874 898 l 1,6,-1
 874 298 l 1,7,-1
 774 298 l 1,8,-1
 774 98 l 1,9,10
 674 98 674 98 674 48 c 2,11,-1
 674 -2 l 1,12,-1
 274 -2 l 1,13,14
 274 98 274 98 224 98 c 2,15,-1
 174 98 l 1,16,-1
 174 298 l 1,17,-1
 74 298 l 1,18,-1
 74 898 l 1,19,-1
 174 898 l 1,20,-1
 174 1098 l 1,21,22
 274 1098 274 1098 274 1148 c 2,23,-1
 274 1198 l 1,0,-1
351 1093 m 1,24,25
 351 993 351 993 301 993 c 2,26,-1
 251 993 l 1,27,-1
 251 193 l 1,28,29
 351 193 351 193 351 143 c 2,30,-1
 351 93 l 1,31,-1
 551 93 l 1,32,33
 551 193 551 193 601 193 c 2,34,-1
 651 193 l 1,35,-1
 651 993 l 1,36,37
 551 993 551 993 551 1043 c 2,38,-1
 551 1093 l 1,39,-1
 351 1093 l 1,24,25
EndSplineSet
EndChar

StartChar: one
Encoding: 49 49 20
Width: 752
GlyphClass: 1
Flags: W
LayerCount: 2
Fore
SplineSet
391 1206 m 1,0,-1
 491 1206 l 1,1,-1
 491 110 l 1,2,-1
 690 110 l 1,3,-1
 690 10 l 1,4,-1
 92 10 l 1,5,-1
 92 110 l 1,6,-1
 291 110 l 1,7,-1
 291 907 l 1,8,-1
 192 907 l 1,9,-1
 192 1007 l 1,10,11
 291 1007 291 1007 291 1057 c 0,12,13
 291 1113 291 1113 391 1131 c 1,14,-1
 391 1206 l 1,0,-1
-88 144 m 1,15,-1
 -72 144 l 1,16,-1
 -72 128 l 1,17,-1
 -88 128 l 1,18,-1
 -88 144 l 1,15,-1
EndSplineSet
EndChar

StartChar: two
Encoding: 50 50 21
Width: 958
GlyphClass: 1
Flags: W
LayerCount: 2
Fore
SplineSet
286 1216 m 1,0,-1
 691 1216 l 1,1,2
 691 1115 691 1115 742 1115 c 0,3,4
 798 1115 798 1115 817 1014 c 1,5,-1
 893 1014 l 1,6,-1
 893 710 l 1,7,8
 792 710 792 710 792 660 c 2,9,-1
 792 609 l 1,10,-1
 691 609 l 1,11,-1
 691 913 l 1,12,13
 590 913 590 913 590 963 c 2,14,-1
 590 1014 l 1,15,-1
 185 1014 l 1,16,-1
 185 1115 l 1,17,18
 286 1115 286 1115 286 1165 c 2,19,-1
 286 1216 l 1,0,-1
84 1014 m 1,20,-1
 185 1014 l 1,21,-1
 185 913 l 1,22,-1
 84 913 l 1,23,-1
 84 1014 l 1,20,-1
590 609 m 1,24,-1
 691 609 l 1,25,-1
 691 508 l 1,26,-1
 590 508 l 1,27,-1
 590 609 l 1,24,-1
489 508 m 1,28,-1
 590 508 l 1,29,-1
 590 407 l 1,30,-1
 489 407 l 1,31,-1
 489 508 l 1,28,-1
388 407 m 1,32,-1
 489 407 l 1,33,-1
 489 306 l 1,34,-1
 388 306 l 1,35,-1
 388 407 l 1,32,-1
286 306 m 1,36,-1
 388 306 l 1,37,-1
 388 204 l 1,38,-1
 792 204 l 1,39,-1
 792 306 l 1,40,-1
 893 306 l 1,41,-1
 893 103 l 1,42,43
 792 103 792 103 792 53 c 2,44,-1
 792 2 l 1,45,-1
 84 2 l 1,46,-1
 84 103 l 1,47,48
 185 103 185 103 185 154 c 0,49,50
 185 211 185 211 286 230 c 1,51,-1
 286 306 l 1,36,-1
EndSplineSet
EndChar

StartChar: three
Encoding: 51 51 22
Width: 916
GlyphClass: 1
Flags: W
LayerCount: 2
Fore
SplineSet
257 1204 m 1,0,-1
 658 1204 l 1,1,2
 658 1104 658 1104 708 1104 c 2,3,-1
 758 1104 l 1,4,-1
 758 803 l 1,5,-1
 658 803 l 1,6,-1
 658 702 l 1,7,8
 766 702 766 702 783 602 c 1,9,-1
 859 602 l 1,10,-1
 859 201 l 1,11,12
 758 201 758 201 758 151 c 0,13,14
 758 94 758 94 658 75 c 1,15,-1
 658 0 l 1,16,-1
 156 0 l 1,17,18
 156 100 156 100 106 100 c 2,19,-1
 56 100 l 1,20,-1
 56 301 l 1,21,-1
 257 301 l 1,22,23
 257 193 257 193 357 176 c 1,24,-1
 357 100 l 1,25,-1
 558 100 l 1,26,27
 558 201 558 201 608 201 c 2,28,-1
 658 201 l 1,29,-1
 658 502 l 1,30,31
 558 502 558 502 558 552 c 2,32,-1
 558 602 l 1,33,-1
 357 602 l 1,34,-1
 357 702 l 1,35,36
 465 702 465 702 482 803 c 1,37,-1
 558 803 l 1,38,-1
 558 1003 l 1,39,40
 457 1003 457 1003 457 1054 c 2,41,-1
 457 1104 l 1,42,-1
 257 1104 l 1,43,-1
 257 1204 l 1,0,-1
156 1104 m 1,44,-1
 257 1104 l 1,45,-1
 257 1003 l 1,46,-1
 156 1003 l 1,47,-1
 156 1104 l 1,44,-1
56 1003 m 1,48,-1
 156 1003 l 1,49,-1
 156 903 l 1,50,-1
 56 903 l 1,51,-1
 56 1003 l 1,48,-1
EndSplineSet
EndChar

StartChar: four
Encoding: 52 52 23
Width: 864
GlyphClass: 1
Flags: W
LayerCount: 2
Fore
SplineSet
76 1206 m 1,0,-1
 276 1206 l 1,1,-1
 276 505 l 1,2,-1
 577 505 l 1,3,-1
 577 1206 l 1,4,-1
 777 1206 l 1,5,-1
 777 4 l 1,6,-1
 577 4 l 1,7,-1
 577 405 l 1,8,-1
 76 405 l 1,9,-1
 76 1206 l 1,0,-1
EndSplineSet
EndChar

StartChar: five
Encoding: 53 53 24
Width: 910
GlyphClass: 1
Flags: W
LayerCount: 2
Fore
SplineSet
274 1206 m 1,0,-1
 875 1206 l 1,1,-1
 875 1106 l 1,2,3
 775 1106 775 1106 775 1056 c 2,4,-1
 775 1006 l 1,5,-1
 375 1006 l 1,6,-1
 375 906 l 1,7,-1
 575 906 l 1,8,9
 575 805 575 805 625 805 c 0,10,11
 681 805 681 805 700 705 c 1,12,-1
 775 705 l 1,13,-1
 775 204 l 1,14,-1
 675 204 l 1,15,-1
 675 605 l 1,16,17
 575 605 575 605 575 655 c 2,18,-1
 575 705 l 1,19,-1
 74 705 l 1,20,-1
 74 805 l 1,21,-1
 174 805 l 1,22,-1
 174 1006 l 1,23,-1
 274 1006 l 1,24,-1
 274 1206 l 1,0,-1
74 305 m 1,25,-1
 274 305 l 1,26,27
 274 197 274 197 375 179 c 1,28,-1
 375 104 l 1,29,-1
 575 104 l 1,30,-1
 575 4 l 1,31,-1
 174 4 l 1,32,33
 174 104 174 104 124 104 c 2,34,-1
 74 104 l 1,35,-1
 74 305 l 1,25,-1
575 204 m 1,36,-1
 675 204 l 1,37,-1
 675 104 l 1,38,-1
 575 104 l 1,39,-1
 575 204 l 1,36,-1
EndSplineSet
EndChar

StartChar: six
Encoding: 54 54 25
Width: 912
GlyphClass: 1
Flags: W
LayerCount: 2
Fore
SplineSet
259 1206 m 1,0,-1
 861 1206 l 1,1,-1
 861 1106 l 1,2,3
 760 1106 760 1106 760 1056 c 2,4,-1
 760 1005 l 1,5,-1
 359 1005 l 1,6,-1
 359 905 l 1,7,-1
 560 905 l 1,8,9
 560 797 560 797 660 780 c 1,10,11
 660 704 660 704 735 704 c 1,12,13
 752 604 752 604 861 604 c 1,14,-1
 861 203 l 1,15,16
 760 203 760 203 760 153 c 0,17,18
 760 96 760 96 660 77 c 1,19,-1
 660 2 l 1,20,-1
 259 2 l 1,21,22
 259 102 259 102 209 102 c 0,23,24
 152 102 152 102 133 203 c 1,25,-1
 58 203 l 1,26,-1
 58 805 l 1,27,-1
 158 805 l 1,28,-1
 158 1005 l 1,29,-1
 259 1005 l 1,30,-1
 259 1206 l 1,0,-1
459 704 m 1,31,-1
 459 604 l 1,32,-1
 259 604 l 1,33,-1
 259 203 l 1,34,35
 359 203 359 203 359 153 c 2,36,-1
 359 102 l 1,37,-1
 560 102 l 1,38,39
 560 203 560 203 610 203 c 2,40,-1
 660 203 l 1,41,-1
 660 604 l 1,42,43
 560 604 560 604 560 654 c 2,44,-1
 560 704 l 1,45,-1
 459 704 l 1,31,-1
EndSplineSet
EndChar

StartChar: seven
Encoding: 55 55 26
Width: 944
GlyphClass: 1
Flags: W
LayerCount: 2
Fore
SplineSet
148 1198 m 1,0,-1
 851 1198 l 1,1,-1
 851 797 l 1,2,-1
 750 797 l 1,3,-1
 750 997 l 1,4,-1
 148 997 l 1,5,-1
 148 1198 l 1,0,-1
48 997 m 1,6,-1
 148 997 l 1,7,-1
 148 897 l 1,8,-1
 48 897 l 1,9,-1
 48 997 l 1,6,-1
650 797 m 1,10,-1
 750 797 l 1,11,-1
 750 596 l 1,12,-1
 650 596 l 1,13,-1
 650 797 l 1,10,-1
550 596 m 1,14,-1
 650 596 l 1,15,-1
 650 395 l 1,16,-1
 550 395 l 1,17,-1
 550 596 l 1,14,-1
449 395 m 1,18,-1
 550 395 l 1,19,-1
 550 195 l 1,20,-1
 449 195 l 1,21,-1
 449 395 l 1,18,-1
349 195 m 1,22,-1
 449 195 l 1,23,-1
 449 -6 l 1,24,-1
 349 -6 l 1,25,-1
 349 195 l 1,22,-1
EndSplineSet
EndChar

StartChar: eight
Encoding: 56 56 27
Width: 856
GlyphClass: 1
Flags: W
LayerCount: 2
Fore
SplineSet
200 1196 m 1,0,-1
 698 1196 l 1,1,2
 698 1096 698 1096 748 1096 c 2,3,-1
 798 1096 l 1,4,-1
 798 897 l 1,5,6
 698 897 698 897 698 847 c 2,7,-1
 698 797 l 1,8,-1
 598 797 l 1,9,-1
 598 997 l 1,10,11
 499 997 499 997 499 1047 c 2,12,-1
 499 1096 l 1,13,-1
 299 1096 l 1,14,-1
 299 897 l 1,15,16
 399 897 399 897 399 847 c 2,17,-1
 399 797 l 1,18,-1
 598 797 l 1,19,-1
 598 598 l 1,20,21
 706 598 706 598 723 498 c 1,22,-1
 798 498 l 1,23,-1
 798 100 l 1,24,25
 698 100 698 100 698 50 c 2,26,-1
 698 0 l 1,27,-1
 200 0 l 1,28,29
 200 100 200 100 150 100 c 2,30,-1
 100 100 l 1,31,-1
 100 498 l 1,32,33
 207 498 207 498 225 598 c 1,34,-1
 299 598 l 1,35,-1
 299 698 l 1,36,37
 192 698 192 698 175 797 c 1,38,-1
 100 797 l 1,39,-1
 100 1096 l 1,40,41
 200 1096 200 1096 200 1146 c 2,42,-1
 200 1196 l 1,0,-1
299 498 m 1,43,44
 299 399 299 399 250 399 c 2,45,-1
 200 399 l 1,46,-1
 200 199 l 1,47,48
 299 199 299 199 299 150 c 2,49,-1
 299 100 l 1,50,-1
 499 100 l 1,51,52
 499 199 499 199 549 199 c 2,53,-1
 598 199 l 1,54,-1
 598 399 l 1,55,56
 499 399 499 399 499 449 c 2,57,-1
 499 498 l 1,58,-1
 299 498 l 1,43,44
EndSplineSet
EndChar

StartChar: nine
Encoding: 57 57 28
Width: 1014
GlyphClass: 1
Flags: W
LayerCount: 2
Fore
SplineSet
370 1204 m 1,0,-1
 770 1204 l 1,1,2
 770 1104 770 1104 820 1104 c 0,3,4
 876 1104 876 1104 895 1004 c 1,5,-1
 970 1004 l 1,6,-1
 970 404 l 1,7,-1
 870 404 l 1,8,-1
 870 204 l 1,9,10
 770 204 770 204 770 154 c 2,11,-1
 770 104 l 1,12,13
 625 95 625 95 542 91 c 1,14,-1
 550 202 l 1,15,16
 670 204 670 204 670 254 c 0,17,18
 670 310 670 310 770 329 c 1,19,-1
 795 479 l 1,20,-1
 795 529 l 1,21,-1
 640 491 l 1,22,-1
 632 598 l 1,23,-1
 770 604 l 1,24,-1
 770 1004 l 1,25,26
 670 1004 670 1004 670 1054 c 2,27,-1
 670 1104 l 1,28,-1
 470 1104 l 1,29,30
 470 1004 470 1004 420 1004 c 2,31,-1
 370 1004 l 1,32,-1
 370 604 l 1,33,34
 470 604 470 604 470 554 c 2,35,-1
 470 504 l 1,36,-1
 641 500 l 1,37,-1
 645 404 l 1,38,-1
 370 404 l 1,39,40
 370 504 370 504 320 504 c 0,41,42
 264 504 264 504 245 604 c 1,43,-1
 170 604 l 1,44,-1
 170 1004 l 1,45,46
 270 1004 270 1004 270 1054 c 0,47,48
 270 1110 270 1110 370 1129 c 1,49,-1
 370 1204 l 1,0,-1
270 104 m 1,50,-1
 545 104 l 1,51,-1
 545 4 l 1,52,-1
 270 4 l 1,53,-1
 270 104 l 1,50,-1
EndSplineSet
EndChar

StartChar: colon
Encoding: 58 58 29
Width: 557
GlyphClass: 1
Flags: W
LayerCount: 2
Fore
SplineSet
158 1016 m 1,0,-1
 412 1016 l 1,1,2
 412 794 412 794 285 794 c 1,3,4
 229 762 229 762 158 762 c 1,5,-1
 158 1016 l 1,0,-1
158 254 m 1,6,-1
 412 254 l 1,7,8
 412 32 412 32 285 32 c 1,9,10
 229 0 229 0 158 0 c 1,11,-1
 158 254 l 1,6,-1
EndSplineSet
EndChar

StartChar: semicolon
Encoding: 59 59 30
AltUni2: 00037e.ffffffff.0 00037e.ffffffff.0
Width: 557
GlyphClass: 1
Flags: W
LayerCount: 2
Fore
SplineSet
182 882 m 1,0,-1
 366 882 l 1,1,2
 366 721 366 721 274 721 c 1,3,4
 234 698 234 698 182 698 c 1,5,-1
 182 882 l 1,0,-1
182 330 m 1,6,-1
 366 330 l 1,7,-1
 343 169 l 1,8,-1
 343 -38 l 1,9,-1
 274 -38 l 1,10,-1
 274 146 l 1,11,-1
 182 146 l 1,12,-1
 182 330 l 1,6,-1
182 -38 m 1,13,-1
 274 -38 l 1,14,-1
 274 -84 l 2,15,16
 274 -130 274 -130 228 -130 c 2,17,-1
 182 -130 l 1,18,-1
 182 -38 l 1,13,-1
EndSplineSet
EndChar

StartChar: less
Encoding: 60 60 31
Width: 1170
GlyphClass: 1
Flags: W
LayerCount: 2
Fore
SplineSet
858 1170 m 1,0,-1
 1134 1170 l 1,1,-1
 1134 1067 l 1,2,3
 1048 1067 1048 1067 858 1032 c 1,4,-1
 858 1170 l 1,0,-1
582 1032 m 1,5,-1
 858 1032 l 1,6,-1
 858 929 l 1,7,8
 772 929 772 929 582 894 c 1,9,-1
 582 1032 l 1,5,-1
306 894 m 1,10,-1
 582 894 l 1,11,-1
 582 791 l 1,12,13
 496 791 496 791 306 756 c 1,14,-1
 306 894 l 1,10,-1
30 756 m 1,15,-1
 306 756 l 1,16,-1
 306 653 l 1,17,18
 220 653 220 653 30 618 c 1,19,-1
 30 756 l 1,15,-1
341 618 m 1,20,21
 477 584 477 584 582 584 c 1,22,-1
 582 515 l 1,23,24
 477 515 477 515 341 480 c 1,25,-1
 341 618 l 1,20,21
617 480 m 1,26,-1
 858 480 l 1,27,-1
 858 377 l 1,28,29
 753 377 753 377 617 342 c 1,30,-1
 617 480 l 1,26,-1
893 342 m 1,31,-1
 1134 342 l 1,32,-1
 1134 239 l 1,33,34
 1029 239 1029 239 893 204 c 1,35,-1
 893 342 l 1,31,-1
EndSplineSet
EndChar

StartChar: equal
Encoding: 61 61 32
Width: 1014
GlyphClass: 1
Flags: W
LayerCount: 2
Fore
SplineSet
94 887 m 1,0,-1
 940 887 l 1,1,-1
 940 829 l 1,2,-1
 229 829 l 1,3,-1
 94 810 l 1,4,-1
 94 887 l 1,0,-1
94 887 m 1,5,-1
 940 887 l 1,6,-1
 940 829 l 1,7,-1
 229 829 l 1,8,-1
 94 810 l 1,9,-1
 94 887 l 1,5,-1
98 603 m 1,10,-1
 944 603 l 1,11,-1
 944 545 l 1,12,-1
 233 545 l 1,13,-1
 98 526 l 1,14,-1
 98 603 l 1,10,-1
EndSplineSet
EndChar

StartChar: greater
Encoding: 62 62 33
Width: 1048
GlyphClass: 1
Flags: W
LayerCount: 2
Fore
SplineSet
24 1168 m 1,0,-1
 278 1168 l 1,1,-1
 278 1073 l 1,2,3
 198 1073 198 1073 24 1041 c 1,4,-1
 24 1168 l 1,0,-1
309 1041 m 1,5,-1
 531 1041 l 1,6,-1
 531 946 l 1,7,8
 435 946 435 946 309 914 c 1,9,-1
 309 1041 l 1,5,-1
563 914 m 1,10,-1
 785 914 l 1,11,-1
 785 787 l 1,12,-1
 563 787 l 1,13,-1
 563 914 l 1,10,-1
785 787 m 1,14,-1
 1039 787 l 1,15,-1
 1039 692 l 1,16,17
 960 692 960 692 785 661 c 1,18,-1
 785 787 l 1,14,-1
531 661 m 1,19,-1
 785 661 l 1,20,-1
 785 565 l 1,21,22
 706 565 706 565 531 534 c 1,23,-1
 531 661 l 1,19,-1
278 534 m 1,24,-1
 531 534 l 1,25,-1
 531 439 l 1,26,27
 452 439 452 439 278 407 c 1,28,-1
 278 534 l 1,24,-1
24 407 m 1,29,-1
 278 407 l 1,30,-1
 278 312 l 1,31,32
 198 312 198 312 24 280 c 1,33,-1
 24 407 l 1,29,-1
EndSplineSet
EndChar

StartChar: question
Encoding: 63 63 34
Width: 600
GlyphClass: 1
Flags: W
LayerCount: 2
Fore
SplineSet
200 117 m 2,0,-1
 259 177 l 2,1,2
 269 187 269 187 279 187 c 256,3,4
 289 187 289 187 301 176 c 2,5,-1
 358 114 l 2,6,7
 367 103 367 103 367 94 c 0,8,9
 367 83 367 83 357 72 c 2,10,-1
 300 9 l 2,11,12
 286 -5 286 -5 279 -5 c 0,13,14
 268 -5 268 -5 259 5 c 2,15,-1
 196 77 l 2,16,17
 189 86 189 86 189 95 c 0,18,19
 189 106 189 106 200 117 c 2,0,-1
126 1011 m 1,20,-1
 464 1011 l 1,21,22
 464 926 464 926 506 926 c 2,23,-1
 548 926 l 1,24,-1
 527 779 l 1,25,-1
 527 610 l 1,26,27
 443 610 443 610 443 568 c 0,28,29
 443 520 443 520 358 505 c 1,30,-1
 358 420 l 1,31,-1
 295 420 l 1,32,-1
 295 589 l 1,33,-1
 379 589 l 1,34,-1
 379 631 l 2,35,36
 379 737 379 737 400 947 c 1,37,-1
 190 947 l 1,38,-1
 190 779 l 1,39,-1
 42 758 l 1,40,-1
 42 926 l 1,41,42
 126 926 126 926 126 968 c 2,43,-1
 126 1011 l 1,20,-1
211 420 m 1,44,-1
 295 420 l 1,45,46
 274 304 274 304 274 252 c 1,47,-1
 211 252 l 1,48,-1
 211 420 l 1,44,-1
EndSplineSet
EndChar

StartChar: at
Encoding: 64 64 35
Width: 2019
GlyphClass: 1
Flags: W
LayerCount: 2
Fore
SplineSet
972 622 m 1,0,1
 889 612 889 612 821 542 c 128,-1,2
 753 472 753 472 753 343 c 0,3,4
 753 236 753 236 817 149 c 128,-1,5
 881 62 881 62 1000 62 c 1,6,7
 1097 67 1097 67 1126 229 c 1,8,-1
 1126 705 l 1,9,10
 1072 642 1072 642 972 622 c 1,0,1
1360 29 m 0,11,12
 1297 30 1297 30 1259.5 47 c 128,-1,13
 1222 64 1222 64 1198 101 c 1,14,15
 1169 64 1169 64 1116 36.5 c 128,-1,16
 1063 9 1063 9 983 9 c 0,17,18
 839 9 839 9 726.5 109.5 c 128,-1,19
 614 210 614 210 614 343 c 0,20,21
 615 430 615 430 667 509.5 c 128,-1,22
 719 589 719 589 799.5 624.5 c 128,-1,23
 880 660 880 660 973 674 c 1,24,25
 1040 690 1040 690 1083 716.5 c 128,-1,26
 1126 743 1126 743 1126 791 c 0,27,28
 1124 860 1124 860 1085 916 c 128,-1,29
 1046 972 1046 972 956 972 c 0,30,31
 884 972 884 972 834.5 913 c 128,-1,32
 785 854 785 854 784 788 c 1,33,-1
 739 788 l 1,34,-1
 739 947 l 2,35,36
 739 967 739 967 811 987 c 0,37,38
 884 1007 884 1007 989 1007 c 0,39,40
 1098 1005 1098 1005 1182.5 942.5 c 128,-1,41
 1267 880 1267 880 1267 785 c 2,42,-1
 1267 196 l 2,43,44
 1267 79 1267 79 1361 79 c 1,45,46
 1546 114 1546 114 1628 270.5 c 128,-1,47
 1710 427 1710 427 1710 653 c 1,48,49
 1690 988 1690 988 1478 1193 c 0,50,51
 1281 1381 1281 1381 998 1381 c 0,52,53
 793 1381 793 1381 605.5 1243.5 c 128,-1,54
 418 1106 418 1106 336 888 c 0,55,56
 269 710 269 710 269 527 c 0,57,58
 269 214 269 214 398.5 15.5 c 128,-1,59
 528 -183 528 -183 703.5 -275 c 128,-1,60
 879 -367 879 -367 1022 -367 c 0,61,62
 1296 -367 1296 -367 1597 -159 c 1,63,-1
 1597 -234 l 1,64,65
 1334 -418 1334 -418 1026 -418 c 0,66,67
 786 -418 786 -418 565 -295.5 c 128,-1,68
 344 -173 344 -173 222 46.5 c 128,-1,69
 100 266 100 266 100 508 c 256,70,71
 100 750 100 750 224 972.5 c 128,-1,72
 348 1195 348 1195 569.5 1314.5 c 128,-1,73
 791 1434 791 1434 1026 1434 c 0,74,75
 1388 1434 1388 1434 1635 1204 c 128,-1,76
 1882 974 1882 974 1882 638 c 0,77,78
 1882 368 1882 368 1706 199 c 0,79,80
 1531 31 1531 31 1360 29 c 0,11,12
EndSplineSet
EndChar

StartChar: A
Encoding: 65 65 36
Width: 1114
GlyphClass: 1
Flags: W
LayerCount: 2
Fore
SplineSet
513 1026 m 1,0,-1
 684 1026 l 1,1,-1
 684 855 l 1,2,-1
 770 855 l 1,3,-1
 770 684 l 1,4,-1
 855 684 l 1,5,-1
 855 513 l 1,6,-1
 941 513 l 1,7,-1
 941 257 l 1,8,-1
 1026 257 l 1,9,-1
 1026 86 l 1,10,-1
 1112 86 l 1,11,-1
 1112 0 l 1,12,-1
 684 0 l 1,13,-1
 684 86 l 1,14,-1
 770 86 l 1,15,-1
 770 257 l 1,16,17
 684 257 684 257 684 342 c 1,18,-1
 342 342 l 1,19,-1
 342 171 l 1,20,-1
 257 171 l 1,21,-1
 257 86 l 1,22,-1
 342 86 l 1,23,-1
 342 0 l 1,24,-1
 0 0 l 1,25,-1
 0 86 l 1,26,27
 78 86 78 86 114 171 c 1,28,-1
 171 171 l 1,29,-1
 171 342 l 1,30,-1
 257 342 l 1,31,-1
 257 513 l 1,32,-1
 342 513 l 1,33,-1
 342 684 l 1,34,-1
 428 684 l 1,35,-1
 428 855 l 1,36,-1
 513 855 l 1,37,-1
 513 1026 l 1,0,-1
513 684 m 1,38,-1
 513 513 l 1,39,-1
 428 513 l 1,40,-1
 428 428 l 1,41,-1
 684 428 l 1,42,-1
 684 513 l 1,43,-1
 599 513 l 1,44,-1
 599 684 l 1,45,-1
 513 684 l 1,38,-1
EndSplineSet
EndChar

StartChar: B
Encoding: 66 66 37
Width: 944
GlyphClass: 1
Flags: W
LayerCount: 2
Fore
SplineSet
0 1016 m 1,0,-1
 677 1016 l 1,1,-1
 677 931 l 1,2,-1
 847 931 l 1,3,4
 847 847 847 847 931 847 c 1,5,-1
 931 677 l 1,6,7
 854 677 854 677 818 593 c 1,8,-1
 762 593 l 1,9,-1
 762 508 l 1,10,11
 840 508 840 508 875 423 c 1,12,-1
 931 423 l 1,13,-1
 931 169 l 1,14,15
 847 169 847 169 847 85 c 1,16,-1
 677 85 l 1,17,-1
 677 0 l 1,18,-1
 0 0 l 1,19,-1
 0 85 l 1,20,-1
 85 85 l 1,21,-1
 85 931 l 1,22,-1
 0 931 l 1,23,-1
 0 1016 l 1,0,-1
339 931 m 1,24,-1
 339 593 l 1,25,-1
 593 593 l 1,26,27
 593 677 593 677 677 677 c 1,28,-1
 677 847 l 1,29,30
 593 847 593 847 593 931 c 1,31,-1
 339 931 l 1,24,-1
339 508 m 1,32,-1
 339 85 l 1,33,-1
 593 85 l 1,34,35
 593 169 593 169 677 169 c 1,36,-1
 677 423 l 1,37,38
 593 423 593 423 593 508 c 1,39,-1
 339 508 l 1,32,-1
EndSplineSet
EndChar

StartChar: C
Encoding: 67 67 38
Width: 1034
GlyphClass: 1
Flags: W
LayerCount: 2
Fore
SplineSet
341 1024 m 1,0,-1
 768 1024 l 1,1,-1
 768 939 l 1,2,-1
 853 939 l 1,3,-1
 853 1024 l 1,4,-1
 1024 1024 l 1,5,-1
 1024 683 l 1,6,-1
 853 683 l 1,7,8
 853 761 853 761 768 796 c 1,9,-1
 683 910 l 1,10,-1
 683 939 l 1,11,-1
 427 939 l 1,12,13
 427 853 427 853 341 853 c 1,14,-1
 341 683 l 1,15,-1
 256 683 l 1,16,-1
 256 341 l 1,17,-1
 341 341 l 1,18,-1
 341 171 l 1,19,20
 427 171 427 171 427 85 c 1,21,-1
 768 85 l 1,22,23
 768 164 768 164 853 199 c 1,24,-1
 853 256 l 1,25,-1
 1024 256 l 1,26,-1
 1024 85 l 1,27,-1
 853 85 l 1,28,-1
 853 0 l 1,29,-1
 341 0 l 1,30,-1
 341 85 l 1,31,-1
 171 85 l 1,32,33
 171 171 171 171 85 171 c 1,34,-1
 85 341 l 1,35,-1
 0 341 l 1,36,-1
 0 683 l 1,37,-1
 85 683 l 1,38,-1
 85 853 l 1,39,40
 171 853 171 853 171 939 c 1,41,-1
 341 939 l 1,42,-1
 341 1024 l 1,0,-1
EndSplineSet
EndChar

StartChar: D
Encoding: 68 68 39
Width: 1016
GlyphClass: 1
Flags: W
LayerCount: 2
Fore
SplineSet
0 1010 m 1,0,-1
 673 1010 l 1,1,-1
 673 926 l 1,2,-1
 842 926 l 1,3,4
 842 842 842 842 926 842 c 1,5,-1
 926 673 l 1,6,-1
 1010 673 l 1,7,-1
 1010 337 l 1,8,-1
 926 337 l 1,9,-1
 926 168 l 1,10,11
 842 168 842 168 842 84 c 1,12,-1
 673 84 l 1,13,-1
 673 0 l 1,14,-1
 0 0 l 1,15,-1
 0 84 l 1,16,-1
 84 84 l 1,17,-1
 84 926 l 1,18,-1
 0 926 l 1,19,-1
 0 1010 l 1,0,-1
337 926 m 1,20,-1
 337 84 l 1,21,-1
 589 84 l 1,22,23
 589 168 589 168 673 168 c 1,24,-1
 673 337 l 1,25,-1
 758 337 l 1,26,-1
 758 673 l 1,27,-1
 673 673 l 1,28,-1
 673 842 l 1,29,30
 589 842 589 842 589 926 c 1,31,-1
 337 926 l 1,20,-1
EndSplineSet
EndChar

StartChar: E
Encoding: 69 69 40
Width: 850
GlyphClass: 1
Flags: W
LayerCount: 2
Fore
SplineSet
0 1018 m 1,0,-1
 848 1018 l 1,1,-1
 848 764 l 1,2,-1
 679 764 l 1,3,4
 679 841 679 841 594 877 c 1,5,-1
 594 933 l 1,6,-1
 339 933 l 1,7,-1
 339 594 l 1,8,-1
 594 594 l 1,9,-1
 594 679 l 1,10,-1
 764 679 l 1,11,-1
 764 424 l 1,12,-1
 594 424 l 1,13,-1
 594 509 l 1,14,-1
 339 509 l 1,15,-1
 339 85 l 1,16,-1
 594 85 l 1,17,18
 594 163 594 163 679 198 c 1,19,-1
 679 255 l 1,20,-1
 848 255 l 1,21,-1
 848 0 l 1,22,-1
 0 0 l 1,23,-1
 0 85 l 1,24,-1
 85 85 l 1,25,-1
 85 933 l 1,26,-1
 0 933 l 1,27,-1
 0 1018 l 1,0,-1
EndSplineSet
EndChar

StartChar: F
Encoding: 70 70 41
Width: 852
GlyphClass: 1
Flags: W
LayerCount: 2
Fore
SplineSet
0 1016 m 1,0,-1
 847 1016 l 1,1,-1
 847 762 l 1,2,-1
 677 762 l 1,3,4
 677 840 677 840 593 875 c 1,5,-1
 593 931 l 1,6,-1
 339 931 l 1,7,-1
 339 593 l 1,8,-1
 593 593 l 1,9,-1
 593 677 l 1,10,-1
 762 677 l 1,11,-1
 762 423 l 1,12,-1
 593 423 l 1,13,-1
 593 508 l 1,14,-1
 339 508 l 1,15,-1
 339 85 l 1,16,-1
 508 85 l 1,17,-1
 508 0 l 1,18,-1
 0 0 l 1,19,-1
 0 85 l 1,20,-1
 85 85 l 1,21,-1
 85 931 l 1,22,-1
 0 931 l 1,23,-1
 0 1016 l 1,0,-1
EndSplineSet
EndChar

StartChar: G
Encoding: 71 71 42
Width: 1096
GlyphClass: 1
Flags: W
LayerCount: 2
Fore
SplineSet
337 1010 m 1,0,-1
 758 1010 l 1,1,-1
 758 926 l 1,2,-1
 842 926 l 1,3,-1
 842 1010 l 1,4,-1
 1010 1010 l 1,5,-1
 1010 673 l 1,6,-1
 842 673 l 1,7,8
 842 750 842 750 758 786 c 1,9,-1
 673 898 l 1,10,-1
 673 926 l 1,11,-1
 421 926 l 1,12,13
 421 842 421 842 337 842 c 1,14,-1
 337 673 l 1,15,-1
 253 673 l 1,16,-1
 253 337 l 1,17,-1
 337 337 l 1,18,-1
 337 168 l 1,19,20
 421 168 421 168 421 84 c 1,21,-1
 673 84 l 1,22,23
 673 168 673 168 758 168 c 1,24,-1
 758 505 l 1,25,-1
 673 505 l 1,26,-1
 673 589 l 1,27,-1
 1094 589 l 1,28,-1
 1094 505 l 1,29,-1
 1010 505 l 1,30,-1
 1010 168 l 1,31,32
 933 168 933 168 898 84 c 1,33,34
 842 84 842 84 842 0 c 1,35,-1
 337 0 l 1,36,-1
 337 84 l 1,37,-1
 168 84 l 1,38,39
 168 168 168 168 84 168 c 1,40,-1
 84 337 l 1,41,-1
 0 337 l 1,42,-1
 0 673 l 1,43,-1
 84 673 l 1,44,-1
 84 842 l 1,45,46
 168 842 168 842 168 926 c 1,47,-1
 337 926 l 1,48,-1
 337 1010 l 1,0,-1
EndSplineSet
EndChar

StartChar: H
Encoding: 72 72 43
Width: 1022
GlyphClass: 1
Flags: W
LayerCount: 2
Fore
SplineSet
0 1018 m 1,0,-1
 424 1018 l 1,1,-1
 424 933 l 1,2,-1
 339 933 l 1,3,-1
 339 594 l 1,4,-1
 679 594 l 1,5,-1
 679 933 l 1,6,-1
 594 933 l 1,7,-1
 594 1018 l 1,8,-1
 1018 1018 l 1,9,-1
 1018 933 l 1,10,-1
 933 933 l 1,11,-1
 933 85 l 1,12,-1
 1018 85 l 1,13,-1
 1018 0 l 1,14,-1
 594 0 l 1,15,-1
 594 85 l 1,16,-1
 679 85 l 1,17,-1
 679 509 l 1,18,-1
 339 509 l 1,19,-1
 339 85 l 1,20,-1
 424 85 l 1,21,-1
 424 0 l 1,22,-1
 0 0 l 1,23,-1
 0 85 l 1,24,-1
 85 85 l 1,25,-1
 85 933 l 1,26,-1
 0 933 l 1,27,-1
 0 1018 l 1,0,-1
EndSplineSet
EndChar

StartChar: I
Encoding: 73 73 44
Width: 426
GlyphClass: 1
Flags: W
LayerCount: 2
Fore
SplineSet
0 1018 m 1,0,-1
 424 1018 l 1,1,-1
 424 933 l 1,2,-1
 339 933 l 1,3,-1
 339 85 l 1,4,-1
 424 85 l 1,5,-1
 424 0 l 1,6,-1
 0 0 l 1,7,-1
 0 85 l 1,8,-1
 85 85 l 1,9,-1
 85 933 l 1,10,-1
 0 933 l 1,11,-1
 0 1018 l 1,0,-1
EndSplineSet
EndChar

StartChar: J
Encoding: 74 74 45
Width: 692
GlyphClass: 1
Flags: W
LayerCount: 2
Fore
SplineSet
171 1024 m 1,0,-1
 683 1024 l 1,1,-1
 683 939 l 1,2,-1
 597 939 l 1,3,-1
 597 85 l 1,4,5
 512 85 512 85 512 0 c 1,6,-1
 85 0 l 1,7,8
 85 85 85 85 0 85 c 1,9,-1
 0 256 l 1,10,-1
 256 256 l 1,11,-1
 256 85 l 1,12,-1
 341 85 l 1,13,-1
 341 939 l 1,14,-1
 171 939 l 1,15,-1
 171 1024 l 1,0,-1
EndSplineSet
EndChar

StartChar: K
Encoding: 75 75 46
Width: 1026
GlyphClass: 1
Flags: W
LayerCount: 2
Fore
SplineSet
0 1020 m 1,0,-1
 425 1020 l 1,1,-1
 425 935 l 1,2,-1
 340 935 l 1,3,-1
 340 680 l 1,4,-1
 425 680 l 1,5,6
 425 758 425 758 510 793 c 1,7,8
 510 850 510 850 595 850 c 1,9,-1
 595 935 l 1,10,-1
 510 935 l 1,11,-1
 510 1020 l 1,12,-1
 935 1020 l 1,13,-1
 935 935 l 1,14,-1
 765 935 l 1,15,16
 765 857 765 857 680 822 c 1,17,-1
 595 708 l 1,18,19
 510 673 510 673 510 595 c 1,20,-1
 425 595 l 1,21,-1
 425 510 l 1,22,23
 503 510 503 510 538 425 c 1,24,-1
 652 340 l 1,25,26
 687 255 687 255 765 255 c 1,27,28
 765 177 765 177 850 142 c 1,29,-1
 850 85 l 1,30,-1
 1020 85 l 1,31,-1
 1020 0 l 1,32,-1
 510 0 l 1,33,-1
 510 85 l 1,34,-1
 595 85 l 1,35,-1
 595 170 l 1,36,37
 517 170 517 170 482 255 c 1,38,39
 425 255 425 255 425 340 c 1,40,-1
 340 340 l 1,41,-1
 340 85 l 1,42,-1
 425 85 l 1,43,-1
 425 0 l 1,44,-1
 0 0 l 1,45,-1
 0 85 l 1,46,-1
 85 85 l 1,47,-1
 85 935 l 1,48,-1
 0 935 l 1,49,-1
 0 1020 l 1,0,-1
EndSplineSet
EndChar

StartChar: L
Encoding: 76 76 47
Width: 938
GlyphClass: 1
Flags: W
LayerCount: 2
Fore
SplineSet
0 1020 m 1,0,-1
 425 1020 l 1,1,-1
 425 935 l 1,2,-1
 340 935 l 1,3,-1
 340 85 l 1,4,-1
 595 85 l 1,5,6
 595 163 595 163 680 198 c 1,7,-1
 765 312 l 1,8,-1
 765 340 l 1,9,-1
 935 340 l 1,10,-1
 935 85 l 1,11,12
 850 85 850 85 850 0 c 1,13,-1
 0 0 l 1,14,-1
 0 85 l 1,15,-1
 85 85 l 1,16,-1
 85 935 l 1,17,-1
 0 935 l 1,18,-1
 0 1020 l 1,0,-1
EndSplineSet
EndChar

StartChar: M
Encoding: 77 77 48
Width: 1276
GlyphClass: 1
Flags: W
LayerCount: 2
Fore
SplineSet
0 1018 m 1,0,-1
 339 1018 l 1,1,2
 339 933 339 933 424 933 c 1,3,-1
 424 764 l 1,4,-1
 509 764 l 1,5,-1
 509 594 l 1,6,-1
 594 594 l 1,7,-1
 594 424 l 1,8,-1
 679 424 l 1,9,-1
 679 594 l 1,10,-1
 764 594 l 1,11,-1
 764 764 l 1,12,-1
 848 764 l 1,13,-1
 848 933 l 1,14,15
 933 933 933 933 933 1018 c 1,16,-1
 1273 1018 l 1,17,-1
 1273 933 l 1,18,-1
 1188 933 l 1,19,-1
 1188 85 l 1,20,-1
 1273 85 l 1,21,-1
 1273 0 l 1,22,-1
 848 0 l 1,23,-1
 848 85 l 1,24,-1
 933 85 l 1,25,-1
 933 594 l 1,26,-1
 848 594 l 1,27,-1
 848 424 l 1,28,-1
 764 424 l 1,29,-1
 764 170 l 1,30,-1
 679 170 l 1,31,-1
 679 0 l 1,32,-1
 509 0 l 1,33,-1
 509 170 l 1,34,-1
 424 170 l 1,35,-1
 424 339 l 1,36,-1
 339 339 l 1,37,-1
 339 594 l 1,38,-1
 255 594 l 1,39,-1
 255 85 l 1,40,-1
 339 85 l 1,41,-1
 339 0 l 1,42,-1
 0 0 l 1,43,-1
 0 85 l 1,44,-1
 85 85 l 1,45,-1
 85 933 l 1,46,-1
 0 933 l 1,47,-1
 0 1018 l 1,0,-1
EndSplineSet
EndChar

StartChar: N
Encoding: 78 78 49
Width: 1022
GlyphClass: 1
Flags: W
LayerCount: 2
Fore
SplineSet
0 1014 m 1,0,-1
 338 1014 l 1,1,2
 338 930 338 930 423 930 c 1,3,-1
 423 761 l 1,4,5
 500 761 500 761 535 676 c 1,6,-1
 648 592 l 1,7,-1
 676 592 l 1,8,-1
 676 423 l 1,9,-1
 761 423 l 1,10,-1
 761 930 l 1,11,-1
 676 930 l 1,12,-1
 676 1014 l 1,13,-1
 1014 1014 l 1,14,-1
 1014 930 l 1,15,-1
 930 930 l 1,16,-1
 930 0 l 1,17,-1
 761 0 l 1,18,19
 761 77 761 77 676 113 c 1,20,21
 676 169 676 169 592 169 c 1,22,-1
 592 338 l 1,23,24
 514 338 514 338 479 423 c 1,25,-1
 366 507 l 1,26,-1
 338 507 l 1,27,-1
 338 676 l 1,28,-1
 254 676 l 1,29,-1
 254 85 l 1,30,-1
 338 85 l 1,31,-1
 338 0 l 1,32,-1
 0 0 l 1,33,-1
 0 85 l 1,34,-1
 85 85 l 1,35,-1
 85 930 l 1,36,-1
 0 930 l 1,37,-1
 0 1014 l 1,0,-1
EndSplineSet
EndChar

StartChar: O
Encoding: 79 79 50
Width: 1098
GlyphClass: 1
Flags: W
LayerCount: 2
Fore
SplineSet
339 1016 m 1,0,-1
 762 1016 l 1,1,-1
 762 931 l 1,2,-1
 931 931 l 1,3,4
 931 847 931 847 1016 847 c 1,5,-1
 1016 677 l 1,6,-1
 1101 677 l 1,7,-1
 1101 339 l 1,8,-1
 1016 339 l 1,9,-1
 1016 169 l 1,10,11
 931 169 931 169 931 85 c 1,12,-1
 762 85 l 1,13,-1
 762 0 l 1,14,-1
 339 0 l 1,15,-1
 339 85 l 1,16,-1
 169 85 l 1,17,18
 169 169 169 169 85 169 c 1,19,-1
 85 339 l 1,20,-1
 0 339 l 1,21,-1
 0 677 l 1,22,-1
 85 677 l 1,23,-1
 85 847 l 1,24,25
 169 847 169 847 169 931 c 1,26,-1
 339 931 l 1,27,-1
 339 1016 l 1,0,-1
423 931 m 1,28,29
 423 847 423 847 339 847 c 1,30,-1
 339 677 l 1,31,-1
 254 677 l 1,32,-1
 254 339 l 1,33,-1
 339 339 l 1,34,-1
 339 169 l 1,35,36
 423 169 423 169 423 85 c 1,37,-1
 677 85 l 1,38,39
 677 169 677 169 762 169 c 1,40,-1
 762 339 l 1,41,-1
 847 339 l 1,42,-1
 847 677 l 1,43,-1
 762 677 l 1,44,-1
 762 847 l 1,45,46
 677 847 677 847 677 931 c 1,47,-1
 423 931 l 1,28,29
EndSplineSet
EndChar

StartChar: P
Encoding: 80 80 51
Width: 852
GlyphClass: 1
Flags: W
LayerCount: 2
Fore
SplineSet
0 1016 m 1,0,-1
 593 1016 l 1,1,-1
 593 931 l 1,2,-1
 762 931 l 1,3,4
 762 847 762 847 847 847 c 1,5,-1
 847 593 l 1,6,7
 762 593 762 593 762 508 c 1,8,-1
 593 508 l 1,9,-1
 593 423 l 1,10,-1
 339 423 l 1,11,-1
 339 85 l 1,12,-1
 423 85 l 1,13,-1
 423 0 l 1,14,-1
 0 0 l 1,15,-1
 0 85 l 1,16,-1
 85 85 l 1,17,-1
 85 931 l 1,18,-1
 0 931 l 1,19,-1
 0 1016 l 1,0,-1
339 931 m 1,20,-1
 339 508 l 1,21,-1
 508 508 l 1,22,23
 508 593 508 593 593 593 c 1,24,-1
 593 847 l 1,25,26
 508 847 508 847 508 931 c 1,27,-1
 339 931 l 1,20,-1
EndSplineSet
EndChar

StartChar: Q
Encoding: 81 81 52
Width: 1036
GlyphClass: 1
Flags: W
LayerCount: 2
Fore
SplineSet
312 1024 m 1,0,-1
 712 1024 l 1,1,-1
 712 944 l 1,2,-1
 872 944 l 1,3,4
 872 864 872 864 952 864 c 1,5,-1
 952 704 l 1,6,-1
 1032 704 l 1,7,-1
 1032 384 l 1,8,-1
 952 384 l 1,9,-1
 952 224 l 1,10,11
 872 224 872 224 872 144 c 1,12,-1
 712 144 l 1,13,-1
 712 -16 l 1,14,15
 792 -16 792 -16 792 -96 c 1,16,-1
 952 -96 l 1,17,-1
 952 -176 l 1,18,-1
 712 -176 l 1,19,-1
 712 -96 l 1,20,-1
 552 -96 l 1,21,22
 552 -23 552 -23 472 11 c 1,23,-1
 472 64 l 1,24,-1
 312 64 l 1,25,-1
 312 144 l 1,26,-1
 152 144 l 1,27,28
 152 224 152 224 72 224 c 1,29,-1
 72 384 l 1,30,-1
 -8 384 l 1,31,-1
 -8 704 l 1,32,-1
 72 704 l 1,33,-1
 72 864 l 1,34,35
 152 864 152 864 152 944 c 1,36,-1
 312 944 l 1,37,-1
 312 1024 l 1,0,-1
392 944 m 1,38,39
 392 864 392 864 312 864 c 1,40,-1
 312 704 l 1,41,-1
 232 704 l 1,42,-1
 232 384 l 1,43,-1
 312 384 l 1,44,-1
 312 224 l 1,45,46
 392 224 392 224 392 144 c 1,47,-1
 632 144 l 1,48,49
 632 224 632 224 712 224 c 1,50,-1
 712 384 l 1,51,-1
 792 384 l 1,52,-1
 792 704 l 1,53,-1
 712 704 l 1,54,-1
 712 864 l 1,55,56
 632 864 632 864 632 944 c 1,57,-1
 392 944 l 1,38,39
EndSplineSet
EndChar

StartChar: R
Encoding: 82 82 53
Width: 1020
GlyphClass: 1
Flags: W
LayerCount: 2
Fore
SplineSet
0 1014 m 1,0,-1
 592 1014 l 1,1,-1
 592 930 l 1,2,-1
 761 930 l 1,3,4
 761 845 761 845 845 845 c 1,5,-1
 845 592 l 1,6,7
 761 592 761 592 761 507 c 1,8,-1
 592 507 l 1,9,-1
 592 338 l 1,10,11
 669 338 669 338 704 254 c 1,12,13
 761 254 761 254 761 169 c 1,14,-1
 930 169 l 1,15,16
 930 85 930 85 1014 85 c 1,17,-1
 1014 0 l 1,18,-1
 676 0 l 1,19,20
 676 77 676 77 592 113 c 1,21,-1
 507 225 l 1,22,23
 423 261 423 261 423 338 c 1,24,-1
 338 338 l 1,25,-1
 338 85 l 1,26,-1
 507 85 l 1,27,-1
 507 0 l 1,28,-1
 0 0 l 1,29,-1
 0 85 l 1,30,-1
 85 85 l 1,31,-1
 85 930 l 1,32,-1
 0 930 l 1,33,-1
 0 1014 l 1,0,-1
338 930 m 1,34,-1
 338 507 l 1,35,-1
 507 507 l 1,36,37
 507 592 507 592 592 592 c 1,38,-1
 592 845 l 1,39,40
 507 845 507 845 507 930 c 1,41,-1
 338 930 l 1,34,-1
EndSplineSet
EndChar

StartChar: S
Encoding: 83 83 54
Width: 772
GlyphClass: 1
Flags: W
LayerCount: 2
Fore
SplineSet
170 1022 m 1,0,-1
 511 1022 l 1,1,-1
 511 937 l 1,2,-1
 596 937 l 1,3,-1
 596 1022 l 1,4,-1
 767 1022 l 1,5,-1
 767 681 l 1,6,-1
 596 681 l 1,7,8
 596 759 596 759 511 795 c 1,9,-1
 426 908 l 1,10,-1
 426 937 l 1,11,-1
 256 937 l 1,12,-1
 256 681 l 1,13,-1
 426 681 l 1,14,-1
 426 596 l 1,15,-1
 596 596 l 1,16,17
 596 518 596 518 681 483 c 1,18,19
 681 426 681 426 767 426 c 1,20,-1
 767 170 l 1,21,22
 688 170 688 170 653 85 c 1,23,24
 596 85 596 85 596 0 c 1,25,-1
 256 0 l 1,26,-1
 256 85 l 1,27,-1
 170 85 l 1,28,-1
 170 0 l 1,29,-1
 0 0 l 1,30,-1
 0 341 l 1,31,-1
 170 341 l 1,32,33
 170 263 170 263 256 227 c 1,34,-1
 341 114 l 1,35,-1
 341 85 l 1,36,-1
 511 85 l 1,37,-1
 511 341 l 1,38,39
 426 341 426 341 426 426 c 1,40,-1
 256 426 l 1,41,-1
 256 511 l 1,42,-1
 85 511 l 1,43,44
 85 596 85 596 0 596 c 1,45,-1
 0 852 l 1,46,47
 78 852 78 852 114 937 c 1,48,49
 170 937 170 937 170 1022 c 1,0,-1
EndSplineSet
EndChar

StartChar: T
Encoding: 84 84 55
Width: 944
GlyphClass: 1
Flags: W
LayerCount: 2
Fore
SplineSet
0 1018 m 1,0,-1
 933 1018 l 1,1,-1
 933 764 l 1,2,-1
 764 764 l 1,3,4
 764 841 764 841 679 877 c 1,5,-1
 679 933 l 1,6,-1
 594 933 l 1,7,-1
 594 85 l 1,8,-1
 679 85 l 1,9,-1
 679 0 l 1,10,-1
 255 0 l 1,11,-1
 255 85 l 1,12,-1
 339 85 l 1,13,-1
 339 933 l 1,14,-1
 255 933 l 1,15,16
 255 855 255 855 170 820 c 1,17,-1
 170 764 l 1,18,-1
 0 764 l 1,19,-1
 0 1018 l 1,0,-1
EndSplineSet
EndChar

StartChar: U
Encoding: 85 85 56
Width: 1020
GlyphClass: 1
Flags: W
LayerCount: 2
Fore
SplineSet
0 1012 m 1,0,-1
 422 1012 l 1,1,-1
 422 928 l 1,2,-1
 337 928 l 1,3,-1
 337 253 l 1,4,5
 415 253 415 253 450 169 c 1,6,7
 506 169 506 169 506 84 c 1,8,-1
 590 84 l 1,9,10
 590 162 590 162 675 197 c 1,11,12
 675 253 675 253 759 253 c 1,13,-1
 759 928 l 1,14,-1
 675 928 l 1,15,-1
 675 1012 l 1,16,-1
 1012 1012 l 1,17,-1
 1012 928 l 1,18,-1
 928 928 l 1,19,-1
 928 169 l 1,20,21
 850 169 850 169 815 84 c 1,22,23
 759 84 759 84 759 0 c 1,24,-1
 253 0 l 1,25,26
 253 77 253 77 169 112 c 1,27,28
 169 169 169 169 84 169 c 1,29,-1
 84 928 l 1,30,-1
 0 928 l 1,31,-1
 0 1012 l 1,0,-1
EndSplineSet
EndChar

StartChar: V
Encoding: 86 86 57
Width: 1094
GlyphClass: 1
Flags: W
LayerCount: 2
Fore
SplineSet
0 1010 m 1,0,-1
 505 1010 l 1,1,-1
 505 926 l 1,2,-1
 421 926 l 1,3,-1
 421 758 l 1,4,-1
 505 758 l 1,5,-1
 505 589 l 1,6,-1
 589 589 l 1,7,-1
 589 421 l 1,8,-1
 673 421 l 1,9,-1
 673 589 l 1,10,-1
 758 589 l 1,11,-1
 758 758 l 1,12,-1
 842 758 l 1,13,-1
 842 926 l 1,14,-1
 758 926 l 1,15,-1
 758 1010 l 1,16,-1
 1094 1010 l 1,17,-1
 1094 926 l 1,18,-1
 1010 926 l 1,19,-1
 1010 758 l 1,20,-1
 926 758 l 1,21,-1
 926 589 l 1,22,-1
 842 589 l 1,23,-1
 842 421 l 1,24,-1
 758 421 l 1,25,-1
 758 168 l 1,26,-1
 673 168 l 1,27,-1
 673 0 l 1,28,-1
 505 0 l 1,29,-1
 505 168 l 1,30,-1
 421 168 l 1,31,-1
 421 337 l 1,32,-1
 337 337 l 1,33,-1
 337 505 l 1,34,-1
 253 505 l 1,35,-1
 253 673 l 1,36,-1
 168 673 l 1,37,-1
 168 842 l 1,38,39
 91 842 91 842 56 926 c 1,40,-1
 0 926 l 1,41,-1
 0 1010 l 1,0,-1
EndSplineSet
EndChar

StartChar: W
Encoding: 87 87 58
Width: 1438
GlyphClass: 1
Flags: W
LayerCount: 2
Fore
SplineSet
0 1012 m 1,0,-1
 928 1012 l 1,1,-1
 928 928 l 1,2,-1
 759 928 l 1,3,-1
 759 759 l 1,4,-1
 843 759 l 1,5,-1
 843 590 l 1,6,7
 928 590 928 590 928 506 c 1,8,-1
 1012 506 l 1,9,-1
 1012 759 l 1,10,-1
 1096 759 l 1,11,-1
 1096 928 l 1,12,-1
 1012 928 l 1,13,-1
 1012 1012 l 1,14,-1
 1434 1012 l 1,15,-1
 1434 928 l 1,16,-1
 1265 928 l 1,17,-1
 1265 759 l 1,18,-1
 1181 759 l 1,19,-1
 1181 506 l 1,20,-1
 1096 506 l 1,21,-1
 1096 169 l 1,22,-1
 1012 169 l 1,23,-1
 1012 0 l 1,24,-1
 843 0 l 1,25,-1
 843 169 l 1,26,-1
 759 169 l 1,27,-1
 759 337 l 1,28,-1
 675 337 l 1,29,-1
 675 169 l 1,30,-1
 590 169 l 1,31,-1
 590 0 l 1,32,-1
 422 0 l 1,33,-1
 422 169 l 1,34,-1
 337 169 l 1,35,-1
 337 337 l 1,36,-1
 253 337 l 1,37,-1
 253 590 l 1,38,-1
 169 590 l 1,39,-1
 169 759 l 1,40,-1
 84 759 l 1,41,-1
 84 928 l 1,42,-1
 0 928 l 1,43,-1
 0 1012 l 1,0,-1
337 928 m 1,44,-1
 337 759 l 1,45,-1
 422 759 l 1,46,-1
 422 590 l 1,47,48
 506 590 506 590 506 506 c 1,49,-1
 590 506 l 1,50,-1
 590 759 l 1,51,-1
 506 759 l 1,52,-1
 506 928 l 1,53,-1
 337 928 l 1,44,-1
EndSplineSet
EndChar

StartChar: X
Encoding: 88 88 59
Width: 940
GlyphClass: 1
Flags: W
LayerCount: 2
Fore
SplineSet
0 1020 m 1,0,-1
 425 1020 l 1,1,-1
 425 935 l 1,2,-1
 340 935 l 1,3,-1
 340 850 l 1,4,-1
 425 850 l 1,5,-1
 425 680 l 1,6,-1
 510 680 l 1,7,8
 510 758 510 758 595 793 c 1,9,10
 595 850 595 850 680 850 c 1,11,-1
 680 935 l 1,12,-1
 595 935 l 1,13,-1
 595 1020 l 1,14,-1
 935 1020 l 1,15,-1
 935 935 l 1,16,17
 857 935 857 935 822 850 c 1,18,-1
 708 765 l 1,19,-1
 680 765 l 1,20,-1
 680 595 l 1,21,-1
 595 595 l 1,22,-1
 595 425 l 1,23,24
 673 425 673 425 708 340 c 1,25,-1
 765 340 l 1,26,-1
 765 170 l 1,27,28
 843 170 843 170 878 85 c 1,29,-1
 935 85 l 1,30,-1
 935 0 l 1,31,-1
 510 0 l 1,32,-1
 510 85 l 1,33,-1
 595 85 l 1,34,-1
 595 170 l 1,35,-1
 510 170 l 1,36,-1
 510 340 l 1,37,-1
 340 340 l 1,38,-1
 340 170 l 1,39,-1
 255 170 l 1,40,-1
 255 85 l 1,41,-1
 340 85 l 1,42,-1
 340 0 l 1,43,-1
 0 0 l 1,44,-1
 0 85 l 1,45,46
 78 85 78 85 113 170 c 1,47,-1
 170 170 l 1,48,-1
 170 340 l 1,49,50
 248 340 248 340 283 425 c 1,51,-1
 340 425 l 1,52,-1
 340 595 l 1,53,54
 262 595 262 595 227 680 c 1,55,-1
 170 680 l 1,56,-1
 170 850 l 1,57,58
 92 850 92 850 57 935 c 1,59,-1
 0 935 l 1,60,-1
 0 1020 l 1,0,-1
EndSplineSet
EndChar

StartChar: Y
Encoding: 89 89 60
Width: 938
GlyphClass: 1
Flags: W
LayerCount: 2
Fore
SplineSet
0 1018 m 1,0,-1
 424 1018 l 1,1,-1
 424 933 l 1,2,-1
 339 933 l 1,3,-1
 339 848 l 1,4,-1
 424 848 l 1,5,-1
 424 679 l 1,6,-1
 594 679 l 1,7,-1
 594 848 l 1,8,-1
 679 848 l 1,9,-1
 679 933 l 1,10,-1
 594 933 l 1,11,-1
 594 1018 l 1,12,-1
 933 1018 l 1,13,-1
 933 933 l 1,14,15
 855 933 855 933 820 848 c 1,16,-1
 764 848 l 1,17,-1
 764 679 l 1,18,-1
 679 679 l 1,19,-1
 679 509 l 1,20,-1
 594 509 l 1,21,-1
 594 85 l 1,22,-1
 679 85 l 1,23,-1
 679 0 l 1,24,-1
 255 0 l 1,25,-1
 255 85 l 1,26,-1
 339 85 l 1,27,-1
 339 509 l 1,28,-1
 255 509 l 1,29,-1
 255 679 l 1,30,-1
 170 679 l 1,31,-1
 170 848 l 1,32,33
 92 848 92 848 57 933 c 1,34,-1
 0 933 l 1,35,-1
 0 1018 l 1,0,-1
EndSplineSet
EndChar

StartChar: Z
Encoding: 90 90 61
Width: 942
GlyphClass: 1
Flags: W
LayerCount: 2
Fore
SplineSet
0 1022 m 1,0,-1
 937 1022 l 1,1,-1
 937 937 l 1,2,3
 859 937 859 937 823 852 c 1,4,-1
 767 852 l 1,5,-1
 767 681 l 1,6,7
 688 681 688 681 653 596 c 1,8,-1
 596 596 l 1,9,-1
 596 426 l 1,10,11
 518 426 518 426 483 341 c 1,12,-1
 426 341 l 1,13,-1
 426 170 l 1,14,-1
 341 170 l 1,15,-1
 341 85 l 1,16,-1
 681 85 l 1,17,18
 681 163 681 163 767 199 c 1,19,-1
 767 256 l 1,20,-1
 937 256 l 1,21,-1
 937 0 l 1,22,-1
 0 0 l 1,23,-1
 0 85 l 1,24,25
 78 85 78 85 114 170 c 1,26,-1
 170 170 l 1,27,-1
 170 341 l 1,28,29
 248 341 248 341 284 426 c 1,30,-1
 341 426 l 1,31,-1
 341 596 l 1,32,33
 419 596 419 596 454 681 c 1,34,-1
 511 681 l 1,35,-1
 511 852 l 1,36,-1
 596 852 l 1,37,-1
 596 937 l 1,38,-1
 256 937 l 1,39,40
 256 859 256 859 170 823 c 1,41,-1
 170 767 l 1,42,-1
 0 767 l 1,43,-1
 0 1022 l 1,0,-1
EndSplineSet
EndChar

StartChar: underscore
Encoding: 95 95 66
Width: 1024
GlyphClass: 1
Flags: W
LayerCount: 2
Fore
SplineSet
0 -100 m 1,0,-1
 1024 -100 l 1,1,-1
 1024 -160 l 1,2,-1
 0 -160 l 1,3,-1
 0 -100 l 1,0,-1
EndSplineSet
EndChar

StartChar: grave
Encoding: 96 96 67
Width: 1024
GlyphClass: 1
Flags: W
LayerCount: 2
Fore
SplineSet
673 1079 m 1,0,-1
 604 1079 l 1,1,-1
 274 1281 l 2,2,3
 243 1301 243 1301 227.5 1321 c 128,-1,4
 212 1341 212 1341 212 1363 c 0,5,6
 212 1394 212 1394 232.5 1414 c 128,-1,7
 253 1434 253 1434 286 1434 c 0,8,9
 306 1434 306 1434 326.5 1422 c 128,-1,10
 347 1410 347 1410 382 1375 c 2,11,-1
 673 1079 l 1,0,-1
EndSplineSet
EndChar

StartChar: a
Encoding: 97 97 68
Width: 728
GlyphClass: 1
Flags: W
LayerCount: 2
Fore
SplineSet
120 782 m 1,0,-1
 511 782 l 1,1,2
 511 684 511 684 560 684 c 1,3,-1
 574 675 l 1,4,-1
 585 390 l 1,5,-1
 585 72 l 1,6,-1
 707 72 l 1,7,-1
 707 -1 l 1,8,-1
 511 -1 l 1,9,-1
 511 97 l 1,10,-1
 316 97 l 1,11,-1
 316 195 l 1,12,-1
 413 195 l 1,13,-1
 413 390 l 1,14,-1
 316 390 l 1,15,-1
 316 439 l 1,16,17
 438 511 438 511 438 659 c 2,18,-1
 438 708 l 1,19,-1
 193 708 l 1,20,21
 193 610 193 610 144 610 c 256,22,23
 95 610 95 610 95 488 c 1,24,-1
 22 488 l 1,25,-1
 22 684 l 1,26,27
 120 684 120 684 120 733 c 2,28,-1
 120 782 l 1,0,-1
316 390 m 1,29,-1
 316 293 l 1,30,-1
 218 293 l 1,31,-1
 218 97 l 1,32,-1
 316 97 l 1,33,-1
 316 -1 l 1,34,-1
 120 -1 l 1,35,36
 120 97 120 97 71 97 c 2,37,-1
 22 97 l 1,38,-1
 22 293 l 1,39,40
 120 293 120 293 144 366 c 1,41,-1
 316 390 l 1,29,-1
EndSplineSet
EndChar

StartChar: b
Encoding: 98 98 69
Width: 736
GlyphClass: 1
Flags: W
LayerCount: 2
Fore
SplineSet
91 1092 m 1,0,-1
 273 1092 l 1,1,-1
 273 637 l 1,2,-1
 364 637 l 1,3,-1
 364 728 l 1,4,-1
 546 728 l 1,5,6
 546 637 546 637 592 637 c 0,7,8
 643 637 643 637 660 546 c 1,9,-1
 728 546 l 1,10,-1
 728 182 l 1,11,12
 637 182 637 182 637 137 c 2,13,-1
 637 91 l 1,14,-1
 546 91 l 1,15,-1
 546 455 l 1,16,17
 478 455 478 455 478 523 c 2,18,-1
 478 569 l 1,19,-1
 250 569 l 1,20,-1
 250 91 l 1,21,-1
 91 91 l 1,22,-1
 91 910 l 1,23,-1
 0 910 l 1,24,-1
 0 1001 l 1,25,26
 91 1001 91 1001 91 1047 c 2,27,-1
 91 1092 l 1,0,-1
546 91 m 1,28,-1
 546 0 l 1,29,-1
 273 0 l 1,30,-1
 273 68 l 1,31,-1
 546 91 l 1,28,-1
EndSplineSet
EndChar

StartChar: c
Encoding: 99 99 70
Width: 712
GlyphClass: 1
Flags: W
LayerCount: 2
Fore
SplineSet
202 809 m 1,0,-1
 607 809 l 1,1,2
 607 708 607 708 657 708 c 2,3,-1
 708 708 l 1,4,-1
 708 506 l 1,5,-1
 506 506 l 1,6,-1
 506 708 l 1,7,-1
 303 708 l 1,8,9
 303 607 303 607 253 607 c 2,10,-1
 202 607 l 1,11,-1
 202 202 l 1,12,13
 303 202 303 202 303 152 c 2,14,-1
 303 101 l 1,15,-1
 506 101 l 1,16,17
 506 210 506 210 607 228 c 1,18,-1
 607 303 l 1,19,-1
 708 303 l 1,20,-1
 708 101 l 1,21,22
 607 101 607 101 607 51 c 2,23,-1
 607 0 l 1,24,-1
 202 0 l 1,25,26
 202 101 202 101 152 101 c 0,27,28
 95 101 95 101 76 202 c 1,29,-1
 0 202 l 1,30,-1
 0 607 l 1,31,32
 101 607 101 607 101 657 c 0,33,34
 101 714 101 714 202 733 c 1,35,-1
 202 809 l 1,0,-1
EndSplineSet
EndChar

StartChar: d
Encoding: 100 100 71
Width: 674
GlyphClass: 1
Flags: W
LayerCount: 2
Fore
SplineSet
469 1126 m 1,0,-1
 657 1126 l 1,1,-1
 657 0 l 1,2,-1
 563 0 l 1,3,-1
 563 94 l 1,4,-1
 375 94 l 1,5,-1
 375 0 l 1,6,-1
 188 0 l 1,7,8
 188 94 188 94 141 94 c 0,9,10
 88 94 88 94 70 188 c 1,11,-1
 0 188 l 1,12,-1
 0 563 l 1,13,14
 94 563 94 563 94 610 c 2,15,-1
 94 657 l 1,16,-1
 188 657 l 1,17,-1
 188 282 l 1,18,19
 282 282 282 282 282 235 c 2,20,-1
 282 188 l 1,21,-1
 469 188 l 1,22,-1
 469 563 l 1,23,-1
 375 563 l 1,24,-1
 375 657 l 1,25,-1
 469 657 l 1,26,-1
 469 938 l 1,27,-1
 375 938 l 1,28,-1
 375 1032 l 1,29,30
 469 1032 469 1032 469 1079 c 2,31,-1
 469 1126 l 1,0,-1
188 751 m 1,32,-1
 375 751 l 1,33,-1
 375 657 l 1,34,-1
 188 657 l 1,35,-1
 188 751 l 1,32,-1
EndSplineSet
EndChar

StartChar: e
Encoding: 101 101 72
Width: 712
GlyphClass: 1
Flags: W
LayerCount: 2
Fore
SplineSet
203 811 m 1,0,-1
 507 811 l 1,1,-1
 507 760 l 2,2,3
 507 710 507 710 456 710 c 2,4,-1
 203 710 l 1,5,-1
 203 811 l 1,0,-1
101 710 m 1,6,-1
 203 710 l 1,7,-1
 203 507 l 1,8,-1
 507 507 l 1,9,-1
 507 659 l 1,10,11
 515 710 515 710 558 710 c 2,12,-1
 608 710 l 1,13,14
 608 608 608 608 659 608 c 2,15,-1
 710 608 l 1,16,-1
 710 405 l 1,17,-1
 203 405 l 1,18,-1
 203 304 l 1,19,20
 304 304 304 304 304 253 c 2,21,-1
 304 203 l 1,22,-1
 608 203 l 1,23,-1
 608 101 l 1,24,25
 507 101 507 101 507 51 c 2,26,-1
 507 0 l 1,27,-1
 203 0 l 1,28,29
 203 101 203 101 152 101 c 0,30,31
 95 101 95 101 76 203 c 1,32,-1
 0 203 l 1,33,-1
 0 608 l 1,34,35
 101 608 101 608 101 659 c 2,36,-1
 101 710 l 1,6,-1
608 304 m 1,37,-1
 710 304 l 1,38,-1
 710 203 l 1,39,-1
 608 203 l 1,40,-1
 608 304 l 1,37,-1
EndSplineSet
EndChar

StartChar: f
Encoding: 102 102 73
Width: 514
GlyphClass: 1
Flags: W
LayerCount: 2
Fore
SplineSet
169 1014 m 1,0,-1
 423 1014 l 1,1,-1
 423 930 l 1,2,-1
 254 930 l 1,3,-1
 254 676 l 1,4,-1
 423 676 l 1,5,-1
 423 592 l 1,6,-1
 254 592 l 1,7,-1
 254 85 l 1,8,-1
 338 85 l 1,9,-1
 338 0 l 1,10,-1
 0 0 l 1,11,-1
 0 85 l 1,12,-1
 85 85 l 1,13,-1
 85 592 l 1,14,-1
 0 592 l 1,15,-1
 0 676 l 1,16,-1
 85 676 l 1,17,-1
 85 930 l 1,18,19
 169 930 169 930 169 972 c 2,20,-1
 169 1014 l 1,0,-1
423 930 m 1,21,-1
 507 930 l 1,22,-1
 507 845 l 1,23,-1
 423 845 l 1,24,-1
 423 930 l 1,21,-1
EndSplineSet
EndChar

StartChar: g
Encoding: 103 103 74
Width: 836
GlyphClass: 1
Flags: W
LayerCount: 2
Fore
SplineSet
187 805 m 1,0,-1
 651 805 l 1,1,2
 651 712 651 712 697 712 c 2,3,-1
 743 712 l 1,4,-1
 720 550 l 1,5,-1
 720 365 l 1,6,7
 627 365 627 365 627 319 c 2,8,-1
 627 272 l 1,9,-1
 349 272 l 1,10,-1
 187 249 l 1,11,12
 187 342 187 342 141 342 c 2,13,-1
 95 342 l 1,14,-1
 95 712 l 1,15,16
 187 712 187 712 187 759 c 2,17,-1
 187 805 l 1,0,-1
743 805 m 1,18,-1
 836 805 l 1,19,-1
 836 712 l 1,20,-1
 743 712 l 1,21,-1
 743 805 l 1,18,-1
280 712 m 1,22,-1
 280 435 l 1,23,24
 373 435 373 435 373 388 c 2,25,-1
 373 342 l 1,26,-1
 558 342 l 1,27,-1
 558 620 l 1,28,29
 465 620 465 620 465 666 c 2,30,-1
 465 712 l 1,31,-1
 280 712 l 1,22,-1
95 249 m 1,32,-1
 187 249 l 1,33,-1
 187 157 l 1,34,-1
 95 157 l 1,35,-1
 95 249 l 1,32,-1
187 157 m 1,36,-1
 349 133 l 1,37,-1
 651 133 l 1,38,39
 651 64 651 64 720 64 c 2,40,-1
 743 64 l 1,41,-1
 743 -6 l 1,42,43
 627 -6 627 -6 627 -52 c 2,44,-1
 627 -121 l 1,45,-1
 558 -121 l 1,46,47
 558 -21 558 -21 465 -6 c 1,48,-1
 465 64 l 1,49,-1
 187 64 l 1,50,-1
 187 157 l 1,36,-1
2 64 m 1,51,-1
 187 64 l 1,52,-1
 164 -98 l 1,53,-1
 164 -121 l 1,54,-1
 558 -121 l 1,55,-1
 558 -214 l 1,56,-1
 164 -214 l 1,57,58
 164 -173 164 -173 95 -75 c 1,59,60
 95 -29 95 -29 2 -29 c 1,61,-1
 2 64 l 1,51,-1
EndSplineSet
EndChar

StartChar: h
Encoding: 104 104 75
Width: 764
GlyphClass: 1
Flags: W
LayerCount: 2
Fore
SplineSet
85 1014 m 1,0,-1
 254 1014 l 1,1,-1
 254 592 l 1,2,-1
 338 592 l 1,3,-1
 338 507 l 1,4,-1
 254 507 l 1,5,-1
 254 85 l 1,6,-1
 338 85 l 1,7,-1
 338 0 l 1,8,-1
 0 0 l 1,9,-1
 0 85 l 1,10,-1
 85 85 l 1,11,-1
 85 845 l 1,12,-1
 0 845 l 1,13,-1
 0 930 l 1,14,15
 85 930 85 930 85 972 c 2,16,-1
 85 1014 l 1,0,-1
338 676 m 1,17,-1
 592 676 l 1,18,19
 592 592 592 592 634 592 c 2,20,-1
 676 592 l 1,21,-1
 676 85 l 1,22,-1
 761 85 l 1,23,-1
 761 0 l 1,24,-1
 423 0 l 1,25,-1
 423 85 l 1,26,-1
 507 85 l 1,27,-1
 507 592 l 1,28,-1
 338 592 l 1,29,-1
 338 676 l 1,17,-1
EndSplineSet
EndChar

StartChar: i
Encoding: 105 105 76
Width: 344
GlyphClass: 1
Flags: W
LayerCount: 2
Fore
SplineSet
85 1020 m 1,0,-1
 255 1020 l 1,1,-1
 255 850 l 1,2,-1
 85 850 l 1,3,-1
 85 1020 l 1,0,-1
85 680 m 1,4,-1
 255 680 l 1,5,-1
 255 85 l 1,6,-1
 340 85 l 1,7,-1
 340 0 l 1,8,-1
 0 0 l 1,9,-1
 0 85 l 1,10,-1
 85 85 l 1,11,-1
 85 510 l 1,12,-1
 0 510 l 1,13,-1
 0 595 l 1,14,15
 85 595 85 595 85 638 c 2,16,-1
 85 680 l 1,4,-1
EndSplineSet
EndChar

StartChar: j
Encoding: 106 106 77
Width: 258
GlyphClass: 1
Flags: W
LayerCount: 2
Fore
SplineSet
68 1024 m 1,0,-1
 220 1024 l 1,1,2
 220 872 220 872 106 872 c 2,3,-1
 68 872 l 1,4,-1
 68 1024 l 1,0,-1
68 721 m 1,5,-1
 220 721 l 1,6,-1
 201 531 l 1,7,-1
 201 -19 l 1,8,9
 125 -19 125 -19 125 -57 c 0,10,11
 125 -114 125 -114 -8 -114 c 1,12,-1
 -8 -38 l 1,13,-1
 68 -38 l 1,14,-1
 68 569 l 1,15,-1
 -8 569 l 1,16,-1
 -8 645 l 1,17,18
 68 645 68 645 68 683 c 2,19,-1
 68 721 l 1,5,-1
EndSplineSet
EndChar

StartChar: k
Encoding: 107 107 78
Width: 766
GlyphClass: 1
Flags: W
LayerCount: 2
Fore
SplineSet
85 1014 m 1,0,-1
 254 1014 l 1,1,-1
 254 423 l 1,2,-1
 338 423 l 1,3,-1
 338 507 l 1,4,-1
 423 507 l 1,5,-1
 423 338 l 1,6,7
 507 338 507 338 507 296 c 0,8,9
 507 248 507 248 592 232 c 1,10,11
 592 169 592 169 655 169 c 1,12,13
 669 85 669 85 761 85 c 1,14,-1
 761 0 l 1,15,-1
 423 0 l 1,16,-1
 423 85 l 1,17,-1
 507 85 l 1,18,-1
 507 169 l 1,19,20
 423 169 423 169 423 211 c 0,21,22
 423 259 423 259 338 275 c 1,23,-1
 338 338 l 1,24,-1
 254 338 l 1,25,-1
 254 85 l 1,26,-1
 338 85 l 1,27,-1
 338 0 l 1,28,-1
 0 0 l 1,29,-1
 0 85 l 1,30,-1
 85 85 l 1,31,-1
 85 845 l 1,32,-1
 0 845 l 1,33,-1
 0 930 l 1,34,35
 85 930 85 930 85 972 c 2,36,-1
 85 1014 l 1,0,-1
338 676 m 1,37,-1
 676 676 l 1,38,-1
 676 592 l 1,39,-1
 507 592 l 1,40,-1
 507 507 l 1,41,-1
 423 507 l 1,42,43
 423 592 423 592 380 592 c 2,44,-1
 338 592 l 1,45,-1
 338 676 l 1,37,-1
EndSplineSet
EndChar

StartChar: l
Encoding: 108 108 79
Width: 346
GlyphClass: 1
Flags: W
LayerCount: 2
Fore
SplineSet
85 1016 m 1,0,-1
 254 1016 l 1,1,-1
 254 85 l 1,2,-1
 339 85 l 1,3,-1
 339 0 l 1,4,-1
 0 0 l 1,5,-1
 0 85 l 1,6,-1
 85 85 l 1,7,-1
 85 847 l 1,8,-1
 0 847 l 1,9,-1
 0 931 l 1,10,11
 85 931 85 931 85 974 c 2,12,-1
 85 1016 l 1,0,-1
EndSplineSet
EndChar

StartChar: m
Encoding: 109 109 80
Width: 1102
GlyphClass: 1
Flags: W
LayerCount: 2
Fore
SplineSet
100 798 m 1,0,-1
 200 798 l 1,1,2
 200 698 200 698 249 698 c 2,3,-1
 299 698 l 1,4,-1
 299 599 l 1,5,-1
 200 599 l 1,6,-1
 200 100 l 1,7,-1
 299 100 l 1,8,-1
 299 0 l 1,9,-1
 0 0 l 1,10,-1
 0 100 l 1,11,-1
 100 100 l 1,12,-1
 100 599 l 1,13,-1
 0 599 l 1,14,-1
 0 698 l 1,15,16
 100 698 100 698 100 748 c 2,17,-1
 100 798 l 1,0,-1
299 798 m 1,18,-1
 499 798 l 1,19,-1
 499 698 l 1,20,-1
 299 698 l 1,21,-1
 299 798 l 1,18,-1
698 798 m 1,22,-1
 998 798 l 1,23,24
 998 698 998 698 1047 698 c 2,25,-1
 1097 698 l 1,26,-1
 1097 0 l 1,27,-1
 798 0 l 1,28,-1
 798 100 l 1,29,-1
 898 100 l 1,30,-1
 898 698 l 1,31,-1
 698 698 l 1,32,-1
 698 798 l 1,22,-1
499 698 m 1,33,-1
 698 698 l 1,34,-1
 698 599 l 1,35,-1
 599 599 l 1,36,-1
 599 100 l 1,37,-1
 698 100 l 1,38,-1
 698 0 l 1,39,-1
 399 0 l 1,40,-1
 399 100 l 1,41,-1
 499 100 l 1,42,-1
 499 698 l 1,33,-1
EndSplineSet
EndChar

StartChar: n
Encoding: 110 110 81
Width: 910
GlyphClass: 1
Flags: W
LayerCount: 2
Fore
SplineSet
201 803 m 1,0,-1
 301 803 l 1,1,2
 301 703 301 703 351 703 c 2,3,-1
 402 703 l 1,4,-1
 402 602 l 1,5,-1
 301 602 l 1,6,-1
 301 100 l 1,7,-1
 402 100 l 1,8,-1
 402 0 l 1,9,-1
 0 0 l 1,10,-1
 0 100 l 1,11,-1
 100 100 l 1,12,-1
 100 602 l 1,13,-1
 0 602 l 1,14,-1
 0 703 l 1,15,-1
 201 703 l 1,16,-1
 201 803 l 1,0,-1
402 803 m 1,17,-1
 703 803 l 1,18,19
 703 703 703 703 753 703 c 2,20,-1
 803 703 l 1,21,-1
 803 100 l 1,22,-1
 904 100 l 1,23,-1
 904 0 l 1,24,-1
 502 0 l 1,25,-1
 502 100 l 1,26,-1
 602 100 l 1,27,-1
 602 703 l 1,28,-1
 402 703 l 1,29,-1
 402 803 l 1,17,-1
EndSplineSet
EndChar

StartChar: o
Encoding: 111 111 82
Width: 802
GlyphClass: 1
Flags: W
LayerCount: 2
Fore
SplineSet
201 804 m 1,0,-1
 603 804 l 1,1,2
 603 704 603 704 653 704 c 0,3,4
 710 704 710 704 729 603 c 1,5,-1
 804 603 l 1,6,-1
 804 201 l 1,7,8
 704 201 704 201 704 151 c 0,9,10
 704 94 704 94 603 75 c 1,11,-1
 603 0 l 1,12,-1
 201 0 l 1,13,14
 201 101 201 101 151 101 c 0,15,16
 94 101 94 101 75 201 c 1,17,-1
 0 201 l 1,18,-1
 0 603 l 1,19,20
 101 603 101 603 101 653 c 0,21,22
 101 710 101 710 201 729 c 1,23,-1
 201 804 l 1,0,-1
302 704 m 1,24,25
 302 603 302 603 251 603 c 2,26,-1
 201 603 l 1,27,-1
 201 201 l 1,28,29
 302 201 302 201 302 151 c 2,30,-1
 302 101 l 1,31,-1
 503 101 l 1,32,33
 503 201 503 201 553 201 c 2,34,-1
 603 201 l 1,35,-1
 603 603 l 1,36,37
 503 603 503 603 503 653 c 2,38,-1
 503 704 l 1,39,-1
 302 704 l 1,24,25
EndSplineSet
EndChar

StartChar: p
Encoding: 112 112 83
Width: 770
GlyphClass: 1
Flags: W
LayerCount: 2
Fore
SplineSet
183 830 m 1,0,-1
 274 830 l 1,1,2
 274 738 274 738 320 738 c 2,3,-1
 366 738 l 1,4,-1
 366 647 l 1,5,-1
 274 647 l 1,6,-1
 274 281 l 1,7,-1
 457 281 l 1,8,9
 457 373 457 373 503 373 c 2,10,-1
 549 373 l 1,11,-1
 549 738 l 1,12,-1
 640 738 l 1,13,14
 640 647 640 647 686 647 c 2,15,-1
 731 647 l 1,16,-1
 731 281 l 1,17,18
 640 281 640 281 640 235 c 0,19,20
 640 184 640 184 549 167 c 1,21,-1
 549 98 l 1,22,-1
 366 98 l 1,23,-1
 366 190 l 1,24,-1
 274 190 l 1,25,-1
 274 -85 l 1,26,-1
 366 -85 l 1,27,-1
 366 -176 l 1,28,-1
 0 -176 l 1,29,-1
 0 -85 l 1,30,-1
 91 -85 l 1,31,-1
 91 647 l 1,32,-1
 0 647 l 1,33,-1
 0 738 l 1,34,-1
 183 738 l 1,35,-1
 183 830 l 1,0,-1
366 830 m 1,36,-1
 549 830 l 1,37,-1
 549 738 l 1,38,-1
 366 738 l 1,39,-1
 366 830 l 1,36,-1
EndSplineSet
EndChar

StartChar: q
Encoding: 113 113 84
Width: 738
GlyphClass: 1
Flags: W
LayerCount: 2
Fore
SplineSet
176 808 m 1,0,-1
 451 808 l 1,1,-1
 451 716 l 1,2,-1
 176 716 l 1,3,-1
 176 808 l 1,0,-1
543 808 m 1,4,-1
 635 808 l 1,5,-1
 635 -110 l 1,6,-1
 727 -110 l 1,7,-1
 727 -202 l 1,8,-1
 359 -202 l 1,9,-1
 359 -110 l 1,10,-1
 451 -110 l 1,11,-1
 451 165 l 1,12,-1
 359 165 l 1,13,-1
 359 73 l 1,14,-1
 176 73 l 1,15,16
 176 165 176 165 130 165 c 0,17,18
 78 165 78 165 61 257 c 1,19,-1
 -8 257 l 1,20,-1
 -8 624 l 1,21,22
 84 624 84 624 84 670 c 2,23,-1
 84 716 l 1,24,-1
 176 716 l 1,25,-1
 176 349 l 1,26,27
 267 349 267 349 267 303 c 2,28,-1
 267 257 l 1,29,-1
 451 257 l 1,30,-1
 451 716 l 1,31,32
 543 716 543 716 543 762 c 2,33,-1
 543 808 l 1,4,-1
EndSplineSet
EndChar

StartChar: r
Encoding: 114 114 85
Width: 600
GlyphClass: 1
Flags: W
LayerCount: 2
Fore
SplineSet
100 797 m 1,0,-1
 199 797 l 1,1,2
 199 697 199 697 249 697 c 2,3,-1
 299 697 l 1,4,-1
 299 100 l 1,5,-1
 398 100 l 1,6,-1
 398 0 l 1,7,-1
 0 0 l 1,8,-1
 0 100 l 1,9,-1
 100 100 l 1,10,-1
 100 598 l 1,11,-1
 0 598 l 1,12,-1
 0 697 l 1,13,14
 100 697 100 697 100 747 c 2,15,-1
 100 797 l 1,0,-1
299 797 m 1,16,-1
 598 797 l 1,17,-1
 598 598 l 1,18,-1
 398 598 l 1,19,20
 398 697 398 697 349 697 c 2,21,-1
 299 697 l 1,22,-1
 299 797 l 1,16,-1
EndSplineSet
EndChar

StartChar: s
Encoding: 115 115 86
Width: 608
GlyphClass: 1
Flags: W
LayerCount: 2
Fore
SplineSet
101 811 m 1,0,-1
 507 811 l 1,1,2
 507 709 507 709 557 709 c 2,3,-1
 608 709 l 1,4,-1
 608 507 l 1,5,-1
 507 507 l 1,6,7
 507 616 507 616 405 633 c 1,8,-1
 405 709 l 1,9,-1
 203 709 l 1,10,-1
 203 608 l 1,11,12
 304 608 304 608 304 557 c 0,13,14
 304 500 304 500 405 481 c 1,15,16
 405 405 405 405 481 405 c 1,17,18
 499 304 499 304 608 304 c 1,19,-1
 608 101 l 1,20,21
 507 101 507 101 507 51 c 2,22,-1
 507 0 l 1,23,-1
 101 0 l 1,24,25
 101 101 101 101 51 101 c 2,26,-1
 0 101 l 1,27,-1
 0 304 l 1,28,-1
 101 304 l 1,29,30
 101 195 101 195 203 177 c 1,31,-1
 203 101 l 1,32,-1
 405 101 l 1,33,-1
 405 203 l 1,34,35
 304 203 304 203 304 253 c 0,36,37
 304 310 304 310 203 329 c 1,38,39
 203 405 203 405 127 405 c 1,40,41
 109 507 109 507 0 507 c 1,42,-1
 0 709 l 1,43,44
 101 709 101 709 101 760 c 2,45,-1
 101 811 l 1,0,-1
EndSplineSet
EndChar

StartChar: t
Encoding: 116 116 87
Width: 512
GlyphClass: 1
Flags: W
LayerCount: 2
Fore
SplineSet
204 1020 m 1,0,-1
 306 1020 l 1,1,-1
 306 816 l 1,2,-1
 408 816 l 1,3,-1
 408 714 l 1,4,-1
 306 714 l 1,5,-1
 306 102 l 1,6,-1
 408 102 l 1,7,-1
 408 0 l 1,8,-1
 204 0 l 1,9,10
 204 102 204 102 153 102 c 2,11,-1
 102 102 l 1,12,-1
 102 714 l 1,13,-1
 0 714 l 1,14,-1
 0 816 l 1,15,16
 102 816 102 816 102 867 c 0,17,18
 102 924 102 924 204 944 c 1,19,-1
 204 1020 l 1,0,-1
408 204 m 1,20,-1
 510 204 l 1,21,-1
 510 102 l 1,22,-1
 408 102 l 1,23,-1
 408 204 l 1,20,-1
EndSplineSet
EndChar

StartChar: u
Encoding: 117 117 88
Width: 882
GlyphClass: 1
Flags: W
LayerCount: 2
Fore
SplineSet
0 786 m 1,0,-1
 295 786 l 1,1,-1
 295 98 l 1,2,-1
 491 98 l 1,3,-1
 491 0 l 1,4,-1
 196 0 l 1,5,6
 196 98 196 98 147 98 c 2,7,-1
 98 98 l 1,8,-1
 98 687 l 1,9,-1
 0 687 l 1,10,-1
 0 786 l 1,0,-1
491 786 m 1,11,-1
 786 786 l 1,12,-1
 786 196 l 1,13,-1
 884 196 l 1,14,-1
 884 98 l 1,15,16
 786 98 786 98 786 49 c 2,17,-1
 786 0 l 1,18,-1
 589 0 l 1,19,20
 589 98 589 98 540 98 c 2,21,-1
 491 98 l 1,22,-1
 491 196 l 1,23,-1
 589 196 l 1,24,-1
 589 687 l 1,25,-1
 491 687 l 1,26,-1
 491 786 l 1,11,-1
EndSplineSet
EndChar

StartChar: v
Encoding: 118 118 89
Width: 904
GlyphClass: 1
Flags: W
LayerCount: 2
Fore
SplineSet
0 805 m 1,0,-1
 402 805 l 1,1,-1
 402 704 l 1,2,-1
 302 704 l 1,3,-1
 302 604 l 1,4,-1
 402 604 l 1,5,-1
 402 402 l 1,6,-1
 604 402 l 1,7,-1
 604 201 l 1,8,-1
 503 201 l 1,9,-1
 503 0 l 1,10,-1
 402 0 l 1,11,-1
 402 201 l 1,12,-1
 302 201 l 1,13,-1
 302 402 l 1,14,-1
 201 402 l 1,15,-1
 201 604 l 1,16,17
 93 604 93 604 75 704 c 1,18,-1
 0 704 l 1,19,-1
 0 805 l 1,0,-1
604 805 m 1,20,-1
 906 805 l 1,21,-1
 906 704 l 1,22,23
 805 704 805 704 805 654 c 2,24,-1
 805 604 l 1,25,-1
 704 604 l 1,26,27
 704 704 704 704 654 704 c 2,28,-1
 604 704 l 1,29,-1
 604 805 l 1,20,-1
604 604 m 1,30,-1
 704 604 l 1,31,-1
 704 402 l 1,32,-1
 604 402 l 1,33,-1
 604 604 l 1,30,-1
EndSplineSet
EndChar

StartChar: w
Encoding: 119 119 90
Width: 1112
GlyphClass: 1
Flags: W
LayerCount: 2
Fore
SplineSet
2 804 m 1,0,-1
 303 804 l 1,1,-1
 303 704 l 1,2,-1
 203 704 l 1,3,-1
 203 604 l 1,4,-1
 303 604 l 1,5,-1
 303 403 l 1,6,-1
 403 403 l 1,7,8
 403 503 403 503 453 503 c 2,9,-1
 503 503 l 1,10,-1
 503 604 l 1,11,-1
 403 604 l 1,12,-1
 403 804 l 1,13,-1
 704 804 l 1,14,-1
 704 704 l 1,15,-1
 604 704 l 1,16,-1
 604 604 l 1,17,-1
 704 604 l 1,18,-1
 704 403 l 1,19,-1
 804 403 l 1,20,-1
 804 503 l 1,21,-1
 904 503 l 1,22,-1
 904 203 l 1,23,-1
 804 203 l 1,24,-1
 804 2 l 1,25,-1
 704 2 l 1,26,-1
 704 203 l 1,27,-1
 604 203 l 1,28,-1
 604 403 l 1,29,-1
 503 403 l 1,30,-1
 503 203 l 1,31,-1
 403 203 l 1,32,-1
 403 2 l 1,33,-1
 303 2 l 1,34,-1
 303 203 l 1,35,-1
 203 203 l 1,36,-1
 203 403 l 1,37,-1
 102 403 l 1,38,-1
 102 704 l 1,39,-1
 2 704 l 1,40,-1
 2 804 l 1,0,-1
804 804 m 1,41,-1
 1105 804 l 1,42,-1
 1105 704 l 1,43,-1
 1005 704 l 1,44,-1
 1005 503 l 1,45,-1
 904 503 l 1,46,-1
 904 704 l 1,47,-1
 804 704 l 1,48,-1
 804 804 l 1,41,-1
EndSplineSet
EndChar

StartChar: x
Encoding: 120 120 91
Width: 800
GlyphClass: 1
Flags: W
LayerCount: 2
Fore
SplineSet
0 800 m 1,0,-1
 400 800 l 1,1,-1
 400 700 l 1,2,-1
 300 700 l 1,3,-1
 300 600 l 1,4,5
 408 600 408 600 425 500 c 1,6,-1
 500 500 l 1,7,-1
 500 300 l 1,8,9
 600 300 600 300 600 250 c 0,10,11
 600 194 600 194 700 175 c 1,12,13
 700 100 700 100 775 100 c 2,14,-1
 800 100 l 1,15,-1
 800 0 l 1,16,-1
 400 0 l 1,17,-1
 400 100 l 1,18,-1
 500 100 l 1,19,-1
 500 200 l 1,20,21
 392 200 392 200 375 300 c 1,22,-1
 300 300 l 1,23,-1
 300 500 l 1,24,25
 200 500 200 500 200 550 c 0,26,27
 200 606 200 606 100 625 c 1,28,29
 100 700 100 700 25 700 c 2,30,-1
 0 700 l 1,31,-1
 0 800 l 1,0,-1
500 800 m 1,32,-1
 800 800 l 1,33,-1
 800 700 l 1,34,35
 700 700 700 700 700 650 c 2,36,-1
 700 600 l 1,37,-1
 600 600 l 1,38,39
 600 700 600 700 550 700 c 2,40,-1
 500 700 l 1,41,-1
 500 800 l 1,32,-1
500 600 m 1,42,-1
 600 600 l 1,43,-1
 600 500 l 1,44,-1
 500 500 l 1,45,-1
 500 600 l 1,42,-1
200 300 m 1,46,-1
 300 300 l 1,47,-1
 300 200 l 1,48,-1
 200 200 l 1,49,-1
 200 300 l 1,46,-1
100 200 m 1,50,-1
 200 200 l 1,51,52
 200 100 200 100 250 100 c 2,53,-1
 300 100 l 1,54,-1
 300 0 l 1,55,-1
 0 0 l 1,56,-1
 0 100 l 1,57,58
 100 100 100 100 100 150 c 2,59,-1
 100 200 l 1,50,-1
EndSplineSet
EndChar

StartChar: y
Encoding: 121 121 92
Width: 840
GlyphClass: 1
Flags: W
LayerCount: 2
Fore
SplineSet
0 760 m 1,0,-1
 364 760 l 1,1,-1
 364 669 l 1,2,-1
 273 669 l 1,3,-1
 273 487 l 1,4,-1
 364 487 l 1,5,-1
 364 305 l 1,6,-1
 545 305 l 1,7,-1
 545 124 l 1,8,-1
 454 124 l 1,9,-1
 454 -58 l 1,10,-1
 364 -58 l 1,11,-1
 364 124 l 1,12,-1
 273 124 l 1,13,-1
 273 305 l 1,14,-1
 182 305 l 1,15,-1
 182 487 l 1,16,-1
 91 487 l 1,17,-1
 91 669 l 1,18,-1
 0 669 l 1,19,-1
 0 760 l 1,0,-1
545 760 m 1,20,-1
 818 760 l 1,21,-1
 818 669 l 1,22,-1
 727 669 l 1,23,-1
 727 487 l 1,24,-1
 636 487 l 1,25,-1
 636 669 l 1,26,-1
 545 669 l 1,27,-1
 545 760 l 1,20,-1
545 487 m 1,28,-1
 636 487 l 1,29,-1
 636 305 l 1,30,-1
 545 305 l 1,31,-1
 545 487 l 1,28,-1
0 -58 m 1,32,-1
 182 -58 l 1,33,34
 182 -149 182 -149 227 -149 c 2,35,-1
 273 -149 l 1,36,-1
 273 -240 l 1,37,-1
 0 -240 l 1,38,-1
 0 -58 l 1,32,-1
273 -58 m 1,39,-1
 364 -58 l 1,40,-1
 364 -149 l 1,41,-1
 273 -149 l 1,42,-1
 273 -58 l 1,39,-1
EndSplineSet
EndChar

StartChar: z
Encoding: 122 122 93
Width: 604
GlyphClass: 1
Flags: W
LayerCount: 2
Fore
SplineSet
0 797 m 1,0,-1
 598 797 l 1,1,-1
 598 598 l 1,2,3
 490 598 490 598 473 498 c 1,4,-1
 398 498 l 1,5,-1
 398 299 l 1,6,7
 291 299 291 299 274 199 c 1,8,-1
 199 199 l 1,9,-1
 199 100 l 1,10,-1
 498 100 l 1,11,-1
 498 199 l 1,12,-1
 598 199 l 1,13,-1
 598 0 l 1,14,-1
 0 0 l 1,15,-1
 0 199 l 1,16,17
 107 199 107 199 125 299 c 1,18,-1
 199 299 l 1,19,-1
 199 498 l 1,20,21
 307 498 307 498 324 598 c 1,22,-1
 398 598 l 1,23,-1
 398 697 l 1,24,-1
 100 697 l 1,25,-1
 100 598 l 1,26,-1
 0 598 l 1,27,-1
 0 797 l 1,0,-1
EndSplineSet
EndChar

StartChar: braceleft
Encoding: 123 123 94
Width: 1014
GlyphClass: 1
Flags: W
LayerCount: 2
Fore
SplineSet
240 698 m 1,0,1
 412 703 412 703 463 769 c 128,-1,2
 514 835 514 835 514 902 c 2,3,-1
 514 1370 l 2,4,5
 514 1444 514 1444 591 1511.5 c 128,-1,6
 668 1579 668 1579 776 1579 c 2,7,-1
 884 1579 l 1,8,-1
 884 1529 l 1,9,-1
 794 1529 l 2,10,11
 733 1529 733 1529 687 1495.5 c 128,-1,12
 641 1462 641 1462 640 1404 c 2,13,-1
 640 904 l 2,14,15
 640 821 640 821 579.5 745.5 c 128,-1,16
 519 670 519 670 437 669 c 1,17,-1
 437 667 l 1,18,19
 519 666 519 666 580 591 c 128,-1,20
 641 516 641 516 641 433 c 2,21,-1
 640 -67 l 2,22,23
 641 -125 641 -125 687 -158.5 c 128,-1,24
 733 -192 733 -192 794 -192 c 2,25,-1
 884 -192 l 1,26,-1
 884 -242 l 1,27,-1
 776 -242 l 2,28,29
 668 -242 668 -242 591.5 -174.5 c 128,-1,30
 515 -107 515 -107 514 -33 c 2,31,-1
 514 435 l 2,32,33
 514 501 514 501 463 567 c 128,-1,34
 412 633 412 633 240 638 c 1,35,-1
 240 698 l 1,0,1
EndSplineSet
EndChar

StartChar: bar
Encoding: 124 124 95
Width: 1014
GlyphClass: 1
Flags: W
LayerCount: 2
Fore
SplineSet
427 1577 m 1,0,-1
 587 1577 l 1,1,-1
 587 -418 l 1,2,-1
 427 -418 l 1,3,-1
 427 1577 l 1,0,-1
EndSplineSet
EndChar

StartChar: braceright
Encoding: 125 125 96
Width: 1014
GlyphClass: 1
Flags: W
LayerCount: 2
Fore
SplineSet
774 638 m 1,0,1
 602 633 602 633 551 567 c 128,-1,2
 500 501 500 501 500 435 c 2,3,-1
 500 -33 l 2,4,5
 499 -107 499 -107 422.5 -174.5 c 128,-1,6
 346 -242 346 -242 238 -242 c 2,7,-1
 130 -242 l 1,8,-1
 130 -192 l 1,9,-1
 220 -192 l 2,10,11
 281 -192 281 -192 327 -158.5 c 128,-1,12
 373 -125 373 -125 374 -67 c 2,13,-1
 373 433 l 2,14,15
 373 516 373 516 434 591 c 128,-1,16
 495 666 495 666 578 667 c 1,17,-1
 578 669 l 1,18,19
 495 670 495 670 434.5 745.5 c 128,-1,20
 374 821 374 821 374 904 c 2,21,-1
 374 1404 l 2,22,23
 373 1462 373 1462 327 1495.5 c 128,-1,24
 281 1529 281 1529 220 1529 c 2,25,-1
 130 1529 l 1,26,-1
 130 1579 l 1,27,-1
 238 1579 l 2,28,29
 346 1579 346 1579 423 1511.5 c 128,-1,30
 500 1444 500 1444 500 1370 c 2,31,-1
 500 902 l 2,32,33
 500 835 500 835 551 769 c 128,-1,34
 602 703 602 703 774 698 c 1,35,-1
 774 638 l 1,0,1
EndSplineSet
EndChar

StartChar: asciitilde
Encoding: 126 126 97
Width: 1014
GlyphClass: 1
Flags: W
LayerCount: 2
Fore
SplineSet
923 878 m 1,0,-1
 923 722 l 1,1,2
 860 650 860 650 801 624.5 c 128,-1,3
 742 599 742 599 685 599 c 0,4,5
 625 599 625 599 507.5 647.5 c 128,-1,6
 390 696 390 696 331 696 c 0,7,8
 280 696 280 696 223.5 668 c 128,-1,9
 167 640 167 640 94 556 c 1,10,-1
 94 712 l 1,11,12
 158 785 158 785 217 811 c 128,-1,13
 276 837 276 837 331 837 c 0,14,15
 395 837 395 837 512.5 787.5 c 128,-1,16
 630 738 630 738 685 738 c 0,17,18
 737 738 737 738 793.5 766 c 128,-1,19
 850 794 850 794 923 878 c 1,0,-1
EndSplineSet
EndChar

StartChar: sterling
Encoding: 163 163 100
Width: 1014
GlyphClass: 1
Flags: W
LayerCount: 2
Fore
SplineSet
748 1347 m 1,0,1
 676 1378 676 1378 588 1378 c 2,2,-1
 586 1378 l 2,3,4
 486 1378 486 1378 396 1277 c 0,5,6
 312 1184 312 1184 312 1036 c 0,7,8
 312 1021 312 1021 313 1006 c 0,9,10
 313 871 313 871 366 733 c 1,11,-1
 726 733 l 1,12,-1
 726 673 l 1,13,-1
 392 673 l 1,14,15
 406 643 406 643 423 613 c 0,16,17
 458 550 458 550 458 475 c 0,18,19
 458 314 458 314 296 100 c 1,20,-1
 698 100 l 2,21,22
 828 100 828 100 887 232 c 1,23,-1
 936 231 l 1,24,-1
 833 0 l 1,25,-1
 114 0 l 1,26,-1
 115 50 l 1,27,28
 302 288 302 288 302 468 c 0,29,30
 302 545 302 545 268 611 c 0,31,32
 251 643 251 643 237 673 c 1,33,-1
 76 673 l 1,34,-1
 76 733 l 1,35,-1
 211 733 l 1,36,37
 153 876 153 876 153 986 c 0,38,39
 153 1212 153 1212 276.5 1333 c 128,-1,40
 400 1454 400 1454 583 1454 c 2,41,-1
 587 1454 l 2,42,43
 662 1454 662 1454 772.5 1440 c 128,-1,44
 883 1426 883 1426 883 1406 c 2,45,-1
 883 1245 l 1,46,-1
 825 1245 l 1,47,48
 820 1306 820 1306 748 1347 c 1,0,1
EndSplineSet
EndChar

StartChar: currency
Encoding: 164 164 101
Width: 1014
GlyphClass: 1
Flags: W
LayerCount: 2
Fore
SplineSet
350 560 m 0,0,1
 391 520 391 520 449 503 c 0,2,3
 478 495 478 495 507 495 c 256,4,5
 536 495 536 495 565 503 c 0,6,7
 623 520 623 520 664 560 c 0,8,9
 704 601 704 601 721 659 c 0,10,11
 730 688 730 688 730 717 c 256,12,13
 730 746 730 746 721 775 c 0,14,15
 704 833 704 833 664 874 c 0,16,17
 623 914 623 914 564 931 c 0,18,19
 535 939 535 939 506 939 c 256,20,21
 477 939 477 939 448 930 c 0,22,23
 390 913 390 913 350 874 c 0,24,25
 311 834 311 834 294 776 c 0,26,27
 284 746 284 746 284 716 c 0,28,29
 284 688 284 688 293 660 c 0,30,31
 309 601 309 601 350 560 c 0,0,1
240 903 m 1,32,-1
 122 1021 l 1,33,-1
 202 1102 l 1,34,-1
 320 984 l 1,35,36
 364 1014 364 1014 419 1030 c 0,37,38
 463 1044 463 1044 508 1044 c 0,39,40
 549 1044 549 1044 591 1032 c 0,41,42
 648 1015 648 1015 693 984 c 1,43,-1
 811 1102 l 1,44,-1
 891 1021 l 1,45,-1
 774 904 l 1,46,47
 805 858 805 858 822 802 c 0,48,49
 834 760 834 760 834 717 c 0,50,51
 834 675 834 675 822 632 c 0,52,53
 805 576 805 576 774 530 c 1,54,-1
 891 413 l 1,55,-1
 811 332 l 1,56,-1
 693 450 l 1,57,58
 648 418 648 418 592 402 c 0,59,60
 550 390 550 390 507 390 c 0,61,62
 465 390 465 390 422 402 c 0,63,64
 365 418 365 418 320 450 c 1,65,-1
 202 332 l 1,66,-1
 122 413 l 1,67,-1
 240 530 l 1,68,69
 208 576 208 576 192 633 c 0,70,71
 180 675 180 675 180 717 c 0,72,73
 180 761 180 761 193 804 c 0,74,75
 209 859 209 859 240 903 c 1,32,-1
EndSplineSet
EndChar

StartChar: yen
Encoding: 165 165 102
Width: 1262
GlyphClass: 1
Flags: W
LayerCount: 2
Fore
SplineSet
547 225 m 2,0,-1
 545 467 l 2,1,2
 545 486 545 486 543.5 502 c 128,-1,3
 542 518 542 518 539 534 c 1,4,-1
 55 535 l 2,5,6
 41 535 41 535 34 541.5 c 128,-1,7
 27 548 27 548 27 561 c 256,8,9
 27 574 27 574 33.5 580 c 128,-1,10
 40 586 40 586 55 586 c 2,11,-1
 522 586 l 1,12,-1
 401 758 l 1,13,-1
 57 758 l 2,14,15
 40 758 40 758 33.5 763.5 c 128,-1,16
 27 769 27 769 27 782 c 0,17,18
 27 796 27 796 33 801.5 c 128,-1,19
 39 807 39 807 55 807 c 2,20,-1
 362 807 l 1,21,22
 319 864 319 864 254 962 c 0,23,24
 123 1159 123 1159 27 1159 c 0,25,26
 20 1159 20 1159 14 1164.5 c 128,-1,27
 8 1170 8 1170 8 1176 c 0,28,29
 8 1195 8 1195 18.5 1203.5 c 128,-1,30
 29 1212 29 1212 51 1212 c 0,31,32
 78 1212 78 1212 174 1204 c 128,-1,33
 270 1196 270 1196 338 1196 c 2,34,-1
 426 1196 l 2,35,36
 459 1196 459 1196 467 1189.5 c 128,-1,37
 475 1183 475 1183 475 1163 c 0,38,39
 475 1155 475 1155 460 1149 c 128,-1,40
 445 1143 445 1143 422 1143 c 0,41,42
 416 1143 416 1143 403.5 1145 c 128,-1,43
 391 1147 391 1147 385 1147 c 0,44,45
 361 1147 361 1147 347.5 1137.5 c 128,-1,46
 334 1128 334 1128 334 1112 c 0,47,48
 334 1094 334 1094 350.5 1060 c 128,-1,49
 367 1026 367 1026 397 983 c 2,50,-1
 555 762 l 2,51,52
 568 743 568 743 588 709 c 0,53,54
 629 639 629 639 659 639 c 0,55,56
 668 639 668 639 675.5 644 c 128,-1,57
 683 649 683 649 690 659 c 2,58,-1
 967 1055 l 2,59,60
 975 1067 975 1067 980 1081.5 c 128,-1,61
 985 1096 985 1096 985 1106 c 0,62,63
 985 1124 985 1124 975 1133 c 128,-1,64
 965 1142 965 1142 938 1147 c 0,65,66
 923 1149 923 1149 897 1151 c 0,67,68
 850 1154 850 1154 850 1176 c 0,69,70
 850 1191 850 1191 858 1198.5 c 128,-1,71
 866 1206 866 1206 883 1206 c 0,72,73
 886 1206 886 1206 898 1205 c 0,74,75
 954 1198 954 1198 1006 1198 c 2,76,-1
 1145 1198 l 2,77,78
 1175 1198 1175 1198 1210 1199 c 128,-1,79
 1245 1200 1245 1200 1247 1200 c 0,80,81
 1258 1200 1258 1200 1265.5 1195.5 c 128,-1,82
 1273 1191 1273 1191 1274 1184 c 0,83,84
 1274 1156 1274 1156 1236 1150 c 0,85,86
 1218 1147 1218 1147 1209 1145 c 0,87,88
 1146 1130 1146 1130 1062 1028 c 0,89,90
 1055 1019 1055 1019 1050 1013 c 2,91,-1
 881 807 l 1,92,-1
 1204 807 l 2,93,94
 1219 807 1219 807 1228 801 c 128,-1,95
 1237 795 1237 795 1237 784 c 0,96,97
 1237 769 1237 769 1231 763.5 c 128,-1,98
 1225 758 1225 758 1208 758 c 2,99,-1
 842 758 l 1,100,101
 796 701 796 701 745.5 645.5 c 128,-1,102
 695 590 695 590 693 586 c 1,103,-1
 1204 586 l 2,104,105
 1222 586 1222 586 1229.5 580.5 c 128,-1,106
 1237 575 1237 575 1237 563 c 0,107,108
 1237 549 1237 549 1230 542 c 128,-1,109
 1223 535 1223 535 1208 535 c 2,110,-1
 678 535 l 1,111,112
 678 524 678 524 677 504.5 c 128,-1,113
 676 485 676 485 676 475 c 2,114,-1
 678 260 l 2,115,116
 678 146 678 146 683.5 110 c 128,-1,117
 689 74 689 74 704 66 c 0,118,119
 734 49 734 49 811.5 47 c 128,-1,120
 889 45 889 45 889 16 c 0,121,122
 889 4 889 4 879 -4 c 128,-1,123
 869 -12 869 -12 854 -12 c 0,124,125
 852 -12 852 -12 818.5 -8 c 128,-1,126
 785 -4 785 -4 754 -4 c 0,127,128
 663 -4 663 -4 545.5 -8 c 128,-1,129
 428 -12 428 -12 403 -12 c 0,130,131
 372 -12 372 -12 363 -8 c 128,-1,132
 354 -4 354 -4 354 8 c 256,133,134
 354 20 354 20 362 26.5 c 128,-1,135
 370 33 370 33 399 39 c 0,136,137
 408 41 408 41 424 44 c 0,138,139
 498 60 498 60 516 76 c 0,140,141
 533 89 533 89 540 123 c 128,-1,142
 547 157 547 157 547 225 c 2,0,-1
EndSplineSet
EndChar

StartChar: brokenbar
Encoding: 166 166 103
Width: 1014
GlyphClass: 1
Flags: W
LayerCount: 2
Fore
SplineSet
427 371 m 1,0,-1
 587 371 l 1,1,-1
 587 -418 l 1,2,-1
 427 -418 l 1,3,-1
 427 371 l 1,0,-1
427 1578 m 1,4,-1
 587 1578 l 1,5,-1
 587 789 l 1,6,-1
 427 789 l 1,7,-1
 427 1578 l 1,4,-1
EndSplineSet
EndChar

StartChar: section
Encoding: 167 167 104
Width: 1014
GlyphClass: 1
Flags: W
LayerCount: 2
Fore
SplineSet
545 321 m 1,0,1
 601 337 601 337 642 374 c 0,2,3
 715 439 715 439 715 540 c 0,4,5
 715 545 715 545 714 550 c 1,6,-1
 712 550 l 1,7,8
 711 564 711 564 708 577 c 0,9,10
 686 638 686 638 595 704 c 1,11,12
 536 733 536 733 469 733 c 0,13,14
 391 733 391 733 344 688.5 c 128,-1,15
 297 644 297 644 297 571 c 0,16,17
 297 448 297 448 545 321 c 1,0,1
466 -346 m 1,18,19
 579 -340 579 -340 651 -277 c 0,20,21
 723 -213 723 -213 723 -112 c 0,22,23
 723 13 723 13 407 164 c 1,24,25
 284 228 284 228 231.5 301 c 128,-1,26
 179 374 179 374 179 478 c 0,27,28
 179 626 179 626 268 715 c 0,29,30
 335 780 335 780 438 797 c 1,31,-1
 398 816 l 1,32,33
 275 880 275 880 222.5 953 c 128,-1,34
 170 1026 170 1026 170 1130 c 0,35,36
 170 1278 170 1278 259 1367 c 0,37,38
 341 1446 341 1446 475 1453 c 0,39,40
 483 1454 483 1454 492 1454 c 2,41,-1
 495 1454 l 2,42,43
 561 1454 561 1454 658 1437.5 c 128,-1,44
 755 1421 755 1421 755 1396 c 2,45,-1
 755 1202 l 1,46,-1
 704 1202 l 1,47,48
 699 1283 699 1283 624 1334 c 0,49,50
 554 1381 554 1381 475 1385 c 1,51,-1
 460 1385 l 2,52,53
 382 1385 382 1385 335 1340.5 c 128,-1,54
 288 1296 288 1296 288 1223 c 0,55,56
 288 1091 288 1091 575 954 c 0,57,58
 724 887 724 887 779.5 810.5 c 128,-1,59
 835 734 835 734 835 623 c 0,60,61
 835 452 835 452 734 341 c 1,62,63
 687 302 687 302 635 277 c 1,64,65
 743 221 743 221 789 159 c 0,66,67
 844 82 844 82 844 -28 c 0,68,69
 844 -199 844 -199 743 -311 c 1,70,71
 619 -413 619 -413 466 -416 c 1,72,-1
 466 -415 l 1,73,74
 460 -416 460 -416 453 -416 c 2,75,-1
 450 -416 l 2,76,77
 384 -416 384 -416 287 -399.5 c 128,-1,78
 190 -383 190 -383 190 -358 c 2,79,-1
 190 -164 l 1,80,-1
 241 -164 l 1,81,82
 246 -245 246 -245 321 -296 c 0,83,84
 389 -341 389 -341 466 -346 c 1,18,19
EndSplineSet
EndChar

StartChar: dieresis
Encoding: 168 168 105
Width: 1024
GlyphClass: 1
Flags: W
LayerCount: 2
Fore
SplineSet
223 1289 m 2,0,-1
 294 1361 l 2,1,2
 307 1373 307 1373 319 1373 c 0,3,4
 330 1373 330 1373 346 1359 c 2,5,-1
 415 1286 l 2,6,7
 425 1272 425 1272 425 1261 c 0,8,9
 425 1248 425 1248 413 1234 c 2,10,-1
 344 1159 l 2,11,12
 327 1142 327 1142 319 1142 c 0,13,14
 305 1142 305 1142 294 1154 c 2,15,-1
 218 1240 l 2,16,17
 209 1252 209 1252 209 1263 c 0,18,19
 209 1276 209 1276 223 1289 c 2,0,-1
588 1289 m 2,20,-1
 659 1361 l 2,21,22
 672 1373 672 1373 684 1373 c 0,23,24
 695 1373 695 1373 711 1360 c 2,25,-1
 780 1286 l 2,26,27
 790 1272 790 1272 790 1261 c 0,28,29
 790 1248 790 1248 778 1235 c 2,30,-1
 709 1159 l 2,31,32
 692 1142 692 1142 684 1142 c 0,33,34
 670 1142 670 1142 659 1154 c 2,35,-1
 583 1241 l 2,36,37
 574 1252 574 1252 574 1263 c 0,38,39
 574 1276 574 1276 588 1289 c 2,20,-1
EndSplineSet
EndChar

StartChar: copyright
Encoding: 169 169 106
Width: 1674
GlyphClass: 1
Flags: W
LayerCount: 2
Fore
SplineSet
840 1456 m 0,0,1
 985 1456 985 1456 1120 1399.5 c 128,-1,2
 1255 1343 1255 1343 1359 1239 c 0,3,4
 1461 1138 1461 1138 1517.5 1001 c 128,-1,5
 1574 864 1574 864 1574 718 c 0,6,7
 1574 571 1574 571 1517.5 436 c 128,-1,8
 1461 301 1461 301 1355 196 c 0,9,10
 1250 91 1250 91 1116 36.5 c 128,-1,11
 982 -18 982 -18 833 -18 c 0,12,13
 687 -18 687 -18 555 37.5 c 128,-1,14
 423 93 423 93 317 198 c 0,15,16
 211 302 211 302 155.5 435.5 c 128,-1,17
 100 569 100 569 100 718 c 0,18,19
 100 866 100 866 155.5 1001 c 128,-1,20
 211 1136 211 1136 315 1239 c 0,21,22
 417 1343 417 1343 553.5 1399.5 c 128,-1,23
 690 1456 690 1456 840 1456 c 0,0,1
357 1197 m 256,24,25
 262 1101 262 1101 211 977.5 c 128,-1,26
 160 854 160 854 160 718 c 0,27,28
 160 581 160 581 211 459 c 128,-1,29
 262 337 262 337 359 240 c 0,30,31
 457 144 457 144 578 93 c 128,-1,32
 699 42 699 42 834 42 c 0,33,34
 971 42 971 42 1093.5 92.5 c 128,-1,35
 1216 143 1216 143 1313 238 c 0,36,37
 1410 336 1410 336 1462 459.5 c 128,-1,38
 1514 583 1514 583 1514 718 c 0,39,40
 1514 852 1514 852 1462 977.5 c 128,-1,41
 1410 1103 1410 1103 1317 1197 c 0,42,43
 1221 1293 1221 1293 1097 1344.5 c 128,-1,44
 973 1396 973 1396 839 1396 c 0,45,46
 702 1396 702 1396 577 1344.5 c 128,-1,47
 452 1293 452 1293 357 1197 c 256,24,25
865 223 m 0,48,49
 723 223 723 223 601 291 c 128,-1,50
 479 359 479 359 415 476 c 128,-1,51
 351 593 351 593 351 719 c 256,52,53
 351 845 351 845 416.5 963 c 128,-1,54
 482 1081 482 1081 604 1147.5 c 128,-1,55
 726 1214 726 1214 858 1214 c 0,56,57
 896 1214 896 1214 933 1207.5 c 128,-1,58
 970 1201 970 1201 1009 1187 c 0,59,60
 1014 1186 1014 1186 1018 1186 c 0,61,62
 1037 1186 1037 1186 1044 1216 c 1,63,-1
 1086 1216 l 1,64,-1
 1158 1018 l 1,65,-1
 1114 1018 l 1,66,67
 1062 1112 1062 1112 983 1142 c 0,68,69
 911 1168 911 1168 836 1168 c 2,70,-1
 821 1168 l 1,71,72
 735 1160 735 1160 654.5 1097 c 128,-1,73
 574 1034 574 1034 533 920 c 0,74,75
 500 830 500 830 500 736 c 0,76,77
 500 711 500 711 502 686 c 0,78,79
 513 565 513 565 571.5 462 c 128,-1,80
 630 359 630 359 721 310 c 0,81,82
 793 270 793 270 887 268 c 0,83,84
 1011 268 1011 268 1081 324 c 128,-1,85
 1151 380 1151 380 1151 450 c 1,86,-1
 1204 450 l 1,87,-1
 1204 350 l 2,88,89
 1204 304 1204 304 1107.5 263.5 c 128,-1,90
 1011 223 1011 223 865 223 c 0,48,49
EndSplineSet
EndChar

StartChar: guillemotleft
Encoding: 171 171 108
Width: 944
GlyphClass: 1
Flags: W
LayerCount: 2
Fore
SplineSet
174 479 m 1,0,-1
 516 782 l 1,1,-1
 530 782 l 1,2,-1
 530 745 l 1,3,-1
 325 479 l 1,4,-1
 530 213 l 1,5,-1
 530 176 l 1,6,-1
 516 176 l 1,7,-1
 174 479 l 1,0,-1
487 479 m 1,8,-1
 829 782 l 1,9,-1
 843 782 l 1,10,-1
 843 745 l 1,11,-1
 638 479 l 1,12,-1
 843 213 l 1,13,-1
 843 176 l 1,14,-1
 829 176 l 1,15,-1
 487 479 l 1,8,-1
EndSplineSet
EndChar

StartChar: logicalnot
Encoding: 172 172 109
Width: 1014
GlyphClass: 1
Flags: W
LayerCount: 2
Fore
SplineSet
87 767 m 1,0,-1
 927 767 l 1,1,-1
 927 276 l 1,2,-1
 926 275 l 1,3,-1
 828 275 l 1,4,-1
 828 667 l 1,5,-1
 87 667 l 1,6,-1
 87 767 l 1,0,-1
EndSplineSet
EndChar

StartChar: registered
Encoding: 174 174 110
Width: 1674
GlyphClass: 1
Flags: W
LayerCount: 2
Fore
SplineSet
751 1099 m 1,0,-1
 751 725 l 1,1,-1
 754 717 l 2,2,3
 777 661 777 661 810 636 c 0,4,5
 839 614 839 614 866 614 c 2,6,-1
 872 614 l 1,7,8
 903 618 903 618 933.5 652.5 c 128,-1,9
 964 687 964 687 980 750 c 0,10,11
 993 800 993 800 993 853 c 0,12,13
 993 866 993 866 992 880 c 0,14,15
 988 947 988 947 964 1004.5 c 128,-1,16
 940 1062 940 1062 907.5 1080.5 c 128,-1,17
 875 1099 875 1099 844 1099 c 2,18,-1
 751 1099 l 1,0,-1
984 576 m 1,19,-1
 1066 460 l 2,20,21
 1166 319 1166 319 1216 319 c 2,22,-1
 1250 319 l 1,23,-1
 1250 269 l 1,24,-1
 904 269 l 1,25,-1
 904 319 l 1,26,-1
 949 319 l 2,27,28
 979 319 979 319 979 341 c 0,29,30
 979 370 979 370 910 455 c 1,31,-1
 835 557 l 1,32,33
 793 557 793 557 751 599 c 1,34,-1
 751 440 l 2,35,36
 751 319 751 319 787 319 c 2,37,-1
 840 319 l 1,38,-1
 840 269 l 1,39,-1
 524 269 l 1,40,-1
 524 319 l 1,41,-1
 567 319 l 2,42,43
 604 319 604 319 604 440 c 2,44,-1
 604 978 l 2,45,46
 604 1099 604 1099 567 1099 c 2,47,-1
 524 1099 l 1,48,-1
 524 1169 l 1,49,-1
 880 1169 l 2,50,51
 944 1168 944 1168 1005 1127 c 0,52,53
 1065 1086 1065 1086 1097.5 1013 c 128,-1,54
 1130 940 1130 940 1130 861 c 0,55,56
 1130 783 1130 783 1098 710.5 c 128,-1,57
 1066 638 1066 638 984 576 c 1,19,-1
840 1456 m 0,58,59
 985 1456 985 1456 1120 1399.5 c 128,-1,60
 1255 1343 1255 1343 1359 1239 c 0,61,62
 1461 1138 1461 1138 1517.5 1001 c 128,-1,63
 1574 864 1574 864 1574 718 c 0,64,65
 1574 571 1574 571 1517.5 436 c 128,-1,66
 1461 301 1461 301 1355 196 c 0,67,68
 1250 91 1250 91 1116 36.5 c 128,-1,69
 982 -18 982 -18 833 -18 c 0,70,71
 687 -18 687 -18 555 37.5 c 128,-1,72
 423 93 423 93 317 198 c 0,73,74
 211 302 211 302 155.5 435.5 c 128,-1,75
 100 569 100 569 100 718 c 0,76,77
 100 866 100 866 155.5 1001 c 128,-1,78
 211 1136 211 1136 315 1239 c 0,79,80
 417 1343 417 1343 553.5 1399.5 c 128,-1,81
 690 1456 690 1456 840 1456 c 0,58,59
357 1197 m 256,82,83
 262 1101 262 1101 211 977.5 c 128,-1,84
 160 854 160 854 160 718 c 0,85,86
 160 581 160 581 211 459 c 128,-1,87
 262 337 262 337 359 240 c 0,88,89
 457 144 457 144 578 93 c 128,-1,90
 699 42 699 42 834 42 c 0,91,92
 971 42 971 42 1093.5 92.5 c 128,-1,93
 1216 143 1216 143 1313 238 c 0,94,95
 1410 336 1410 336 1462 459.5 c 128,-1,96
 1514 583 1514 583 1514 718 c 0,97,98
 1514 852 1514 852 1462 977.5 c 128,-1,99
 1410 1103 1410 1103 1317 1197 c 0,100,101
 1221 1293 1221 1293 1097 1344.5 c 128,-1,102
 973 1396 973 1396 839 1396 c 0,103,104
 702 1396 702 1396 577 1344.5 c 128,-1,105
 452 1293 452 1293 357 1197 c 256,82,83
EndSplineSet
EndChar

StartChar: degree
Encoding: 176 176 112
Width: 674
GlyphClass: 1
Flags: W
LayerCount: 2
Fore
SplineSet
339 1372 m 256,0,1
 253 1372 253 1372 191.5 1311 c 128,-1,2
 130 1250 130 1250 130 1163 c 256,3,4
 130 1076 130 1076 191 1016 c 128,-1,5
 252 956 252 956 339 956 c 256,6,7
 426 956 426 956 486 1016 c 128,-1,8
 546 1076 546 1076 546 1163 c 256,9,10
 546 1250 546 1250 485.5 1311 c 128,-1,11
 425 1372 425 1372 339 1372 c 256,0,1
339 1442 m 0,12,13
 454 1442 454 1442 535 1360.5 c 128,-1,14
 616 1279 616 1279 616 1164 c 0,15,16
 616 1050 616 1050 534 968 c 128,-1,17
 452 886 452 886 337 886 c 0,18,19
 220 886 220 886 140 967 c 128,-1,20
 60 1048 60 1048 60 1164 c 256,21,22
 60 1280 60 1280 141.5 1361 c 128,-1,23
 223 1442 223 1442 339 1442 c 0,12,13
EndSplineSet
EndChar

StartChar: acute
Encoding: 180 180 116
Width: 1024
GlyphClass: 1
Flags: W
LayerCount: 2
Fore
SplineSet
607 1375 m 2,0,1
 642 1410 642 1410 662.5 1422 c 128,-1,2
 683 1434 683 1434 703 1434 c 0,3,4
 736 1434 736 1434 756.5 1414 c 128,-1,5
 777 1394 777 1394 777 1363 c 0,6,7
 777 1341 777 1341 761.5 1321 c 128,-1,8
 746 1301 746 1301 715 1281 c 2,9,-1
 385 1078 l 1,10,-1
 316 1078 l 1,11,-1
 607 1375 l 2,0,1
EndSplineSet
EndChar

StartChar: paragraph
Encoding: 182 182 118
Width: 1024
GlyphClass: 1
Flags: W
LayerCount: 2
Fore
SplineSet
929 1435 m 1,0,-1
 929 1365 l 1,1,-1
 802 1365 l 1,2,-1
 802 0 l 1,3,-1
 720 0 l 1,4,-1
 720 1365 l 1,5,-1
 554 1365 l 1,6,-1
 554 0 l 1,7,-1
 470 0 l 1,8,-1
 470 738 l 1,9,10
 296 746 296 746 194.5 840.5 c 128,-1,11
 93 935 93 935 93 1086 c 0,12,13
 93 1243 93 1243 200.5 1339 c 128,-1,14
 308 1435 308 1435 486 1435 c 2,15,-1
 929 1435 l 1,0,-1
EndSplineSet
EndChar

StartChar: periodcentered
Encoding: 183 183 119
AltUni2: 002219.ffffffff.0 002219.ffffffff.0
Width: 508
GlyphClass: 1
Flags: W
LayerCount: 2
Fore
SplineSet
145 740 m 2,0,-1
 227 824 l 2,1,2
 242 838 242 838 256 838 c 0,3,4
 269 838 269 838 287 822 c 2,5,-1
 367 736 l 2,6,7
 379 720 379 720 379 707 c 0,8,9
 379 692 379 692 365 676 c 2,10,-1
 285 588 l 2,11,12
 265 568 265 568 256 568 c 0,13,14
 240 568 240 568 227 582 c 2,15,-1
 139 683 l 2,16,17
 129 696 129 696 129 709 c 0,18,19
 129 724 129 724 145 740 c 2,0,-1
EndSplineSet
EndChar

StartChar: cedilla
Encoding: 184 184 120
Width: 1024
GlyphClass: 1
Flags: W
LayerCount: 2
Fore
SplineSet
360 -290 m 1,0,1
 445 -342 445 -342 512 -342 c 0,2,3
 578 -342 578 -342 606.5 -320.5 c 128,-1,4
 635 -299 635 -299 635 -254 c 256,5,6
 635 -209 635 -209 586 -190 c 0,7,8
 546 -174 546 -174 484 -174 c 0,9,10
 468 -174 468 -174 450 -176 c 1,11,-1
 498 0 l 1,12,-1
 561 0 l 1,13,-1
 524 -104 l 1,14,15
 556 -100 556 -100 586 -99 c 0,16,17
 672 -99 672 -99 720 -139.5 c 128,-1,18
 768 -180 768 -180 768 -253 c 0,19,20
 768 -329 768 -329 709.5 -373.5 c 128,-1,21
 651 -418 651 -418 549 -418 c 0,22,23
 440 -418 440 -418 360 -386 c 1,24,-1
 360 -290 l 1,0,1
EndSplineSet
EndChar

StartChar: guillemotright
Encoding: 187 187 123
Width: 944
GlyphClass: 1
Flags: W
LayerCount: 2
Fore
SplineSet
115 176 m 1,0,-1
 101 176 l 1,1,-1
 101 213 l 1,2,-1
 306 479 l 1,3,-1
 101 745 l 1,4,-1
 101 782 l 1,5,-1
 115 782 l 1,6,-1
 457 479 l 1,7,-1
 115 176 l 1,0,-1
428 176 m 1,8,-1
 414 176 l 1,9,-1
 414 213 l 1,10,-1
 619 479 l 1,11,-1
 414 745 l 1,12,-1
 414 782 l 1,13,-1
 428 782 l 1,14,-1
 770 479 l 1,15,-1
 428 176 l 1,8,-1
EndSplineSet
EndChar

StartChar: multiply
Encoding: 215 215 151
Width: 1014
GlyphClass: 1
Flags: W
LayerCount: 2
Fore
SplineSet
507 618 m 1,0,-1
 260 371 l 1,1,-1
 161 470 l 1,2,-1
 408 717 l 1,3,-1
 161 965 l 1,4,-1
 260 1063 l 1,5,-1
 507 816 l 1,6,-1
 755 1063 l 1,7,-1
 853 964 l 1,8,-1
 606 717 l 1,9,-1
 853 470 l 1,10,-1
 754 371 l 1,11,-1
 507 618 l 1,0,-1
EndSplineSet
EndChar

StartChar: divide
Encoding: 247 247 183
Width: 1014
GlyphClass: 1
Flags: W
LayerCount: 2
Fore
SplineSet
87 647 m 1,0,-1
 87 787 l 1,1,-1
 926 787 l 1,2,-1
 927 786 l 1,3,-1
 927 647 l 1,4,-1
 87 647 l 1,0,-1
398 408 m 2,5,-1
 480 492 l 2,6,7
 495 506 495 506 509 506 c 0,8,9
 522 506 522 506 540 490 c 2,10,-1
 620 404 l 2,11,12
 632 388 632 388 632 375 c 0,13,14
 632 360 632 360 618 344 c 2,15,-1
 538 256 l 2,16,17
 518 236 518 236 509 236 c 0,18,19
 493 236 493 236 480 250 c 2,20,-1
 392 351 l 2,21,22
 382 364 382 364 382 377 c 0,23,24
 382 392 382 392 398 408 c 2,5,-1
398 1101 m 2,25,-1
 480 1185 l 2,26,27
 495 1199 495 1199 509 1199 c 0,28,29
 522 1199 522 1199 540 1183 c 2,30,-1
 620 1097 l 2,31,32
 632 1081 632 1081 632 1068 c 0,33,34
 632 1053 632 1053 618 1037 c 2,35,-1
 538 949 l 2,36,37
 518 929 518 929 509 929 c 0,38,39
 493 929 493 929 480 943 c 2,40,-1
 392 1044 l 2,41,42
 382 1057 382 1057 382 1070 c 0,43,44
 382 1085 382 1085 398 1101 c 2,25,-1
EndSplineSet
EndChar

StartChar: dotlessi
Encoding: 305 305 192
Width: 514
GlyphClass: 1
Flags: W
LayerCount: 2
Fore
SplineSet
328 223 m 2,0,1
 328 50 328 50 428 50 c 2,2,-1
 474 50 l 1,3,-1
 474 0 l 1,4,-1
 32 0 l 1,5,-1
 32 50 l 1,6,-1
 78 50 l 2,7,8
 178 50 178 50 178 223 c 2,9,-1
 178 655 l 2,10,11
 178 732 178 732 67 732 c 2,12,-1
 19 732 l 1,13,-1
 19 776 l 1,14,15
 241 845 241 845 280 958 c 1,16,-1
 328 958 l 1,17,-1
 328 223 l 2,0,1
EndSplineSet
EndChar

StartChar: circumflex
Encoding: 710 710 193
Width: 1024
GlyphClass: 1
Flags: W
LayerCount: 2
Fore
SplineSet
221 1079 m 1,0,-1
 453 1434 l 1,1,-1
 571 1434 l 1,2,-1
 803 1079 l 1,3,-1
 745 1079 l 1,4,-1
 512 1295 l 1,5,-1
 279 1079 l 1,6,-1
 221 1079 l 1,0,-1
EndSplineSet
EndChar

StartChar: caron
Encoding: 711 711 194
Width: 1024
GlyphClass: 1
Flags: W
LayerCount: 2
Fore
SplineSet
221 1434 m 1,0,-1
 279 1434 l 1,1,-1
 512 1220 l 1,2,-1
 745 1434 l 1,3,-1
 803 1434 l 1,4,-1
 571 1078 l 1,5,-1
 453 1078 l 1,6,-1
 221 1434 l 1,0,-1
EndSplineSet
EndChar

StartChar: uni02C9
Encoding: 713 713 195
Width: 1024
GlyphClass: 1
Flags: W
LayerCount: 2
Fore
SplineSet
254 1195 m 1,0,-1
 254 1320 l 1,1,-1
 770 1320 l 1,2,-1
 770 1195 l 1,3,-1
 254 1195 l 1,0,-1
EndSplineSet
EndChar

StartChar: breve
Encoding: 728 728 196
Width: 1024
GlyphClass: 1
Flags: W
LayerCount: 2
Fore
SplineSet
219 1349 m 1,0,-1
 270 1349 l 1,1,2
 287 1276 287 1276 345 1242 c 128,-1,3
 403 1208 403 1208 512 1208 c 256,4,5
 621 1208 621 1208 678 1241.5 c 128,-1,6
 735 1275 735 1275 752 1349 c 1,7,-1
 803 1349 l 1,8,9
 783 1216 783 1216 709 1147.5 c 128,-1,10
 635 1079 635 1079 512 1079 c 0,11,12
 390 1079 390 1079 315 1148 c 128,-1,13
 240 1217 240 1217 219 1349 c 1,0,-1
EndSplineSet
EndChar

StartChar: dotaccent
Encoding: 729 729 197
Width: 1024
GlyphClass: 1
Flags: W
LayerCount: 2
Fore
SplineSet
422 1289 m 2,0,-1
 491 1361 l 2,1,2
 497 1367 497 1367 504 1370 c 128,-1,3
 511 1373 511 1373 518 1373 c 0,4,5
 524 1373 524 1373 530.5 1370 c 128,-1,6
 537 1367 537 1367 543 1361 c 2,7,-1
 614 1285 l 2,8,9
 619 1281 619 1281 621 1275 c 128,-1,10
 623 1269 623 1269 623 1261 c 0,11,12
 622 1252 622 1252 620 1246 c 128,-1,13
 618 1240 618 1240 612 1234 c 2,14,-1
 541 1158 l 2,15,16
 529 1147 529 1147 525 1144.5 c 128,-1,17
 521 1142 521 1142 518 1142 c 0,18,19
 508 1142 508 1142 501.5 1144.5 c 128,-1,20
 495 1147 495 1147 491 1153 c 2,21,-1
 416 1240 l 2,22,23
 412 1244 412 1244 410 1249.5 c 128,-1,24
 408 1255 408 1255 408 1263 c 0,25,26
 408 1269 408 1269 411 1275.5 c 128,-1,27
 414 1282 414 1282 422 1289 c 2,0,-1
EndSplineSet
EndChar

StartChar: ring
Encoding: 730 730 198
Width: 1024
GlyphClass: 1
Flags: W
LayerCount: 2
Fore
SplineSet
411 1257 m 0,0,1
 411 1215 411 1215 440 1186 c 128,-1,2
 469 1157 469 1157 511 1157 c 256,3,4
 553 1157 553 1157 582 1186 c 128,-1,5
 611 1215 611 1215 611 1257 c 0,6,7
 611 1297 611 1297 581.5 1326.5 c 128,-1,8
 552 1356 552 1356 511 1356 c 256,9,10
 470 1356 470 1356 440.5 1326.5 c 128,-1,11
 411 1297 411 1297 411 1257 c 0,0,1
335 1257 m 256,12,13
 335 1332 335 1332 386 1383 c 128,-1,14
 437 1434 437 1434 511 1434 c 0,15,16
 587 1434 587 1434 638.5 1382.5 c 128,-1,17
 690 1331 690 1331 690 1257 c 0,18,19
 690 1182 690 1182 638.5 1130.5 c 128,-1,20
 587 1079 587 1079 511 1079 c 0,21,22
 437 1079 437 1079 386 1130.5 c 128,-1,23
 335 1182 335 1182 335 1257 c 256,12,13
EndSplineSet
EndChar

StartChar: ogonek
Encoding: 731 731 199
Width: 1024
GlyphClass: 1
Flags: W
LayerCount: 2
Fore
SplineSet
640 0 m 1,0,1
 569 -62 569 -62 529.5 -119.5 c 128,-1,2
 490 -177 490 -177 490 -232 c 0,3,4
 490 -279 490 -279 517 -307 c 128,-1,5
 544 -335 544 -335 590 -335 c 0,6,7
 630 -335 630 -335 659.5 -319.5 c 128,-1,8
 689 -304 689 -304 709 -271 c 1,9,-1
 737 -287 l 1,10,11
 701 -350 701 -350 646.5 -384 c 128,-1,12
 592 -418 592 -418 527 -418 c 0,13,14
 457 -418 457 -418 413 -382.5 c 128,-1,15
 369 -347 369 -347 369 -292 c 0,16,17
 369 -216 369 -216 429.5 -135.5 c 128,-1,18
 490 -55 490 -55 591 0 c 1,19,-1
 640 0 l 1,0,1
EndSplineSet
EndChar

StartChar: tilde
Encoding: 732 732 200
Width: 1024
GlyphClass: 1
Flags: W
LayerCount: 2
Fore
SplineSet
808 1382 m 1,0,1
 788 1279 788 1279 739.5 1228 c 128,-1,2
 691 1177 691 1177 613 1177 c 2,3,-1
 609 1177 l 2,4,5
 559 1177 559 1177 496 1200 c 0,6,7
 430 1224 430 1224 382 1224 c 0,8,9
 343 1224 343 1224 321.5 1203.5 c 128,-1,10
 300 1183 300 1183 288 1132 c 1,11,-1
 234 1132 l 1,12,13
 253 1238 253 1238 302 1290.5 c 128,-1,14
 351 1343 351 1343 431 1343 c 0,15,16
 477 1342 477 1342 544 1319 c 0,17,18
 608 1296 608 1296 656 1296 c 2,19,-1
 660 1296 l 2,20,21
 696 1296 696 1296 718 1316 c 128,-1,22
 740 1336 740 1336 754 1382 c 1,23,-1
 808 1382 l 1,0,1
EndSplineSet
EndChar

StartChar: hungarumlaut
Encoding: 733 733 201
Width: 1024
GlyphClass: 1
Flags: W
LayerCount: 2
Fore
SplineSet
217 1079 m 1,0,-1
 361 1352 l 2,1,2
 385 1396 385 1396 406.5 1415 c 128,-1,3
 428 1434 428 1434 453 1434 c 0,4,5
 481 1434 481 1434 501 1414 c 128,-1,6
 521 1394 521 1394 521 1367 c 0,7,8
 521 1351 521 1351 510.5 1332 c 128,-1,9
 500 1313 500 1313 480 1291 c 2,10,-1
 275 1079 l 1,11,-1
 217 1079 l 1,0,-1
502 1079 m 1,12,-1
 646 1352 l 2,13,14
 670 1396 670 1396 691.5 1415 c 128,-1,15
 713 1434 713 1434 738 1434 c 0,16,17
 766 1434 766 1434 786 1414 c 128,-1,18
 806 1394 806 1394 806 1367 c 0,19,20
 806 1351 806 1351 795.5 1332 c 128,-1,21
 785 1313 785 1313 765 1291 c 2,22,-1
 560 1079 l 1,23,-1
 502 1079 l 1,12,-1
EndSplineSet
EndChar

StartChar: endash
Encoding: 8211 8211 202
Width: 1108
GlyphClass: 1
Flags: W
LayerCount: 2
Fore
SplineSet
36 504 m 1,0,-1
 1094 504 l 1,1,-1
 1094 432 l 1,2,-1
 204 432 l 1,3,-1
 36 408 l 1,4,-1
 36 504 l 1,0,-1
EndSplineSet
EndChar

StartChar: emdash
Encoding: 8212 8212 203
Width: 2048
GlyphClass: 1
Flags: W
LayerCount: 2
Fore
SplineSet
-6 545 m 1,0,-1
 2054 545 l 1,1,-1
 2054 405 l 1,2,-1
 322 405 l 1,3,-1
 -6 358 l 1,4,-1
 -6 545 l 1,0,-1
EndSplineSet
EndChar

StartChar: quoteleft
Encoding: 8216 8216 204
Width: 557
GlyphClass: 1
Flags: W
LayerCount: 2
Fore
SplineSet
319 1016 m 1,0,1
 275 1016 275 1016 230.5 1081.5 c 128,-1,2
 186 1147 186 1147 186 1233 c 0,3,4
 186 1342 186 1342 257 1459.5 c 128,-1,5
 328 1577 328 1577 396 1577 c 1,6,-1
 396 1534 l 1,7,8
 323 1491 323 1491 309 1344 c 1,9,10
 309 1225 309 1225 438 1183 c 1,11,-1
 438 1141 l 1,12,-1
 319 1016 l 1,0,1
EndSplineSet
EndChar

StartChar: quoteright
Encoding: 8217 8217 205
Width: 557
GlyphClass: 1
Flags: W
LayerCount: 2
Fore
SplineSet
238 1577 m 1,0,1
 282 1577 282 1577 326.5 1511.5 c 128,-1,2
 371 1446 371 1446 371 1360 c 0,3,4
 371 1251 371 1251 300 1133.5 c 128,-1,5
 229 1016 229 1016 161 1016 c 1,6,-1
 161 1059 l 1,7,8
 234 1102 234 1102 248 1249 c 1,9,10
 248 1368 248 1368 119 1410 c 1,11,-1
 119 1452 l 1,12,-1
 238 1577 l 1,0,1
EndSplineSet
EndChar

StartChar: quotesinglbase
Encoding: 8218 8218 206
Width: 557
GlyphClass: 1
Flags: W
LayerCount: 2
Fore
SplineSet
238 281 m 1,0,1
 282 281 282 281 326.5 215.5 c 128,-1,2
 371 150 371 150 371 64 c 0,3,4
 371 -45 371 -45 300 -162.5 c 128,-1,5
 229 -280 229 -280 161 -280 c 1,6,-1
 161 -237 l 1,7,8
 234 -194 234 -194 248 -47 c 1,9,10
 248 72 248 72 119 114 c 1,11,-1
 119 156 l 1,12,-1
 238 281 l 1,0,1
EndSplineSet
EndChar

StartChar: quotedblleft
Encoding: 8220 8220 207
Width: 910
GlyphClass: 1
Flags: W
LayerCount: 2
Fore
SplineSet
359 1372 m 1,0,-1
 449 1372 l 1,1,-1
 449 1304 l 1,2,-1
 359 1304 l 1,3,-1
 359 1372 l 1,0,-1
630 1372 m 1,4,-1
 721 1372 l 1,5,-1
 721 1304 l 1,6,-1
 630 1304 l 1,7,-1
 630 1372 l 1,4,-1
268 1282 m 1,8,-1
 336 1282 l 1,9,10
 336 1168 336 1168 381 1168 c 2,11,-1
 426 1168 l 1,12,-1
 426 1033 l 1,13,-1
 268 1010 l 1,14,-1
 268 1282 l 1,8,-1
562 1282 m 1,15,-1
 607 1282 l 1,16,17
 607 1168 607 1168 653 1168 c 2,18,-1
 698 1168 l 1,19,-1
 698 1033 l 1,20,-1
 562 1010 l 1,21,-1
 562 1282 l 1,15,-1
EndSplineSet
EndChar

StartChar: quotedblright
Encoding: 8221 8221 208
Width: 910
GlyphClass: 1
Flags: W
LayerCount: 2
Fore
SplineSet
238 1336 m 1,0,-1
 418 1336 l 1,1,-1
 396 1179 l 1,2,-1
 396 1089 l 1,3,-1
 328 1089 l 1,4,5
 328 1156 328 1156 261 1156 c 2,6,-1
 238 1156 l 1,7,-1
 238 1336 l 1,0,-1
508 1336 m 1,8,-1
 688 1336 l 1,9,-1
 666 1179 l 1,10,-1
 666 1089 l 1,11,-1
 621 1089 l 1,12,13
 621 1179 621 1179 576 1179 c 0,14,15
 508 1179 508 1179 508 1336 c 1,8,-1
238 1066 m 1,16,-1
 306 1066 l 1,17,-1
 306 976 l 1,18,-1
 238 976 l 1,19,-1
 238 1066 l 1,16,-1
531 1044 m 1,20,-1
 576 1044 l 1,21,-1
 576 976 l 1,22,-1
 531 976 l 1,23,-1
 531 1044 l 1,20,-1
EndSplineSet
EndChar

StartChar: quotedblbase
Encoding: 8222 8222 209
Width: 910
GlyphClass: 1
Flags: W
LayerCount: 2
Fore
SplineSet
238 281 m 1,0,1
 282 281 282 281 326.5 215.5 c 128,-1,2
 371 150 371 150 371 64 c 0,3,4
 371 -45 371 -45 300 -162.5 c 128,-1,5
 229 -280 229 -280 161 -280 c 1,6,-1
 161 -237 l 1,7,8
 234 -194 234 -194 248 -47 c 1,9,10
 248 72 248 72 119 114 c 1,11,-1
 119 156 l 1,12,-1
 238 281 l 1,0,1
591 281 m 1,13,14
 635 281 635 281 679.5 215.5 c 128,-1,15
 724 150 724 150 724 64 c 0,16,17
 724 -45 724 -45 653 -162.5 c 128,-1,18
 582 -280 582 -280 514 -280 c 1,19,-1
 514 -237 l 1,20,21
 587 -194 587 -194 601 -47 c 1,22,23
 601 72 601 72 472 114 c 1,24,-1
 472 156 l 1,25,-1
 591 281 l 1,13,14
EndSplineSet
EndChar

StartChar: dagger
Encoding: 8224 8224 210
Width: 1014
GlyphClass: 1
Flags: W
LayerCount: 2
Fore
SplineSet
486 1022 m 1,0,1
 478 1119 478 1119 432 1200 c 0,2,3
 375 1301 375 1301 375 1329 c 0,4,5
 375 1378 375 1378 411 1407.5 c 128,-1,6
 447 1437 447 1437 507 1437 c 0,7,8
 564 1437 564 1437 601.5 1409.5 c 128,-1,9
 639 1382 639 1382 639 1338 c 0,10,11
 639 1306 639 1306 584 1201 c 0,12,13
 538 1116 538 1116 529 1022 c 1,14,15
 625 1030 625 1030 706 1076 c 0,16,17
 807 1133 807 1133 835 1133 c 0,18,19
 884 1133 884 1133 914 1097 c 128,-1,20
 944 1061 944 1061 944 1001 c 0,21,22
 944 944 944 944 916.5 906.5 c 128,-1,23
 889 869 889 869 844 869 c 0,24,25
 812 869 812 869 708 924 c 0,26,27
 623 970 623 970 529 981 c 1,28,29
 537 805 537 805 639 704 c 1,30,31
 533 244 533 244 527 -270 c 1,32,-1
 489 -270 l 1,33,34
 483 244 483 244 375 704 c 1,35,36
 477 805 477 805 486 981 c 1,37,38
 390 971 390 971 308 926 c 0,39,40
 207 869 207 869 179 869 c 0,41,42
 130 869 130 869 100.5 905 c 128,-1,43
 71 941 71 941 71 1001 c 0,44,45
 71 1058 71 1058 98.5 1095.5 c 128,-1,46
 126 1133 126 1133 170 1133 c 0,47,48
 202 1133 202 1133 307 1077 c 0,49,50
 392 1031 392 1031 486 1022 c 1,0,1
EndSplineSet
EndChar

StartChar: daggerdbl
Encoding: 8225 8225 211
Width: 1014
GlyphClass: 1
Flags: W
LayerCount: 2
Fore
SplineSet
528 186 m 1,0,1
 622 197 622 197 707 243 c 0,2,3
 811 298 811 298 843 298 c 0,4,5
 888 298 888 298 915.5 260.5 c 128,-1,6
 943 223 943 223 943 166 c 0,7,8
 943 106 943 106 913 70 c 128,-1,9
 883 34 883 34 834 34 c 0,10,11
 806 34 806 34 705 91 c 0,12,13
 624 137 624 137 528 145 c 1,14,15
 537 51 537 51 583 -34 c 0,16,17
 638 -139 638 -139 638 -171 c 0,18,19
 638 -215 638 -215 600.5 -242.5 c 128,-1,20
 563 -270 563 -270 506 -270 c 0,21,22
 446 -270 446 -270 410 -240.5 c 128,-1,23
 374 -211 374 -211 374 -162 c 0,24,25
 374 -134 374 -134 431 -33 c 0,26,27
 477 48 477 48 485 145 c 1,28,29
 391 136 391 136 306 90 c 0,30,31
 201 34 201 34 169 34 c 0,32,33
 125 34 125 34 97.5 71.5 c 128,-1,34
 70 109 70 109 70 166 c 0,35,36
 70 226 70 226 99.5 262 c 128,-1,37
 129 298 129 298 178 298 c 0,38,39
 206 298 206 298 307 241 c 0,40,41
 389 196 389 196 485 186 c 1,42,43
 476 412 476 412 374 584 c 1,44,45
 476 755 476 755 485 981 c 1,46,47
 389 971 389 971 307 926 c 0,48,49
 206 869 206 869 178 869 c 0,50,51
 129 869 129 869 99.5 905 c 128,-1,52
 70 941 70 941 70 1001 c 0,53,54
 70 1058 70 1058 97.5 1095.5 c 128,-1,55
 125 1133 125 1133 169 1133 c 0,56,57
 201 1133 201 1133 306 1077 c 0,58,59
 391 1031 391 1031 485 1022 c 1,60,61
 477 1119 477 1119 431 1200 c 0,62,63
 374 1301 374 1301 374 1329 c 0,64,65
 374 1378 374 1378 410 1407.5 c 128,-1,66
 446 1437 446 1437 506 1437 c 0,67,68
 563 1437 563 1437 600.5 1409.5 c 128,-1,69
 638 1382 638 1382 638 1338 c 0,70,71
 638 1306 638 1306 583 1201 c 0,72,73
 537 1116 537 1116 528 1022 c 1,74,75
 624 1030 624 1030 705 1076 c 0,76,77
 806 1133 806 1133 834 1133 c 0,78,79
 883 1133 883 1133 913 1097 c 128,-1,80
 943 1061 943 1061 943 1001 c 0,81,82
 943 944 943 944 915.5 906.5 c 128,-1,83
 888 869 888 869 843 869 c 0,84,85
 811 869 811 869 707 924 c 0,86,87
 622 970 622 970 528 981 c 1,88,89
 536 755 536 755 638 584 c 1,90,91
 536 412 536 412 528 186 c 1,0,1
EndSplineSet
EndChar

StartChar: bullet
Encoding: 8226 8226 212
Width: 1024
GlyphClass: 1
Flags: W
LayerCount: 2
Fore
SplineSet
216 718 m 256,0,1
 216 841 216 841 303 927 c 128,-1,2
 390 1013 390 1013 513 1013 c 0,3,4
 635 1013 635 1013 721.5 926.5 c 128,-1,5
 808 840 808 840 808 718 c 256,6,7
 808 596 808 596 720.5 508.5 c 128,-1,8
 633 421 633 421 511 421 c 0,9,10
 388 421 388 421 302 508 c 128,-1,11
 216 595 216 595 216 718 c 256,0,1
EndSplineSet
EndChar

StartChar: ellipsis
Encoding: 8230 8230 213
Width: 2048
GlyphClass: 1
Flags: W
LayerCount: 2
Fore
SplineSet
145 167 m 2,0,-1
 227 251 l 2,1,2
 242 265 242 265 256 265 c 0,3,4
 269 265 269 265 287 249 c 2,5,-1
 367 163 l 2,6,7
 379 147 379 147 379 134 c 0,8,9
 379 119 379 119 365 103 c 2,10,-1
 285 15 l 2,11,12
 265 -5 265 -5 256 -5 c 0,13,14
 240 -5 240 -5 227 9 c 2,15,-1
 139 110 l 2,16,17
 129 123 129 123 129 136 c 0,18,19
 129 151 129 151 145 167 c 2,0,-1
828 167 m 2,20,-1
 910 251 l 2,21,22
 925 265 925 265 939 265 c 0,23,24
 952 265 952 265 970 249 c 2,25,-1
 1050 163 l 2,26,27
 1062 147 1062 147 1062 134 c 0,28,29
 1062 119 1062 119 1048 103 c 2,30,-1
 968 15 l 2,31,32
 948 -5 948 -5 939 -5 c 0,33,34
 923 -5 923 -5 910 9 c 2,35,-1
 822 110 l 2,36,37
 812 123 812 123 812 136 c 0,38,39
 812 151 812 151 828 167 c 2,20,-1
1511 167 m 2,40,-1
 1593 251 l 2,41,42
 1608 265 1608 265 1622 265 c 0,43,44
 1635 265 1635 265 1653 249 c 2,45,-1
 1733 163 l 2,46,47
 1745 147 1745 147 1745 134 c 0,48,49
 1745 119 1745 119 1731 103 c 2,50,-1
 1651 15 l 2,51,52
 1631 -5 1631 -5 1622 -5 c 0,53,54
 1606 -5 1606 -5 1593 9 c 2,55,-1
 1505 110 l 2,56,57
 1495 123 1495 123 1495 136 c 0,58,59
 1495 151 1495 151 1511 167 c 2,40,-1
EndSplineSet
EndChar

StartChar: guilsinglleft
Encoding: 8249 8249 214
Width: 631
GlyphClass: 1
Flags: W
LayerCount: 2
Fore
SplineSet
174 479 m 1,0,-1
 516 782 l 1,1,-1
 530 782 l 1,2,-1
 530 745 l 1,3,-1
 325 479 l 1,4,-1
 530 213 l 1,5,-1
 530 176 l 1,6,-1
 516 176 l 1,7,-1
 174 479 l 1,0,-1
EndSplineSet
EndChar

StartChar: guilsinglright
Encoding: 8250 8250 215
Width: 631
GlyphClass: 1
Flags: W
LayerCount: 2
Fore
SplineSet
115 176 m 1,0,-1
 101 176 l 1,1,-1
 101 213 l 1,2,-1
 306 479 l 1,3,-1
 101 745 l 1,4,-1
 101 782 l 1,5,-1
 115 782 l 1,6,-1
 457 479 l 1,7,-1
 115 176 l 1,0,-1
EndSplineSet
EndChar

StartChar: fraction
Encoding: 8260 8260 216
AltUni2: 002215.ffffffff.0 002215.ffffffff.0
Width: 342
GlyphClass: 1
Flags: W
LayerCount: 2
Fore
SplineSet
-342 -29 m 1,0,-1
 598 1432 l 1,1,-1
 682 1432 l 1,2,-1
 -256 -29 l 1,3,-1
 -342 -29 l 1,0,-1
EndSplineSet
EndChar

StartChar: franc
Encoding: 8355 8355 217
Width: 1014
GlyphClass: 1
Flags: W
LayerCount: 2
Fore
SplineSet
247 357 m 1,0,-1
 53 357 l 1,1,-1
 53 417 l 1,2,-1
 247 417 l 1,3,-1
 247 1149 l 2,4,5
 247 1384 247 1384 144 1384 c 2,6,-1
 48 1384 l 1,7,-1
 48 1434 l 1,8,-1
 963 1434 l 1,9,-1
 1066 1203 l 1,10,-1
 1017 1203 l 1,11,12
 958 1385 958 1385 827 1385 c 2,13,-1
 511 1384 l 2,14,15
 409 1384 409 1384 409 1149 c 2,16,-1
 409 797 l 1,17,-1
 770 797 l 2,18,19
 870 797 870 797 870 860 c 2,20,-1
 870 918 l 1,21,-1
 920 918 l 1,22,-1
 920 576 l 1,23,-1
 870 576 l 1,24,-1
 870 636 l 2,25,26
 870 698 870 698 770 698 c 2,27,-1
 409 698 l 1,28,-1
 409 417 l 1,29,-1
 603 417 l 1,30,-1
 603 357 l 1,31,-1
 409 357 l 1,32,-1
 409 285 l 2,33,34
 409 50 409 50 511 50 c 2,35,-1
 608 50 l 1,36,-1
 608 0 l 1,37,-1
 48 0 l 1,38,-1
 48 50 l 1,39,-1
 144 50 l 2,40,41
 247 50 247 50 247 285 c 2,42,-1
 247 357 l 1,0,-1
EndSplineSet
EndChar

StartChar: lira
Encoding: 8356 8356 218
Width: 1014
GlyphClass: 1
Flags: W
LayerCount: 2
Fore
SplineSet
748 1347 m 1,0,1
 676 1378 676 1378 588 1378 c 2,2,-1
 586 1378 l 2,3,4
 486 1378 486 1378 396 1277 c 0,5,6
 312 1184 312 1184 312 1036 c 0,7,8
 312 1021 312 1021 313 1006 c 0,9,10
 313 900 313 900 346 793 c 1,11,-1
 726 793 l 1,12,-1
 726 733 l 1,13,-1
 366 733 l 1,14,15
 378 703 378 703 392 673 c 1,16,-1
 744 673 l 1,17,-1
 744 613 l 1,18,-1
 423 613 l 1,19,20
 458 550 458 550 458 475 c 0,21,22
 458 314 458 314 296 100 c 1,23,-1
 698 100 l 2,24,25
 828 100 828 100 887 232 c 1,26,-1
 936 231 l 1,27,-1
 833 0 l 1,28,-1
 114 0 l 1,29,-1
 115 50 l 1,30,31
 302 288 302 288 302 468 c 0,32,33
 302 545 302 545 268 611 c 1,34,-1
 266 613 l 1,35,-1
 94 613 l 1,36,-1
 94 673 l 1,37,-1
 237 673 l 1,38,39
 223 704 223 704 211 733 c 1,40,-1
 76 733 l 1,41,-1
 76 793 l 1,42,-1
 189 793 l 1,43,44
 153 900 153 900 153 986 c 0,45,46
 153 1212 153 1212 276.5 1333 c 128,-1,47
 400 1454 400 1454 587 1454 c 0,48,49
 662 1454 662 1454 772.5 1440 c 128,-1,50
 883 1426 883 1426 883 1406 c 2,51,-1
 883 1245 l 1,52,-1
 825 1245 l 1,53,54
 820 1306 820 1306 748 1347 c 1,0,1
EndSplineSet
EndChar

StartChar: peseta
Encoding: 8359 8359 219
Width: 2028
GlyphClass: 1
Flags: W
LayerCount: 2
Fore
SplineSet
409 1384 m 1,0,-1
 409 722 l 2,1,2
 412 713 412 713 416 705 c 0,3,4
 457 603 457 603 524 552 c 0,5,6
 581 508 581 508 640 508 c 0,7,8
 650 508 650 508 659 509 c 0,9,10
 727 517 727 517 786 584 c 128,-1,11
 845 651 845 651 873 761 c 0,12,13
 895 848 895 848 895 940 c 0,14,15
 895 964 895 964 894 987 c 0,16,17
 887 1103 887 1103 844.5 1205.5 c 128,-1,18
 802 1308 802 1308 736 1350 c 0,19,20
 680 1385 680 1385 624 1385 c 0,21,22
 614 1385 614 1385 603 1384 c 2,23,-1
 409 1384 l 1,0,-1
1496 908 m 1,24,-1
 1317 908 l 1,25,-1
 1317 223 l 2,26,27
 1317 142 1317 142 1351 104 c 0,28,29
 1379 73 1379 73 1432 67 c 1,30,-1
 1361 259 l 1,31,-1
 1410 260 l 1,32,33
 1465 130 1465 130 1524 86 c 0,34,35
 1581 42 1581 42 1651 42 c 2,36,-1
 1658 42 l 2,37,38
 1750 42 1750 42 1809 94 c 0,39,40
 1868 147 1868 147 1868 230 c 0,41,42
 1868 332 1868 332 1609 456 c 0,43,44
 1508 508 1508 508 1465 568 c 128,-1,45
 1422 628 1422 628 1422 713 c 0,46,47
 1422 834 1422 834 1495 907 c 2,48,-1
 1496 908 l 1,24,-1
1039 910 m 1,49,50
 1032 809 1032 809 991 716 c 0,51,52
 941 602 941 602 850 538.5 c 128,-1,53
 759 475 759 475 660 475 c 0,54,55
 560 475 560 475 469 539 c 0,56,57
 436 561 436 561 409 590 c 1,58,-1
 409 285 l 2,59,60
 409 50 409 50 511 50 c 2,61,-1
 608 50 l 1,62,-1
 608 0 l 1,63,-1
 48 0 l 1,64,-1
 48 50 l 1,65,-1
 144 50 l 2,66,67
 247 50 247 50 247 285 c 2,68,-1
 247 1149 l 2,69,70
 247 1384 247 1384 144 1384 c 2,71,-1
 48 1384 l 1,72,-1
 48 1434 l 1,73,-1
 666 1434 l 2,74,75
 758 1432 758 1432 847 1372 c 0,76,77
 938 1310 938 1310 990 1195 c 0,78,79
 1040 1082 1040 1082 1041 958 c 1,80,-1
 1051 958 l 2,81,82
 1267 958 1267 958 1267 1313 c 1,83,-1
 1317 1313 l 1,84,-1
 1317 958 l 1,85,-1
 1576 958 l 1,86,87
 1618 977 1618 977 1686 978 c 2,88,-1
 1688 978 l 2,89,90
 1742 978 1742 978 1821.5 964.5 c 128,-1,91
 1901 951 1901 951 1901 931 c 2,92,-1
 1901 772 l 1,93,-1
 1859 772 l 1,94,95
 1855 838 1855 838 1793.5 880 c 128,-1,96
 1732 922 1732 922 1660 922 c 0,97,98
 1596 922 1596 922 1557.5 885.5 c 128,-1,99
 1519 849 1519 849 1519 789 c 0,100,101
 1519 681 1519 681 1754 569 c 0,102,103
 1876 514 1876 514 1921.5 451.5 c 128,-1,104
 1967 389 1967 389 1967 298 c 0,105,106
 1967 158 1967 158 1884 67 c 1,107,108
 1782 -17 1782 -17 1656 -19 c 0,109,110
 1598 -19 1598 -19 1551 -8 c 0,111,112
 1523 -2 1523 -2 1495 -2 c 0,113,114
 1477 -2 1477 -2 1459 -5 c 0,115,116
 1431 -10 1431 -10 1400 -10 c 0,117,118
 1276 -10 1276 -10 1226.5 47 c 128,-1,119
 1177 104 1177 104 1169 223 c 1,120,-1
 1168 223 l 1,121,-1
 1168 910 l 1,122,-1
 1039 910 l 1,49,50
EndSplineSet
EndChar

StartChar: Euro
Encoding: 8364 8364 220
Width: 1014
GlyphClass: 1
Flags: W
LayerCount: 2
Fore
SplineSet
140 372 m 0,0,1
 78 507 78 507 64 653 c 1,2,-1
 -44 653 l 1,3,-1
 -27 713 l 1,4,-1
 60 713 l 1,5,-1
 60 742 l 2,6,7
 60 758 60 758 61 773 c 1,8,-1
 -10 773 l 1,9,-1
 7 833 l 1,10,-1
 65 833 l 1,11,12
 79 978 79 978 141 1114 c 0,13,14
 222 1292 222 1292 367 1388 c 128,-1,15
 512 1484 512 1484 665 1484 c 0,16,17
 708 1484 708 1484 752 1476 c 0,18,19
 792 1466 792 1466 834 1447 c 0,20,21
 842 1441 842 1441 850 1441 c 0,22,23
 870 1441 870 1441 884 1486 c 1,24,-1
 925 1486 l 1,25,-1
 1009 1205 l 1,26,-1
 969 1204 l 1,27,28
 920 1338 920 1338 831 1382 c 0,29,30
 788 1404 788 1404 750 1414 c 1,31,-1
 750 1417 l 1,32,33
 700 1433 700 1433 649 1433 c 0,34,35
 632 1433 632 1433 615 1431 c 0,36,37
 495 1419 495 1419 389 1317.5 c 128,-1,38
 283 1216 283 1216 232 1044 c 0,39,40
 200 940 200 940 193 833 c 1,41,-1
 899 833 l 1,42,-1
 882 773 l 1,43,-1
 190 773 l 1,44,45
 190 743 190 743 192 713 c 1,46,-1
 866 713 l 1,47,-1
 849 653 l 1,48,-1
 197 653 l 1,49,50
 214 495 214 495 280 355 c 0,51,52
 354 198 354 198 473 119 c 0,53,54
 575 51 575 51 689 50 c 0,55,56
 875 53 875 53 945 141 c 0,57,58
 1019 232 1019 232 1019 326 c 1,59,-1
 1067 326 l 1,60,-1
 1067 183 l 2,61,62
 1067 113 1067 113 956 56 c 0,63,64
 851 2 851 2 689 0 c 0,65,66
 508 0 508 0 363.5 98 c 128,-1,67
 219 196 219 196 140 372 c 0,0,1
EndSplineSet
EndChar

StartChar: partialdiff
Encoding: 8706 8706 223
Width: 1014
GlyphClass: 1
Flags: W
LayerCount: 2
Fore
SplineSet
232 537 m 0,0,1
 232 496 232 496 237 458 c 0,2,3
 251 336 251 336 298.5 228 c 128,-1,4
 346 120 346 120 417 63 c 0,5,6
 481 10 481 10 545 10 c 0,7,8
 551 10 551 10 558 11 c 0,9,10
 628 16 628 16 685.5 81.5 c 128,-1,11
 743 147 743 147 766 261 c 0,12,13
 782 334 782 334 782 410 c 0,14,15
 782 452 782 452 777 495 c 0,16,17
 763 617 763 617 714.5 726.5 c 128,-1,18
 666 836 666 836 595 892 c 0,19,20
 530 942 530 942 467 942 c 2,21,-1
 456 942 l 1,22,23
 388 937 388 937 330 872.5 c 128,-1,24
 272 808 272 808 248 694 c 0,25,26
 232 610 232 610 232 537 c 0,0,1
937 477 m 0,27,28
 937 345 937 345 880.5 226 c 128,-1,29
 824 107 824 107 721.5 41 c 128,-1,30
 619 -25 619 -25 507 -25 c 256,31,32
 395 -25 395 -25 292.5 41 c 128,-1,33
 190 107 190 107 133.5 226 c 128,-1,34
 77 345 77 345 77 477 c 0,35,36
 77 608 77 608 135 728 c 128,-1,37
 193 848 193 848 296 913 c 128,-1,38
 399 978 399 978 507 978 c 0,39,40
 616 978 616 978 719 913 c 0,41,42
 748 895 748 895 773 872 c 1,43,44
 689 1107 689 1107 539.5 1249 c 128,-1,45
 390 1391 390 1391 213 1404 c 1,46,-1
 213 1459 l 1,47,48
 519 1459 519 1459 728 1174 c 128,-1,49
 937 889 937 889 937 477 c 0,27,28
EndSplineSet
EndChar

StartChar: Delta
Encoding: 8710 8710 224
Width: 1081
GlyphClass: 1
Flags: W
LayerCount: 2
Fore
SplineSet
514 1195 m 1,0,-1
 108 123 l 1,1,-1
 909 123 l 1,2,-1
 514 1195 l 1,0,-1
547 1434 m 1,3,-1
 1073 0 l 1,4,-1
 6 0 l 1,5,-1
 547 1434 l 1,3,-1
EndSplineSet
EndChar

StartChar: product
Encoding: 8719 8719 225
Width: 1515
GlyphClass: 1
Flags: W
LayerCount: 2
Fore
SplineSet
511 1384 m 2,0,1
 409 1384 409 1384 409 1149 c 2,2,-1
 409 -132 l 2,3,4
 409 -367 409 -367 511 -367 c 2,5,-1
 608 -367 l 1,6,-1
 608 -418 l 1,7,-1
 48 -418 l 1,8,-1
 48 -367 l 1,9,-1
 144 -367 l 2,10,11
 247 -367 247 -367 247 -132 c 2,12,-1
 247 1149 l 2,13,14
 247 1384 247 1384 144 1384 c 2,15,-1
 48 1384 l 1,16,-1
 48 1434 l 1,17,-1
 1467 1434 l 1,18,-1
 1467 1384 l 1,19,-1
 1370 1384 l 2,20,21
 1268 1384 1268 1384 1268 1149 c 2,22,-1
 1268 -132 l 2,23,24
 1268 -367 1268 -367 1370 -367 c 2,25,-1
 1467 -367 l 1,26,-1
 1467 -417 l 1,27,-1
 907 -417 l 1,28,-1
 907 -367 l 1,29,-1
 1003 -367 l 2,30,31
 1106 -367 1106 -367 1106 -132 c 2,32,-1
 1106 1149 l 2,33,34
 1106 1384 1106 1384 1003 1384 c 2,35,-1
 511 1384 l 2,0,1
EndSplineSet
EndChar

StartChar: summation
Encoding: 8721 8721 226
Width: 1206
GlyphClass: 1
Flags: W
LayerCount: 2
Fore
SplineSet
1059 548 m 1,0,-1
 271 -366 l 1,1,-1
 906 -366 l 2,2,3
 1036 -366 1036 -366 1095 -184 c 1,4,-1
 1144 -184 l 1,5,-1
 1041 -416 l 1,6,-1
 120 -416 l 1,7,-1
 120 -366 l 1,8,9
 182 -366 182 -366 226 -313 c 2,10,-1
 889 468 l 1,11,-1
 226 1327 l 2,12,13
 182 1384 182 1384 120 1384 c 1,14,-1
 120 1434 l 1,15,-1
 1041 1434 l 1,16,-1
 1144 1202 l 1,17,-1
 1095 1202 l 1,18,19
 1036 1384 1036 1384 906 1384 c 2,20,-1
 421 1384 l 1,21,-1
 1059 548 l 1,0,-1
EndSplineSet
EndChar

StartChar: minus
Encoding: 8722 8722 227
Width: 1014
GlyphClass: 1
Flags: W
LayerCount: 2
Fore
SplineSet
74 733 m 1,0,-1
 970 733 l 1,1,-1
 970 672 l 1,2,-1
 217 672 l 1,3,-1
 74 652 l 1,4,-1
 74 733 l 1,0,-1
EndSplineSet
EndChar

StartChar: radical
Encoding: 8730 8730 228
Width: 1014
GlyphClass: 1
Flags: W
LayerCount: 2
Fore
SplineSet
181 0 m 1,0,-1
 17 359 l 1,1,-1
 91 394 l 1,2,-1
 176 209 l 1,3,-1
 904 1679 l 1,4,-1
 1054 1679 l 1,5,-1
 1054 1619 l 1,6,-1
 982 1619 l 1,7,-1
 181 0 l 1,0,-1
EndSplineSet
EndChar

StartChar: infinity
Encoding: 8734 8734 229
Width: 1014
GlyphClass: 1
Flags: W
LayerCount: 2
Fore
SplineSet
439 755 m 1,0,1
 424 858 424 858 365 888 c 0,2,3
 319 910 319 910 281 910 c 0,4,5
 269 910 269 910 258 908 c 0,6,7
 209 898 209 898 165.5 863.5 c 128,-1,8
 122 829 122 829 100 779 c 0,9,10
 80 733 80 733 80 689 c 2,11,-1
 80 681 l 2,12,13
 82 633 82 633 107.5 592 c 128,-1,14
 133 551 133 551 179 534 c 0,15,16
 208 523 208 523 240 523 c 0,17,18
 256 523 256 523 273 526 c 0,19,20
 320 536 320 536 363.5 569.5 c 128,-1,21
 407 603 407 603 439 755 c 1,0,1
466 687 m 1,22,23
 478 591 478 591 560 534 c 0,24,25
 629 486 629 486 683 486 c 0,26,27
 694 486 694 486 704 488 c 0,28,29
 766 500 766 500 821.5 540 c 128,-1,30
 877 580 877 580 906 641 c 0,31,32
 932 695 932 695 932 749 c 2,33,-1
 932 760 l 2,34,35
 930 820 930 820 896.5 868.5 c 128,-1,36
 863 917 863 917 805 937 c 0,37,38
 768 950 768 950 729 950 c 0,39,40
 707 950 707 950 685 946 c 0,41,42
 618 937 618 937 558 884 c 128,-1,43
 498 831 498 831 466 687 c 1,22,23
450 827 m 1,44,45
 459 862 459 862 471 896 c 0,46,47
 505 984 505 984 566 1033 c 128,-1,48
 627 1082 627 1082 694 1082 c 256,49,50
 761 1082 761 1082 822 1034 c 128,-1,51
 883 986 883 986 917 899 c 128,-1,52
 951 812 951 812 951 717 c 256,53,54
 951 622 951 622 917 535 c 128,-1,55
 883 448 883 448 822 400 c 128,-1,56
 761 352 761 352 694 352 c 256,57,58
 627 352 627 352 566 401 c 128,-1,59
 505 450 505 450 471 537 c 0,60,61
 459 572 459 572 450 607 c 1,62,63
 445 586 445 586 438 566 c 0,64,65
 411 493 411 493 364 453 c 128,-1,66
 317 413 317 413 265 413 c 256,67,68
 213 413 213 413 165 454 c 128,-1,69
 117 495 117 495 91.5 567.5 c 128,-1,70
 66 640 66 640 66 717 c 0,71,72
 66 793 66 793 91.5 866 c 128,-1,73
 117 939 117 939 165 980 c 128,-1,74
 213 1021 213 1021 265 1021 c 256,75,76
 317 1021 317 1021 364 981 c 128,-1,77
 411 941 411 941 438 869 c 0,78,79
 445 848 445 848 450 827 c 1,44,45
EndSplineSet
EndChar

StartChar: integral
Encoding: 8747 8747 230
Width: 665
GlyphClass: 1
Flags: W
LayerCount: 2
Fore
SplineSet
-12 -281 m 0,0,1
 -72 -281 -72 -281 -72 -252 c 2,2,-1
 -72 -93 l 1,3,-1
 -36 -93 l 1,4,5
 -35 -136 -35 -136 -1.5 -157.5 c 128,-1,6
 32 -179 32 -179 62 -179 c 2,7,-1
 63 -179 l 2,8,9
 145 -179 145 -179 178 -17 c 0,10,11
 210 145 210 145 218 299 c 1,12,-1
 288 1033 l 1,13,-1
 296 1095 l 2,14,15
 323 1333 323 1333 431 1524.5 c 128,-1,16
 539 1716 539 1716 665 1716 c 0,17,18
 725 1716 725 1716 725 1687 c 2,19,-1
 725 1528 l 1,20,-1
 689 1528 l 1,21,22
 688 1571 688 1571 654 1592.5 c 128,-1,23
 620 1614 620 1614 591 1614 c 0,24,25
 520 1614 520 1614 475 1458.5 c 128,-1,26
 430 1303 430 1303 426 1095 c 1,27,-1
 353 328 l 2,28,29
 333 97 333 97 222.5 -92 c 128,-1,30
 112 -281 112 -281 -12 -281 c 0,0,1
EndSplineSet
EndChar

StartChar: approxequal
Encoding: 8776 8776 231
Width: 1014
GlyphClass: 1
Flags: W
LayerCount: 2
Fore
SplineSet
923 1053 m 1,0,-1
 923 897 l 1,1,2
 860 825 860 825 801 799.5 c 128,-1,3
 742 774 742 774 685 774 c 0,4,5
 625 774 625 774 507.5 822.5 c 128,-1,6
 390 871 390 871 331 871 c 0,7,8
 280 871 280 871 223.5 843 c 128,-1,9
 167 815 167 815 94 731 c 1,10,-1
 94 887 l 1,11,12
 158 960 158 960 217 986 c 128,-1,13
 276 1012 276 1012 331 1012 c 0,14,15
 395 1012 395 1012 512.5 962.5 c 128,-1,16
 630 913 630 913 685 913 c 0,17,18
 737 913 737 913 793.5 941 c 128,-1,19
 850 969 850 969 923 1053 c 1,0,-1
923 705 m 1,20,-1
 923 549 l 1,21,22
 860 477 860 477 801 451.5 c 128,-1,23
 742 426 742 426 685 426 c 0,24,25
 625 426 625 426 507.5 474.5 c 128,-1,26
 390 523 390 523 331 523 c 0,27,28
 280 523 280 523 223.5 495 c 128,-1,29
 167 467 167 467 94 383 c 1,30,-1
 94 539 l 1,31,32
 158 612 158 612 217 638 c 128,-1,33
 276 664 276 664 331 664 c 0,34,35
 395 664 395 664 512.5 614.5 c 128,-1,36
 630 565 630 565 685 565 c 0,37,38
 737 565 737 565 793.5 593 c 128,-1,39
 850 621 850 621 923 705 c 1,20,-1
EndSplineSet
EndChar

StartChar: lessequal
Encoding: 8804 8804 232
Width: 1014
GlyphClass: 1
Flags: W
LayerCount: 2
Fore
SplineSet
927 1074 m 1,0,-1
 302 715 l 1,1,-1
 927 360 l 1,2,-1
 927 193 l 1,3,-1
 87 674 l 1,4,-1
 87 757 l 1,5,-1
 927 1241 l 1,6,-1
 927 1074 l 1,0,-1
87 1 m 1,7,-1
 87 141 l 1,8,-1
 926 141 l 1,9,-1
 927 140 l 1,10,-1
 927 1 l 1,11,-1
 87 1 l 1,7,-1
EndSplineSet
EndChar

StartChar: greaterequal
Encoding: 8805 8805 233
Width: 1014
GlyphClass: 1
Flags: W
LayerCount: 2
Fore
SplineSet
87 1241 m 1,0,-1
 927 757 l 1,1,-1
 927 674 l 1,2,-1
 87 193 l 1,3,-1
 87 360 l 1,4,-1
 712 715 l 1,5,-1
 87 1074 l 1,6,-1
 87 1241 l 1,0,-1
87 2 m 1,7,-1
 87 142 l 1,8,-1
 926 142 l 1,9,-1
 927 141 l 1,10,-1
 927 2 l 1,11,-1
 87 2 l 1,7,-1
EndSplineSet
EndChar

StartChar: uni0410
Encoding: 1040 1040 236
Width: 910
GlyphClass: 1
Flags: W
LayerCount: 2
Fore
SplineSet
421 1013 m 1,0,-1
 505 1013 l 1,1,-1
 505 845 l 1,2,-1
 589 845 l 1,3,-1
 589 676 l 1,4,-1
 674 676 l 1,5,-1
 674 507 l 1,6,-1
 758 507 l 1,7,-1
 758 253 l 1,8,-1
 843 253 l 1,9,-1
 843 84 l 1,10,-1
 906 84 l 1,11,-1
 906 0 l 1,12,-1
 589 0 l 1,13,-1
 589 84 l 1,14,-1
 674 84 l 1,15,-1
 674 253 l 1,16,17
 589 253 589 253 589 296 c 2,18,-1
 589 338 l 1,19,-1
 167 338 l 1,20,-1
 167 507 l 1,21,-1
 252 507 l 1,22,-1
 252 422 l 1,23,-1
 589 422 l 1,24,-1
 589 507 l 1,25,-1
 505 507 l 1,26,-1
 505 676 l 1,27,-1
 336 676 l 1,28,-1
 336 845 l 1,29,-1
 421 845 l 1,30,-1
 421 1013 l 1,0,-1
251 669 m 1,31,-1
 334 669 l 1,32,-1
 334 502 l 1,33,-1
 251 502 l 1,34,-1
 251 669 l 1,31,-1
84 334 m 1,35,-1
 167 334 l 1,36,-1
 167 167 l 1,37,-1
 84 167 l 1,38,-1
 84 334 l 1,35,-1
0 167 m 1,39,-1
 84 167 l 1,40,41
 84 84 84 84 125 84 c 2,42,-1
 167 84 l 1,43,-1
 167 0 l 1,44,-1
 0 0 l 1,45,-1
 0 167 l 1,39,-1
EndSplineSet
EndChar

StartChar: uni0411
Encoding: 1041 1041 237
Width: 684
GlyphClass: 1
Flags: W
LayerCount: 2
Fore
SplineSet
170 1019 m 1,0,-1
 679 1019 l 1,1,-1
 679 934 l 1,2,3
 594 934 594 934 594 892 c 2,4,-1
 594 849 l 1,5,-1
 255 849 l 1,6,-1
 255 764 l 1,7,-1
 425 764 l 1,8,9
 425 673 425 673 510 658 c 1,10,11
 510 594 510 594 573 594 c 1,12,13
 588 510 588 510 679 510 c 1,14,-1
 679 170 l 1,15,16
 594 170 594 170 594 127 c 0,17,18
 594 80 594 80 510 64 c 1,19,-1
 510 0 l 1,20,-1
 170 0 l 1,21,22
 170 85 170 85 127 85 c 0,23,24
 80 85 80 85 64 170 c 1,25,-1
 0 170 l 1,26,-1
 0 679 l 1,27,-1
 85 679 l 1,28,-1
 85 849 l 1,29,-1
 170 849 l 1,30,-1
 170 1019 l 1,0,-1
340 594 m 1,31,-1
 340 510 l 1,32,-1
 170 510 l 1,33,-1
 170 170 l 1,34,35
 255 170 255 170 255 127 c 2,36,-1
 255 85 l 1,37,-1
 425 85 l 1,38,39
 425 170 425 170 467 170 c 2,40,-1
 510 170 l 1,41,-1
 510 510 l 1,42,43
 425 510 425 510 425 552 c 2,44,-1
 425 594 l 1,45,-1
 340 594 l 1,31,-1
EndSplineSet
EndChar

StartChar: uni0412
Encoding: 1042 1042 238
Width: 855
GlyphClass: 1
Flags: W
LayerCount: 2
Fore
SplineSet
0 1017 m 1,0,-1
 593 1017 l 1,1,-1
 593 932 l 1,2,-1
 254 932 l 1,3,-1
 254 593 l 1,4,-1
 593 593 l 1,5,6
 593 678 593 678 636 678 c 2,7,-1
 678 678 l 1,8,-1
 678 848 l 1,9,-1
 593 848 l 1,10,-1
 593 932 l 1,11,-1
 763 932 l 1,12,13
 763 848 763 848 805 848 c 2,14,-1
 848 848 l 1,15,-1
 848 678 l 1,16,17
 756 678 756 678 742 593 c 1,18,-1
 678 593 l 1,19,-1
 678 509 l 1,20,21
 769 509 769 509 784 424 c 1,22,-1
 848 424 l 1,23,-1
 848 318 l 2,24,25
 848 297 848 297 826 297 c 1,26,-1
 848 254 l 1,27,-1
 848 170 l 1,28,29
 763 170 763 170 763 127 c 2,30,-1
 763 85 l 1,31,-1
 593 85 l 1,32,-1
 593 170 l 1,33,-1
 678 170 l 1,34,-1
 678 424 l 1,35,36
 593 424 593 424 593 466 c 2,37,-1
 593 509 l 1,38,-1
 254 509 l 1,39,-1
 254 85 l 1,40,-1
 593 85 l 1,41,-1
 593 0 l 1,42,-1
 0 0 l 1,43,-1
 0 85 l 1,44,-1
 85 85 l 1,45,-1
 85 932 l 1,46,-1
 0 932 l 1,47,-1
 0 1017 l 1,0,-1
EndSplineSet
EndChar

StartChar: uni0413
Encoding: 1043 1043 239
Width: 848
GlyphClass: 1
Flags: W
LayerCount: 2
Fore
SplineSet
0 1014 m 1,0,-1
 845 1014 l 1,1,-1
 845 930 l 1,2,-1
 169 930 l 1,3,-1
 169 0 l 1,4,-1
 0 0 l 1,5,-1
 0 1014 l 1,0,-1
EndSplineSet
EndChar

StartChar: uni0414
Encoding: 1044 1044 240
Width: 850
GlyphClass: 1
Flags: W
LayerCount: 2
Fore
SplineSet
421 1010 m 1,0,-1
 758 1010 l 1,1,-1
 758 84 l 1,2,-1
 842 84 l 1,3,-1
 842 0 l 1,4,-1
 0 0 l 1,5,-1
 0 84 l 1,6,-1
 84 84 l 1,7,-1
 84 673 l 1,8,-1
 168 673 l 1,9,-1
 168 842 l 1,10,11
 253 842 253 842 253 884 c 2,12,-1
 253 926 l 1,13,-1
 421 926 l 1,14,-1
 421 842 l 1,15,-1
 337 842 l 1,16,-1
 337 673 l 1,17,-1
 253 673 l 1,18,-1
 253 84 l 1,19,-1
 589 84 l 1,20,-1
 589 926 l 1,21,-1
 421 926 l 1,22,-1
 421 1010 l 1,0,-1
EndSplineSet
EndChar

StartChar: uni0415
Encoding: 1045 1045 241
Width: 772
GlyphClass: 1
Flags: W
LayerCount: 2
Fore
SplineSet
0 1012 m 1,0,-1
 759 1012 l 1,1,-1
 759 759 l 1,2,-1
 675 759 l 1,3,4
 675 850 675 850 590 864 c 1,5,-1
 590 928 l 1,6,-1
 253 928 l 1,7,-1
 253 590 l 1,8,-1
 590 590 l 1,9,-1
 590 675 l 1,10,-1
 675 675 l 1,11,-1
 675 422 l 1,12,-1
 590 422 l 1,13,-1
 590 506 l 1,14,-1
 253 506 l 1,15,-1
 253 84 l 1,16,-1
 590 84 l 1,17,18
 590 175 590 175 675 190 c 1,19,-1
 675 253 l 1,20,-1
 759 253 l 1,21,-1
 759 0 l 1,22,-1
 0 0 l 1,23,-1
 0 84 l 1,24,-1
 84 84 l 1,25,-1
 84 928 l 1,26,-1
 0 928 l 1,27,-1
 0 1012 l 1,0,-1
EndSplineSet
EndChar

StartChar: uni0416
Encoding: 1046 1046 242
Width: 938
GlyphClass: 1
Flags: W
LayerCount: 2
Fore
SplineSet
0 1014 m 1,0,-1
 254 1014 l 1,1,-1
 254 676 l 1,2,-1
 169 676 l 1,3,-1
 169 845 l 1,4,5
 78 845 78 845 63 930 c 1,6,-1
 0 930 l 1,7,-1
 0 1014 l 1,0,-1
338 1014 m 1,8,-1
 507 1014 l 1,9,-1
 507 592 l 1,10,-1
 592 592 l 1,11,-1
 570 444 l 1,12,-1
 570 401 l 1,13,14
 683 401 683 401 697 338 c 1,15,-1
 761 338 l 1,16,-1
 761 169 l 1,17,18
 852 169 852 169 866 85 c 1,19,-1
 930 85 l 1,20,-1
 930 0 l 1,21,-1
 676 0 l 1,22,-1
 676 169 l 1,23,-1
 592 169 l 1,24,-1
 592 338 l 1,25,-1
 507 338 l 1,26,-1
 507 0 l 1,27,-1
 338 0 l 1,28,-1
 338 338 l 1,29,-1
 254 338 l 1,30,-1
 254 423 l 1,31,-1
 338 423 l 1,32,-1
 338 592 l 1,33,-1
 254 592 l 1,34,-1
 254 676 l 1,35,-1
 338 676 l 1,36,-1
 338 1014 l 1,8,-1
676 1014 m 1,37,-1
 930 1014 l 1,38,-1
 930 951 l 1,39,40
 824 951 824 951 824 908 c 2,41,-1
 824 845 l 1,42,-1
 761 845 l 1,43,44
 761 930 761 930 718 930 c 2,45,-1
 676 930 l 1,46,-1
 676 1014 l 1,37,-1
676 845 m 1,47,-1
 761 845 l 1,48,-1
 761 803 l 2,49,50
 761 761 761 761 718 761 c 2,51,-1
 676 761 l 1,52,-1
 676 845 l 1,47,-1
592 761 m 1,53,-1
 676 761 l 1,54,55
 655 644 655 644 655 592 c 1,56,-1
 592 592 l 1,57,-1
 592 761 l 1,53,-1
169 338 m 1,58,-1
 254 338 l 1,59,-1
 254 169 l 1,60,-1
 169 169 l 1,61,-1
 169 338 l 1,58,-1
85 169 m 1,62,-1
 169 169 l 1,63,64
 169 85 169 85 211 85 c 2,65,-1
 254 85 l 1,66,-1
 254 0 l 1,67,-1
 0 0 l 1,68,-1
 0 85 l 1,69,70
 85 85 85 85 85 127 c 2,71,-1
 85 169 l 1,62,-1
EndSplineSet
EndChar

StartChar: uni0417
Encoding: 1047 1047 243
Width: 682
GlyphClass: 1
Flags: W
LayerCount: 2
Fore
SplineSet
170 1021 m 1,0,-1
 511 1021 l 1,1,2
 511 936 511 936 553 936 c 2,3,-1
 596 936 l 1,4,-1
 596 681 l 1,5,-1
 511 681 l 1,6,-1
 511 596 l 1,7,8
 602 596 602 596 617 511 c 1,9,-1
 681 511 l 1,10,-1
 681 170 l 1,11,12
 596 170 596 170 596 128 c 0,13,14
 596 80 596 80 511 64 c 1,15,-1
 511 0 l 1,16,-1
 85 0 l 1,17,18
 85 85 85 85 43 85 c 2,19,-1
 0 85 l 1,20,-1
 0 255 l 1,21,-1
 170 255 l 1,22,23
 170 164 170 164 255 149 c 1,24,-1
 255 85 l 1,25,-1
 425 85 l 1,26,27
 425 170 425 170 468 170 c 2,28,-1
 511 170 l 1,29,-1
 511 425 l 1,30,31
 425 425 425 425 425 468 c 2,32,-1
 425 511 l 1,33,-1
 255 511 l 1,34,-1
 255 596 l 1,35,36
 347 596 347 596 362 681 c 1,37,-1
 425 681 l 1,38,-1
 425 851 l 1,39,40
 340 851 340 851 340 893 c 2,41,-1
 340 936 l 1,42,-1
 170 936 l 1,43,-1
 170 1021 l 1,0,-1
85 936 m 1,44,-1
 170 936 l 1,45,-1
 170 851 l 1,46,-1
 85 851 l 1,47,-1
 85 936 l 1,44,-1
0 851 m 1,48,-1
 85 851 l 1,49,-1
 85 766 l 1,50,-1
 0 766 l 1,51,-1
 0 851 l 1,48,-1
EndSplineSet
EndChar

StartChar: uni0418
Encoding: 1048 1048 244
Width: 938
GlyphClass: 1
Flags: W
LayerCount: 2
Fore
SplineSet
0 1017 m 1,0,-1
 254 1017 l 1,1,-1
 254 932 l 1,2,-1
 170 932 l 1,3,-1
 170 339 l 1,4,-1
 254 339 l 1,5,6
 254 424 254 424 297 424 c 2,7,-1
 339 424 l 1,8,-1
 339 593 l 1,9,10
 424 593 424 593 424 636 c 0,11,12
 424 683 424 683 509 699 c 1,13,14
 509 763 509 763 572 763 c 2,15,-1
 593 763 l 1,16,-1
 593 932 l 1,17,18
 678 932 678 932 678 975 c 2,19,-1
 678 1017 l 1,20,-1
 932 1017 l 1,21,-1
 932 932 l 1,22,-1
 848 932 l 1,23,-1
 848 85 l 1,24,-1
 932 85 l 1,25,-1
 932 0 l 1,26,-1
 678 0 l 1,27,-1
 678 85 l 1,28,-1
 763 85 l 1,29,-1
 763 763 l 1,30,-1
 678 763 l 1,31,32
 678 678 678 678 636 678 c 2,33,-1
 593 678 l 1,34,-1
 593 509 l 1,35,36
 509 509 509 509 509 466 c 0,37,38
 509 418 509 418 424 403 c 1,39,40
 424 339 424 339 360 339 c 2,41,-1
 339 339 l 1,42,-1
 339 170 l 1,43,44
 254 170 254 170 254 127 c 0,45,46
 254 79 254 79 170 64 c 1,47,-1
 170 0 l 1,48,-1
 85 0 l 1,49,-1
 85 932 l 1,50,-1
 0 932 l 1,51,-1
 0 1017 l 1,0,-1
EndSplineSet
EndChar

StartChar: uni0419
Encoding: 1049 1049 245
Width: 943
GlyphClass: 1
Flags: W
LayerCount: 2
Fore
SplineSet
314 1188 m 1,0,-1
 314 1317 l 5,1,-1
 644 1317 l 5,2,-1
 644 1188 l 1,3,-1
 314 1188 l 1,0,-1
0 1019 m 1,4,-1
 255 1019 l 1,5,-1
 255 934 l 1,6,-1
 170 934 l 1,7,-1
 170 340 l 1,8,-1
 255 340 l 1,9,10
 255 425 255 425 297 425 c 2,11,-1
 340 425 l 1,12,-1
 340 594 l 1,13,14
 425 594 425 594 425 637 c 0,15,16
 425 685 425 685 510 701 c 1,17,18
 510 764 510 764 573 764 c 2,19,-1
 594 764 l 1,20,-1
 594 934 l 1,21,22
 679 934 679 934 679 977 c 2,23,-1
 679 1019 l 1,24,-1
 934 1019 l 1,25,-1
 934 934 l 1,26,-1
 849 934 l 1,27,-1
 849 85 l 1,28,-1
 934 85 l 1,29,-1
 934 0 l 1,30,-1
 679 0 l 1,31,-1
 679 85 l 1,32,-1
 764 85 l 1,33,-1
 764 764 l 1,34,-1
 679 764 l 1,35,36
 679 679 679 679 637 679 c 2,37,-1
 594 679 l 1,38,-1
 594 510 l 1,39,40
 510 510 510 510 519 466 c 128,-1,41
 528 422 528 422 425 403 c 1,42,43
 435 340 435 340 361 340 c 2,44,-1
 340 340 l 1,45,-1
 340 170 l 1,46,47
 255 170 255 170 255 127 c 0,48,49
 255 80 255 80 170 64 c 1,50,-1
 170 0 l 1,51,-1
 85 0 l 1,52,-1
 85 934 l 1,53,-1
 0 934 l 1,54,-1
 0 1019 l 1,4,-1
EndSplineSet
EndChar

StartChar: uni041A
Encoding: 1050 1050 246
Width: 933
GlyphClass: 1
Flags: W
LayerCount: 2
Fore
SplineSet
0 1016 m 1,0,-1
 339 1016 l 1,1,-1
 339 931 l 1,2,-1
 254 931 l 1,3,-1
 254 592 l 1,4,5
 345 592 345 592 360 508 c 1,6,7
 423 508 423 508 423 444 c 1,8,9
 508 416 508 416 529 339 c 1,10,11
 598 339 598 339 614 254 c 1,12,13
 677 254 677 254 677 190 c 1,14,15
 762 176 762 176 762 85 c 1,16,-1
 931 85 l 1,17,-1
 931 21 l 1,18,19
 617 0 617 0 508 0 c 1,20,-1
 508 85 l 1,21,-1
 592 85 l 1,22,-1
 592 169 l 1,23,24
 501 169 501 169 487 254 c 1,25,26
 423 254 423 254 423 317 c 1,27,28
 339 332 339 332 339 423 c 1,29,-1
 254 423 l 1,30,-1
 254 85 l 1,31,-1
 339 85 l 1,32,-1
 339 0 l 1,33,-1
 0 0 l 1,34,-1
 0 85 l 1,35,-1
 85 85 l 1,36,-1
 85 931 l 1,37,-1
 0 931 l 1,38,-1
 0 1016 l 1,0,-1
508 1016 m 1,39,-1
 846 1016 l 1,40,-1
 846 931 l 1,41,-1
 677 931 l 1,42,-1
 677 846 l 1,43,-1
 592 846 l 1,44,45
 592 931 592 931 550 931 c 2,46,-1
 508 931 l 1,47,-1
 508 1016 l 1,39,-1
508 846 m 1,48,-1
 592 846 l 1,49,-1
 592 762 l 1,50,-1
 508 762 l 1,51,-1
 508 846 l 1,48,-1
423 762 m 1,52,-1
 508 762 l 1,53,-1
 508 677 l 1,54,-1
 423 677 l 1,55,-1
 423 762 l 1,52,-1
339 677 m 1,56,-1
 423 677 l 1,57,-1
 423 592 l 1,58,-1
 339 592 l 1,59,-1
 339 677 l 1,56,-1
EndSplineSet
EndChar

StartChar: uni041B
Encoding: 1051 1051 247
Width: 859
GlyphClass: 1
Flags: W
LayerCount: 2
Fore
SplineSet
85 1015 m 1,0,-1
 846 1015 l 1,1,-1
 846 931 l 1,2,-1
 761 931 l 1,3,-1
 761 85 l 1,4,-1
 846 85 l 1,5,-1
 846 0 l 1,6,-1
 508 0 l 1,7,-1
 508 85 l 1,8,-1
 592 85 l 1,9,-1
 592 931 l 1,10,-1
 338 931 l 1,11,-1
 338 909 l 2,12,13
 338 763 338 763 317 360 c 1,14,15
 338 179 338 179 338 85 c 1,16,17
 254 85 254 85 254 42 c 2,18,-1
 254 0 l 1,19,-1
 0 0 l 1,20,-1
 0 85 l 1,21,-1
 169 85 l 1,22,-1
 169 931 l 1,23,-1
 85 931 l 1,24,-1
 85 1015 l 1,0,-1
EndSplineSet
EndChar

StartChar: uni041C
Encoding: 1052 1052 248
Width: 950
GlyphClass: 1
Flags: W
LayerCount: 2
Fore
SplineSet
0 1023 m 1,0,-1
 256 1023 l 1,1,-1
 256 767 l 1,2,-1
 341 767 l 1,3,-1
 341 426 l 1,4,-1
 426 426 l 1,5,6
 426 512 426 512 469 512 c 2,7,-1
 512 512 l 1,8,-1
 512 767 l 1,9,-1
 597 767 l 1,10,-1
 597 938 l 1,11,12
 682 938 682 938 682 981 c 2,13,-1
 682 1023 l 1,14,-1
 938 1023 l 1,15,-1
 938 938 l 1,16,-1
 853 938 l 1,17,-1
 853 85 l 1,18,-1
 938 85 l 1,19,-1
 938 21 l 1,20,-1
 917 21 l 2,21,22
 865 21 865 21 597 0 c 1,23,-1
 597 85 l 1,24,-1
 682 85 l 1,25,-1
 682 597 l 1,26,-1
 597 597 l 1,27,-1
 597 256 l 1,28,-1
 512 256 l 1,29,-1
 512 0 l 1,30,-1
 426 0 l 1,31,-1
 426 171 l 1,32,-1
 341 171 l 1,33,-1
 341 341 l 1,34,-1
 256 341 l 1,35,-1
 256 597 l 1,36,-1
 171 597 l 1,37,-1
 171 85 l 1,38,-1
 256 85 l 1,39,-1
 256 0 l 1,40,-1
 0 0 l 1,41,-1
 0 85 l 1,42,-1
 85 85 l 1,43,-1
 85 938 l 1,44,-1
 0 938 l 1,45,-1
 0 1023 l 1,0,-1
EndSplineSet
EndChar

StartChar: uni041D
Encoding: 1053 1053 249
Width: 931
GlyphClass: 1
Flags: W
LayerCount: 2
Fore
SplineSet
0 1012 m 1,0,-1
 337 1012 l 1,1,-1
 337 928 l 1,2,-1
 253 928 l 1,3,-1
 253 590 l 1,4,-1
 675 590 l 1,5,-1
 675 928 l 1,6,-1
 590 928 l 1,7,-1
 590 1012 l 1,8,-1
 928 1012 l 1,9,-1
 928 928 l 1,10,-1
 843 928 l 1,11,-1
 843 506 l 2,12,13
 843 418 843 418 822 274 c 1,14,15
 843 253 843 253 843 105 c 2,16,-1
 843 84 l 1,17,-1
 928 84 l 1,18,-1
 928 0 l 1,19,20
 912 0 912 0 801 21 c 1,21,-1
 590 0 l 1,22,-1
 590 84 l 1,23,-1
 675 84 l 1,24,-1
 675 506 l 1,25,-1
 253 506 l 1,26,27
 232 221 232 221 232 84 c 2,28,-1
 232 63 l 1,29,-1
 337 63 l 1,30,-1
 337 21 l 1,31,-1
 148 21 l 1,32,-1
 0 0 l 1,33,-1
 0 84 l 1,34,-1
 84 84 l 1,35,-1
 84 928 l 1,36,-1
 0 928 l 1,37,-1
 0 1012 l 1,0,-1
EndSplineSet
EndChar

StartChar: uni041E
Encoding: 1054 1054 250
Width: 675
GlyphClass: 1
Flags: W
LayerCount: 2
Fore
SplineSet
169 1014 m 1,0,-1
 507 1014 l 1,1,2
 507 930 507 930 549 930 c 2,3,-1
 592 930 l 1,4,-1
 592 761 l 1,5,-1
 676 761 l 1,6,-1
 676 254 l 1,7,-1
 592 254 l 1,8,-1
 592 85 l 1,9,10
 507 85 507 85 507 42 c 2,11,-1
 507 0 l 1,12,-1
 169 0 l 1,13,14
 169 85 169 85 127 85 c 2,15,-1
 85 85 l 1,16,-1
 85 254 l 1,17,-1
 0 254 l 1,18,-1
 0 761 l 1,19,-1
 85 761 l 1,20,-1
 85 930 l 1,21,22
 169 930 169 930 169 972 c 2,23,-1
 169 1014 l 1,0,-1
254 930 m 1,24,25
 254 845 254 845 211 845 c 2,26,-1
 169 845 l 1,27,-1
 169 169 l 1,28,29
 254 169 254 169 254 127 c 2,30,-1
 254 85 l 1,31,-1
 423 85 l 1,32,33
 423 169 423 169 465 169 c 2,34,-1
 507 169 l 1,35,-1
 507 845 l 1,36,37
 423 845 423 845 423 887 c 2,38,-1
 423 930 l 1,39,-1
 254 930 l 1,24,25
EndSplineSet
EndChar

StartChar: uni041F
Encoding: 1055 1055 251
Width: 610
GlyphClass: 1
Flags: W
LayerCount: 2
Fore
SplineSet
0 1017 m 1,0,-1
 593 1017 l 1,1,-1
 593 0 l 1,2,-1
 424 0 l 1,3,-1
 424 932 l 1,4,-1
 170 932 l 1,5,-1
 170 0 l 1,6,-1
 0 0 l 1,7,-1
 0 1017 l 1,0,-1
EndSplineSet
EndChar

StartChar: uni0420
Encoding: 1056 1056 252
Width: 760
GlyphClass: 1
Flags: W
LayerCount: 2
Fore
SplineSet
0 1007 m 1,0,-1
 504 1007 l 1,1,-1
 504 923 l 1,2,-1
 252 923 l 1,3,-1
 252 504 l 1,4,-1
 504 504 l 1,5,-1
 504 420 l 1,6,-1
 252 420 l 1,7,-1
 252 84 l 1,8,-1
 336 84 l 1,9,-1
 336 0 l 1,10,-1
 0 0 l 1,11,-1
 0 84 l 1,12,-1
 84 84 l 1,13,-1
 84 923 l 1,14,-1
 0 923 l 1,15,-1
 0 1007 l 1,0,-1
504 923 m 1,16,-1
 671 923 l 1,17,18
 671 839 671 839 713 839 c 2,19,-1
 755 839 l 1,20,-1
 755 587 l 1,21,22
 671 587 671 587 671 545 c 2,23,-1
 671 504 l 1,24,-1
 504 504 l 1,25,-1
 504 587 l 1,26,-1
 587 587 l 1,27,-1
 587 839 l 1,28,-1
 504 839 l 1,29,-1
 504 923 l 1,16,-1
EndSplineSet
EndChar

StartChar: uni0421
Encoding: 1057 1057 253
Width: 940
GlyphClass: 1
Flags: W
LayerCount: 2
Fore
SplineSet
339 1017 m 1,0,-1
 678 1017 l 1,1,-1
 678 932 l 1,2,-1
 339 932 l 1,3,-1
 339 1017 l 1,0,-1
848 1017 m 1,4,-1
 932 1017 l 1,5,-1
 932 678 l 1,6,-1
 848 678 l 1,7,8
 848 763 848 763 805 763 c 0,9,10
 757 763 757 763 742 848 c 1,11,-1
 678 848 l 1,12,-1
 678 932 l 1,13,-1
 848 932 l 1,14,-1
 848 1017 l 1,4,-1
170 932 m 1,15,-1
 339 932 l 1,16,-1
 339 848 l 1,17,-1
 254 848 l 1,18,-1
 254 678 l 1,19,-1
 170 678 l 1,20,-1
 170 339 l 1,21,-1
 254 339 l 1,22,-1
 254 170 l 1,23,-1
 339 170 l 1,24,-1
 339 85 l 1,25,-1
 170 85 l 1,26,27
 170 170 170 170 127 170 c 2,28,-1
 85 170 l 1,29,-1
 85 339 l 1,30,-1
 0 339 l 1,31,-1
 0 678 l 1,32,-1
 85 678 l 1,33,-1
 85 848 l 1,34,35
 170 848 170 848 170 890 c 2,36,-1
 170 932 l 1,15,-1
848 254 m 1,37,-1
 932 254 l 1,38,-1
 932 85 l 1,39,-1
 763 85 l 1,40,-1
 763 170 l 1,41,42
 848 170 848 170 848 212 c 2,43,-1
 848 254 l 1,37,-1
339 85 m 1,44,-1
 763 85 l 1,45,-1
 763 0 l 1,46,-1
 339 0 l 1,47,-1
 339 85 l 1,44,-1
EndSplineSet
EndChar

StartChar: uni0422
Encoding: 1058 1058 254
Width: 846
GlyphClass: 1
Flags: W
LayerCount: 2
Fore
SplineSet
0 1017 m 1,0,-1
 848 1017 l 1,1,-1
 826 869 l 1,2,-1
 826 763 l 1,3,-1
 763 763 l 1,4,5
 763 848 763 848 720 848 c 0,6,7
 699 848 699 848 699 953 c 1,8,-1
 487 953 l 1,9,-1
 487 64 l 1,10,-1
 593 64 l 1,11,-1
 593 21 l 1,12,-1
 403 21 l 1,13,-1
 254 0 l 1,14,-1
 254 85 l 1,15,-1
 339 85 l 1,16,-1
 339 636 l 2,17,18
 339 742 339 742 360 953 c 1,19,-1
 148 953 l 1,20,21
 148 869 148 869 106 869 c 256,22,23
 64 869 64 869 64 763 c 1,24,-1
 0 763 l 1,25,-1
 0 1017 l 1,0,-1
EndSplineSet
EndChar

StartChar: uni0423
Encoding: 1059 1059 255
Width: 846
GlyphClass: 1
Flags: W
LayerCount: 2
Fore
SplineSet
0 1007 m 1,0,-1
 336 1007 l 1,1,-1
 336 923 l 1,2,-1
 252 923 l 1,3,-1
 252 504 l 1,4,-1
 587 504 l 1,5,-1
 608 650 l 1,6,-1
 608 944 l 1,7,-1
 504 944 l 1,8,-1
 504 1007 l 1,9,-1
 839 1007 l 1,10,-1
 839 965 l 2,11,12
 839 923 839 923 755 923 c 1,13,-1
 755 168 l 1,14,15
 671 168 671 168 671 126 c 1,16,17
 648 102 648 102 587 63 c 1,18,-1
 587 21 l 1,19,-1
 378 21 l 1,20,-1
 264 27 l 1,21,22
 273 105 273 105 231 105 c 1,23,24
 233 126 233 126 168 189 c 1,25,-1
 105 189 l 1,26,-1
 105 252 l 1,27,-1
 252 252 l 1,28,29
 252 161 252 161 313 117 c 1,30,-1
 336 84 l 1,31,-1
 487 88 l 1,32,33
 499 110 499 110 534 149 c 2,34,-1
 568 189 l 1,35,-1
 608 231 l 1,36,-1
 608 441 l 1,37,38
 399 420 399 420 294 420 c 2,39,-1
 168 420 l 1,40,41
 168 504 168 504 126 504 c 2,42,-1
 105 504 l 1,43,-1
 105 944 l 1,44,-1
 0 944 l 1,45,-1
 0 1007 l 1,0,-1
EndSplineSet
EndChar

StartChar: uni0424
Encoding: 1060 1060 256
Width: 931
GlyphClass: 1
Flags: W
LayerCount: 2
Fore
SplineSet
168 1007 m 1,0,-1
 755 1007 l 1,1,2
 755 923 755 923 797 923 c 2,3,-1
 839 923 l 1,4,-1
 839 755 l 1,5,-1
 923 755 l 1,6,-1
 923 420 l 1,7,-1
 839 420 l 1,8,-1
 839 252 l 1,9,10
 755 252 755 252 755 210 c 2,11,-1
 755 168 l 1,12,-1
 587 168 l 1,13,-1
 587 84 l 1,14,-1
 671 84 l 1,15,-1
 671 0 l 1,16,-1
 252 0 l 1,17,-1
 252 84 l 1,18,-1
 336 84 l 1,19,-1
 336 168 l 1,20,-1
 168 168 l 1,21,22
 168 252 168 252 126 252 c 2,23,-1
 84 252 l 1,24,-1
 84 420 l 1,25,-1
 0 420 l 1,26,-1
 0 755 l 1,27,-1
 84 755 l 1,28,-1
 84 923 l 1,29,30
 168 923 168 923 168 965 c 2,31,-1
 168 1007 l 1,0,-1
252 923 m 1,32,-1
 252 755 l 1,33,-1
 168 755 l 1,34,-1
 168 420 l 1,35,-1
 252 420 l 1,36,-1
 252 252 l 1,37,-1
 336 252 l 1,38,-1
 336 923 l 1,39,-1
 252 923 l 1,32,-1
587 923 m 1,40,-1
 587 252 l 1,41,-1
 671 252 l 1,42,-1
 671 420 l 1,43,-1
 755 420 l 1,44,-1
 755 755 l 1,45,-1
 671 755 l 1,46,-1
 671 923 l 1,47,-1
 587 923 l 1,40,-1
EndSplineSet
EndChar

StartChar: uni0425
Encoding: 1061 1061 257
Width: 846
GlyphClass: 1
Flags: W
LayerCount: 2
Fore
SplineSet
0 1001 m 1,0,-1
 334 1001 l 1,1,-1
 334 917 l 1,2,-1
 250 917 l 1,3,-1
 250 834 l 1,4,-1
 279 793 l 1,5,-1
 334 667 l 1,6,7
 413 642 413 642 438 584 c 1,8,-1
 500 584 l 1,9,-1
 500 417 l 1,10,11
 567 380 567 380 605 334 c 1,12,-1
 667 334 l 1,13,-1
 667 167 l 1,14,15
 727 123 727 123 771 83 c 1,16,-1
 834 83 l 1,17,-1
 834 21 l 1,18,-1
 646 21 l 1,19,-1
 500 0 l 1,20,-1
 500 83 l 1,21,-1
 584 83 l 1,22,-1
 584 167 l 1,23,-1
 500 167 l 1,24,-1
 500 334 l 1,25,26
 410 334 410 334 396 417 c 1,27,-1
 334 417 l 1,28,-1
 334 584 l 1,29,30
 272 621 272 621 257 688 c 1,31,-1
 223 725 l 1,32,-1
 167 834 l 1,33,34
 135 880 135 880 63 917 c 1,35,-1
 0 917 l 1,36,-1
 0 1001 l 1,0,-1
584 1001 m 1,37,-1
 834 1001 l 1,38,-1
 834 917 l 1,39,40
 751 917 751 917 751 876 c 2,41,-1
 751 834 l 1,42,-1
 667 834 l 1,43,44
 667 917 667 917 626 917 c 2,45,-1
 584 917 l 1,46,-1
 584 1001 l 1,37,-1
584 834 m 1,47,-1
 667 834 l 1,48,-1
 667 751 l 1,49,-1
 584 751 l 1,50,-1
 584 834 l 1,47,-1
500 751 m 1,51,-1
 584 751 l 1,52,53
 563 636 563 636 563 584 c 1,54,-1
 500 584 l 1,55,-1
 500 751 l 1,51,-1
250 417 m 1,56,-1
 334 417 l 1,57,-1
 334 334 l 1,58,-1
 250 334 l 1,59,-1
 250 417 l 1,56,-1
167 334 m 1,60,-1
 250 334 l 1,61,62
 229 219 229 219 229 167 c 1,63,-1
 167 167 l 1,64,-1
 167 334 l 1,60,-1
83 167 m 1,65,-1
 167 167 l 1,66,67
 167 63 167 63 250 63 c 1,68,-1
 250 21 l 1,69,-1
 146 21 l 1,70,-1
 0 0 l 1,71,-1
 0 83 l 1,72,73
 83 83 83 83 83 125 c 2,74,-1
 83 167 l 1,65,-1
EndSplineSet
EndChar

StartChar: uni0426
Encoding: 1062 1062 258
Width: 936
GlyphClass: 1
Flags: W
LayerCount: 2
Fore
SplineSet
0 1010 m 1,0,-1
 337 1010 l 1,1,-1
 337 947 l 1,2,-1
 232 947 l 1,3,4
 253 737 253 737 253 631 c 2,5,-1
 253 84 l 1,6,-1
 589 84 l 1,7,-1
 589 926 l 1,8,-1
 505 926 l 1,9,-1
 505 1010 l 1,10,-1
 842 1010 l 1,11,-1
 842 926 l 1,12,-1
 758 926 l 1,13,-1
 758 84 l 1,14,-1
 926 84 l 1,15,-1
 926 0 l 1,16,-1
 84 0 l 1,17,-1
 84 926 l 1,18,-1
 0 926 l 1,19,-1
 0 1010 l 1,0,-1
EndSplineSet
EndChar

StartChar: uni0427
Encoding: 1063 1063 259
Width: 601
GlyphClass: 1
Flags: W
LayerCount: 2
Fore
SplineSet
0 1019 m 1,0,-1
 170 1019 l 1,1,-1
 170 425 l 1,2,-1
 425 425 l 1,3,-1
 425 1019 l 1,4,-1
 594 1019 l 1,5,-1
 594 0 l 1,6,-1
 425 0 l 1,7,-1
 425 340 l 1,8,-1
 0 340 l 1,9,-1
 0 1019 l 1,0,-1
EndSplineSet
EndChar

StartChar: uni0428
Encoding: 1064 1064 260
Width: 853
GlyphClass: 1
Flags: W
LayerCount: 2
Fore
SplineSet
0 1012 m 1,0,-1
 253 1012 l 1,1,-1
 253 84 l 1,2,-1
 337 84 l 1,3,-1
 337 1012 l 1,4,-1
 506 1012 l 1,5,-1
 506 84 l 1,6,-1
 590 84 l 1,7,-1
 590 1012 l 1,8,-1
 843 1012 l 1,9,-1
 843 928 l 1,10,-1
 759 928 l 1,11,-1
 759 84 l 1,12,-1
 843 84 l 1,13,-1
 843 0 l 1,14,-1
 0 0 l 1,15,-1
 0 84 l 1,16,-1
 84 84 l 1,17,-1
 84 928 l 1,18,-1
 0 928 l 1,19,-1
 0 1012 l 1,0,-1
EndSplineSet
EndChar

StartChar: uni0429
Encoding: 1065 1065 261
Width: 850
GlyphClass: 1
Flags: W
LayerCount: 2
Fore
SplineSet
0 1014 m 1,0,-1
 254 1014 l 1,1,-1
 254 85 l 1,2,-1
 338 85 l 1,3,-1
 338 1014 l 1,4,-1
 507 1014 l 1,5,-1
 507 85 l 1,6,-1
 592 85 l 1,7,-1
 592 1014 l 1,8,-1
 845 1014 l 1,9,-1
 845 930 l 1,10,-1
 761 930 l 1,11,-1
 761 85 l 1,12,-1
 845 85 l 1,13,-1
 845 0 l 1,14,-1
 0 0 l 1,15,-1
 0 85 l 1,16,-1
 85 85 l 1,17,-1
 85 930 l 1,18,-1
 0 930 l 1,19,-1
 0 1014 l 1,0,-1
EndSplineSet
EndChar

StartChar: uni042A
Encoding: 1066 1066 262
Width: 684
GlyphClass: 1
Flags: W
LayerCount: 2
Fore
SplineSet
0 1014 m 1,0,-1
 338 1014 l 1,1,-1
 338 951 l 1,2,-1
 232 951 l 1,3,-1
 232 570 l 1,4,-1
 423 570 l 1,5,-1
 423 507 l 1,6,-1
 254 507 l 1,7,-1
 254 85 l 1,8,-1
 423 85 l 1,9,-1
 423 21 l 1,10,-1
 169 0 l 1,11,-1
 0 0 l 1,12,-1
 0 85 l 1,13,-1
 85 85 l 1,14,-1
 85 930 l 1,15,-1
 0 930 l 1,16,-1
 0 1014 l 1,0,-1
423 507 m 1,17,18
 570 507 570 507 592 401 c 1,19,-1
 676 401 l 1,20,-1
 676 169 l 1,21,22
 592 169 592 169 592 127 c 2,23,-1
 592 85 l 1,24,-1
 423 85 l 1,25,-1
 423 169 l 1,26,-1
 507 169 l 1,27,-1
 507 423 l 1,28,-1
 423 423 l 1,29,-1
 423 507 l 1,17,18
EndSplineSet
EndChar

StartChar: uni042B
Encoding: 1067 1067 263
Width: 855
GlyphClass: 1
Flags: W
LayerCount: 2
Fore
SplineSet
0 1012 m 1,0,-1
 337 1012 l 1,1,-1
 337 927 l 1,2,-1
 253 927 l 1,3,-1
 253 590 l 1,4,-1
 337 590 l 1,5,-1
 337 506 l 1,6,-1
 253 506 l 1,7,-1
 253 84 l 1,8,-1
 337 84 l 1,9,-1
 337 21 l 1,10,-1
 148 21 l 1,11,-1
 0 0 l 1,12,-1
 0 84 l 1,13,-1
 84 84 l 1,14,-1
 84 927 l 1,15,-1
 0 927 l 1,16,-1
 0 1012 l 1,0,-1
506 1012 m 1,17,-1
 843 1012 l 1,18,-1
 843 927 l 1,19,-1
 759 927 l 1,20,-1
 759 84 l 1,21,-1
 843 84 l 1,22,-1
 843 0 l 1,23,-1
 506 0 l 1,24,-1
 506 84 l 1,25,-1
 590 84 l 1,26,-1
 590 927 l 1,27,-1
 506 927 l 1,28,-1
 506 1012 l 1,17,-1
337 506 m 1,29,-1
 506 506 l 1,30,-1
 506 84 l 1,31,-1
 337 84 l 1,32,-1
 337 169 l 1,33,-1
 422 169 l 1,34,-1
 422 422 l 1,35,-1
 337 422 l 1,36,-1
 337 506 l 1,29,-1
EndSplineSet
EndChar

StartChar: uni042C
Encoding: 1068 1068 264
Width: 679
GlyphClass: 1
Flags: W
LayerCount: 2
Fore
SplineSet
0 1007 m 1,0,-1
 336 1007 l 1,1,-1
 336 944 l 1,2,-1
 231 944 l 1,3,-1
 231 566 l 1,4,-1
 420 566 l 1,5,-1
 420 504 l 1,6,-1
 252 504 l 1,7,-1
 252 84 l 1,8,-1
 420 84 l 1,9,-1
 420 21 l 1,10,-1
 168 0 l 1,11,-1
 0 0 l 1,12,-1
 0 84 l 1,13,-1
 84 84 l 1,14,-1
 84 923 l 1,15,-1
 0 923 l 1,16,-1
 0 1007 l 1,0,-1
420 504 m 1,17,18
 566 504 566 504 587 399 c 1,19,-1
 671 399 l 1,20,-1
 671 168 l 1,21,22
 587 168 587 168 587 126 c 2,23,-1
 587 84 l 1,24,-1
 420 84 l 1,25,-1
 420 168 l 1,26,-1
 504 168 l 1,27,-1
 504 420 l 1,28,-1
 420 420 l 1,29,-1
 420 504 l 1,17,18
EndSplineSet
EndChar

StartChar: uni042D
Encoding: 1069 1069 265
Width: 940
GlyphClass: 1
Flags: W
LayerCount: 2
Fore
SplineSet
338 1013 m 1,0,-1
 591 1013 l 1,1,-1
 591 929 l 1,2,-1
 338 929 l 1,3,-1
 338 1013 l 1,0,-1
169 929 m 1,4,-1
 338 929 l 1,5,-1
 338 866 l 1,6,-1
 232 866 l 1,7,-1
 232 697 l 1,8,9
 148 697 148 697 148 655 c 2,10,-1
 148 591 l 1,11,-1
 0 591 l 1,12,-1
 0 676 l 1,13,-1
 84 676 l 1,14,-1
 84 845 l 1,15,16
 169 845 169 845 169 887 c 2,17,-1
 169 929 l 1,4,-1
591 929 m 1,18,-1
 760 929 l 1,19,20
 760 845 760 845 802 845 c 2,21,-1
 845 845 l 1,22,-1
 845 676 l 1,23,-1
 929 676 l 1,24,-1
 908 528 l 1,25,-1
 908 359 l 1,26,-1
 823 359 l 1,27,-1
 823 190 l 1,28,29
 732 190 732 190 718 106 c 1,30,31
 591 106 591 106 591 21 c 1,32,-1
 486 21 l 1,33,-1
 338 0 l 1,34,-1
 338 84 l 1,35,-1
 591 84 l 1,36,37
 591 169 591 169 633 169 c 2,38,-1
 676 169 l 1,39,-1
 676 338 l 1,40,-1
 760 338 l 1,41,-1
 760 422 l 1,42,-1
 422 422 l 1,43,-1
 422 591 l 1,44,-1
 760 591 l 1,45,-1
 760 676 l 1,46,-1
 676 676 l 1,47,-1
 676 845 l 1,48,-1
 591 845 l 1,49,-1
 591 929 l 1,18,-1
0 422 m 1,50,-1
 169 422 l 1,51,52
 169 338 169 338 211 338 c 2,53,-1
 253 338 l 1,54,-1
 253 169 l 1,55,-1
 338 169 l 1,56,-1
 338 84 l 1,57,-1
 169 84 l 1,58,59
 169 169 169 169 127 169 c 2,60,-1
 84 169 l 1,61,-1
 84 338 l 1,62,-1
 0 338 l 1,63,-1
 0 422 l 1,50,-1
EndSplineSet
EndChar

StartChar: uni042E
Encoding: 1070 1070 266
Width: 841
GlyphClass: 1
Flags: W
LayerCount: 2
Fore
SplineSet
0 1010 m 1,0,-1
 337 1010 l 1,1,-1
 337 926 l 1,2,-1
 253 926 l 1,3,-1
 253 589 l 1,4,-1
 337 589 l 1,5,-1
 337 842 l 1,6,7
 421 842 421 842 421 884 c 0,8,9
 421 931 421 931 505 947 c 1,10,-1
 505 1010 l 1,11,-1
 652 1010 l 1,12,13
 652 905 652 905 694 905 c 0,14,15
 742 905 742 905 758 821 c 1,16,-1
 821 821 l 1,17,-1
 821 189 l 1,18,19
 736 189 736 189 736 147 c 0,20,21
 736 100 736 100 652 84 c 1,22,-1
 652 21 l 1,23,-1
 526 21 l 1,24,25
 526 105 526 105 484 105 c 0,26,27
 437 105 437 105 421 189 c 1,28,-1
 337 189 l 1,29,-1
 337 421 l 1,30,-1
 253 421 l 1,31,-1
 253 84 l 1,32,-1
 316 84 l 1,33,-1
 316 0 l 1,34,-1
 0 0 l 1,35,-1
 0 84 l 1,36,-1
 84 84 l 1,37,-1
 84 926 l 1,38,-1
 0 926 l 1,39,-1
 0 1010 l 1,0,-1
505 842 m 1,40,-1
 505 168 l 1,41,-1
 673 168 l 1,42,-1
 673 842 l 1,43,-1
 505 842 l 1,40,-1
EndSplineSet
EndChar

StartChar: uni042F
Encoding: 1071 1071 267
Width: 931
GlyphClass: 1
Flags: W
LayerCount: 2
Fore
SplineSet
403 1017 m 1,0,-1
 926 1010 l 1,1,-1
 926 926 l 1,2,-1
 842 926 l 1,3,-1
 842 84 l 1,4,-1
 926 84 l 1,5,-1
 926 21 l 1,6,7
 592 0 592 0 526 0 c 1,8,-1
 505 42 l 1,9,-1
 505 84 l 1,10,-1
 652 63 l 1,11,-1
 695 63 l 1,12,-1
 695 442 l 1,13,-1
 568 442 l 1,14,15
 568 337 568 337 526 337 c 1,16,17
 498 253 498 253 421 232 c 1,18,19
 421 168 421 168 358 168 c 1,20,21
 329 84 329 84 253 63 c 1,22,-1
 253 21 l 1,23,-1
 147 21 l 1,24,-1
 0 0 l 1,25,-1
 0 84 l 1,26,27
 84 84 84 84 84 126 c 2,28,-1
 84 168 l 1,29,-1
 253 168 l 1,30,31
 253 253 253 253 295 253 c 0,32,33
 342 253 342 253 358 337 c 1,34,-1
 421 337 l 1,35,-1
 421 505 l 1,36,-1
 442 505 l 1,37,38
 660 484 660 484 695 484 c 1,39,-1
 693 926 l 1,40,-1
 394 912 l 1,41,-1
 403 1017 l 1,0,-1
253 926 m 1,42,-1
 400 940 l 1,43,-1
 400 842 l 1,44,-1
 337 842 l 1,45,-1
 337 589 l 1,46,-1
 421 589 l 1,47,-1
 421 505 l 1,48,49
 274 505 274 505 274 589 c 0,50,51
 274 610 274 610 189 610 c 1,52,-1
 189 695 l 1,53,-1
 168 842 l 1,54,55
 253 842 253 842 253 884 c 2,56,-1
 253 926 l 1,42,-1
EndSplineSet
EndChar

StartChar: uni0430
Encoding: 1072 1072 268
Width: 755
GlyphClass: 1
Flags: W
LayerCount: 2
Fore
SplineSet
126 820 m 1,0,-1
 536 820 l 1,1,2
 536 718 536 718 587 718 c 1,3,-1
 610 714 l 1,4,-1
 612 410 l 1,5,-1
 612 77 l 1,6,-1
 741 77 l 1,7,-1
 741 0 l 1,8,-1
 536 0 l 1,9,-1
 536 103 l 1,10,-1
 331 103 l 1,11,-1
 331 205 l 1,12,-1
 433 205 l 1,13,-1
 433 410 l 1,14,-1
 331 410 l 1,15,-1
 331 461 l 1,16,17
 459 537 459 537 459 692 c 2,18,-1
 459 743 l 1,19,-1
 202 743 l 1,20,21
 202 641 202 641 151 641 c 256,22,23
 100 641 100 641 100 513 c 1,24,-1
 23 513 l 1,25,-1
 23 718 l 1,26,27
 126 718 126 718 126 769 c 2,28,-1
 126 820 l 1,0,-1
331 410 m 1,29,-1
 331 308 l 1,30,-1
 228 308 l 1,31,-1
 228 103 l 1,32,-1
 331 103 l 1,33,-1
 331 0 l 1,34,-1
 126 0 l 1,35,36
 126 103 126 103 74 103 c 2,37,-1
 23 103 l 1,38,-1
 23 308 l 1,39,40
 126 308 126 308 151 384 c 1,41,-1
 331 410 l 1,29,-1
EndSplineSet
EndChar

StartChar: uni0431
Encoding: 1073 1073 269
Width: 545
GlyphClass: 1
Flags: W
LayerCount: 2
Fore
SplineSet
133 799 m 1,0,-1
 533 799 l 1,1,-1
 533 732 l 1,2,3
 466 732 466 732 466 699 c 2,4,-1
 466 666 l 1,5,-1
 200 666 l 1,6,-1
 200 599 l 1,7,-1
 333 599 l 1,8,9
 333 527 333 527 400 516 c 1,10,11
 400 466 400 466 449 466 c 1,12,13
 461 400 461 400 533 400 c 1,14,-1
 533 133 l 1,15,16
 466 133 466 133 466 100 c 0,17,18
 466 62 466 62 400 50 c 1,19,-1
 400 0 l 1,20,-1
 133 0 l 1,21,22
 133 67 133 67 100 67 c 0,23,24
 62 67 62 67 50 133 c 1,25,-1
 0 133 l 1,26,-1
 0 533 l 1,27,-1
 67 533 l 1,28,-1
 67 666 l 1,29,-1
 133 666 l 1,30,-1
 133 799 l 1,0,-1
266 466 m 1,31,-1
 266 400 l 1,32,-1
 133 400 l 1,33,-1
 133 133 l 1,34,35
 200 133 200 133 200 100 c 2,36,-1
 200 67 l 1,37,-1
 333 67 l 1,38,39
 333 133 333 133 366 133 c 2,40,-1
 400 133 l 1,41,-1
 400 400 l 1,42,43
 333 400 333 400 333 433 c 2,44,-1
 333 466 l 1,45,-1
 266 466 l 1,31,-1
EndSplineSet
EndChar

StartChar: uni0432
Encoding: 1074 1074 270
Width: 679
GlyphClass: 1
Flags: W
LayerCount: 2
Fore
SplineSet
0 797 m 1,0,-1
 465 797 l 1,1,-1
 465 731 l 1,2,-1
 199 731 l 1,3,-1
 199 465 l 1,4,-1
 465 465 l 1,5,6
 465 531 465 531 498 531 c 2,7,-1
 531 531 l 1,8,-1
 531 664 l 1,9,-1
 465 664 l 1,10,-1
 465 731 l 1,11,-1
 598 731 l 1,12,13
 598 664 598 664 631 664 c 2,14,-1
 664 664 l 1,15,-1
 664 531 l 1,16,17
 593 531 593 531 581 465 c 1,18,-1
 531 465 l 1,19,-1
 531 399 l 1,20,21
 603 399 603 399 614 332 c 1,22,-1
 664 332 l 1,23,-1
 664 249 l 2,24,25
 664 232 664 232 648 232 c 1,26,-1
 664 199 l 1,27,-1
 664 133 l 1,28,29
 598 133 598 133 598 100 c 2,30,-1
 598 66 l 1,31,-1
 465 66 l 1,32,-1
 465 133 l 1,33,-1
 531 133 l 1,34,-1
 531 332 l 1,35,36
 465 332 465 332 465 365 c 2,37,-1
 465 399 l 1,38,-1
 199 399 l 1,39,-1
 199 66 l 1,40,-1
 465 66 l 1,41,-1
 465 0 l 1,42,-1
 0 0 l 1,43,-1
 0 66 l 1,44,-1
 66 66 l 1,45,-1
 66 731 l 1,46,-1
 0 731 l 1,47,-1
 0 797 l 1,0,-1
EndSplineSet
EndChar

StartChar: uni0433
Encoding: 1075 1075 271
Width: 672
GlyphClass: 1
Flags: W
LayerCount: 2
Fore
SplineSet
0 799 m 1,0,-1
 666 799 l 1,1,-1
 666 732 l 1,2,-1
 133 732 l 1,3,-1
 133 0 l 1,4,-1
 0 0 l 1,5,-1
 0 799 l 1,0,-1
EndSplineSet
EndChar

StartChar: uni0434
Encoding: 1076 1076 272
Width: 666
GlyphClass: 1
Flags: W
LayerCount: 2
Fore
SplineSet
330 792 m 1,0,-1
 594 792 l 1,1,-1
 594 66 l 1,2,-1
 660 66 l 1,3,-1
 660 0 l 1,4,-1
 0 0 l 1,5,-1
 0 66 l 1,6,-1
 66 66 l 1,7,-1
 66 528 l 1,8,-1
 132 528 l 1,9,-1
 132 660 l 1,10,11
 198 660 198 660 198 693 c 2,12,-1
 198 726 l 1,13,-1
 330 726 l 1,14,-1
 330 660 l 1,15,-1
 264 660 l 1,16,-1
 264 528 l 1,17,-1
 198 528 l 1,18,-1
 198 66 l 1,19,-1
 462 66 l 1,20,-1
 462 726 l 1,21,-1
 330 726 l 1,22,-1
 330 792 l 1,0,-1
EndSplineSet
EndChar

StartChar: uni0435
Encoding: 1077 1077 273
Width: 708
GlyphClass: 1
Flags: W
LayerCount: 2
Fore
SplineSet
202 806 m 1,0,-1
 504 806 l 1,1,-1
 504 756 l 2,2,3
 504 705 504 705 453 705 c 2,4,-1
 202 705 l 1,5,-1
 202 806 l 1,0,-1
101 705 m 1,6,-1
 202 705 l 1,7,-1
 202 504 l 1,8,-1
 504 504 l 1,9,-1
 504 655 l 1,10,11
 512 705 512 705 554 705 c 2,12,-1
 605 705 l 1,13,14
 605 605 605 605 655 605 c 2,15,-1
 705 605 l 1,16,-1
 705 403 l 1,17,-1
 202 403 l 1,18,-1
 202 302 l 1,19,20
 302 302 302 302 302 252 c 2,21,-1
 302 202 l 1,22,-1
 605 202 l 1,23,-1
 605 101 l 1,24,25
 504 101 504 101 504 50 c 2,26,-1
 504 0 l 1,27,-1
 202 0 l 1,28,29
 202 101 202 101 151 101 c 0,30,31
 94 101 94 101 76 202 c 1,32,-1
 0 202 l 1,33,-1
 0 605 l 1,34,35
 101 605 101 605 101 655 c 2,36,-1
 101 705 l 1,6,-1
605 302 m 1,37,-1
 705 302 l 1,38,-1
 705 202 l 1,39,-1
 605 202 l 1,40,-1
 605 302 l 1,37,-1
EndSplineSet
EndChar

StartChar: uni0436
Encoding: 1078 1078 274
Width: 742
GlyphClass: 1
Flags: W
LayerCount: 2
Fore
SplineSet
0 801 m 1,0,-1
 200 801 l 1,1,-1
 200 534 l 1,2,-1
 133 534 l 1,3,-1
 133 667 l 1,4,5
 62 667 62 667 50 734 c 1,6,-1
 0 734 l 1,7,-1
 0 801 l 1,0,-1
267 801 m 1,8,-1
 400 801 l 1,9,-1
 400 467 l 1,10,-1
 467 467 l 1,11,-1
 450 350 l 1,12,-1
 450 317 l 1,13,14
 539 317 539 317 551 267 c 1,15,-1
 601 267 l 1,16,-1
 601 133 l 1,17,18
 672 133 672 133 684 67 c 1,19,-1
 734 67 l 1,20,-1
 734 0 l 1,21,-1
 534 0 l 1,22,-1
 534 133 l 1,23,-1
 467 133 l 1,24,-1
 467 267 l 1,25,-1
 400 267 l 1,26,-1
 400 0 l 1,27,-1
 267 0 l 1,28,-1
 267 267 l 1,29,-1
 200 267 l 1,30,-1
 200 334 l 1,31,-1
 267 334 l 1,32,-1
 267 467 l 1,33,-1
 200 467 l 1,34,-1
 200 534 l 1,35,-1
 267 534 l 1,36,-1
 267 801 l 1,8,-1
534 801 m 1,37,-1
 734 801 l 1,38,-1
 734 751 l 1,39,40
 651 751 651 751 651 717 c 2,41,-1
 651 667 l 1,42,-1
 601 667 l 1,43,44
 601 734 601 734 567 734 c 2,45,-1
 534 734 l 1,46,-1
 534 801 l 1,37,-1
534 667 m 1,47,-1
 601 667 l 1,48,-1
 601 634 l 2,49,50
 601 601 601 601 567 601 c 2,51,-1
 534 601 l 1,52,-1
 534 667 l 1,47,-1
467 601 m 1,53,-1
 534 601 l 1,54,55
 517 509 517 509 517 467 c 1,56,-1
 467 467 l 1,57,-1
 467 601 l 1,53,-1
133 267 m 1,58,-1
 200 267 l 1,59,-1
 200 133 l 1,60,-1
 133 133 l 1,61,-1
 133 267 l 1,58,-1
67 133 m 1,62,-1
 133 133 l 1,63,64
 133 67 133 67 167 67 c 2,65,-1
 200 67 l 1,66,-1
 200 0 l 1,67,-1
 0 0 l 1,68,-1
 0 67 l 1,69,70
 67 67 67 67 67 100 c 2,71,-1
 67 133 l 1,62,-1
EndSplineSet
EndChar

StartChar: uni0437
Encoding: 1079 1079 275
Width: 536
GlyphClass: 1
Flags: W
LayerCount: 2
Fore
SplineSet
133 800 m 1,0,-1
 400 800 l 1,1,2
 400 733 400 733 433 733 c 2,3,-1
 467 733 l 1,4,-1
 467 533 l 1,5,-1
 400 533 l 1,6,-1
 400 467 l 1,7,8
 472 467 472 467 483 400 c 1,9,-1
 533 400 l 1,10,-1
 533 133 l 1,11,12
 467 133 467 133 467 100 c 0,13,14
 467 63 467 63 400 50 c 1,15,-1
 400 0 l 1,16,-1
 67 0 l 1,17,18
 67 67 67 67 33 67 c 2,19,-1
 0 67 l 1,20,-1
 0 200 l 1,21,-1
 133 200 l 1,22,23
 133 128 133 128 200 117 c 1,24,-1
 200 67 l 1,25,-1
 333 67 l 1,26,27
 333 133 333 133 367 133 c 2,28,-1
 400 133 l 1,29,-1
 400 333 l 1,30,31
 333 333 333 333 333 367 c 2,32,-1
 333 400 l 1,33,-1
 200 400 l 1,34,-1
 200 467 l 1,35,36
 272 467 272 467 283 533 c 1,37,-1
 333 533 l 1,38,-1
 333 667 l 1,39,40
 267 667 267 667 267 700 c 2,41,-1
 267 733 l 1,42,-1
 133 733 l 1,43,-1
 133 800 l 1,0,-1
67 733 m 1,44,-1
 133 733 l 1,45,-1
 133 667 l 1,46,-1
 67 667 l 1,47,-1
 67 733 l 1,44,-1
0 667 m 1,48,-1
 67 667 l 1,49,-1
 67 600 l 1,50,-1
 0 600 l 1,51,-1
 0 667 l 1,48,-1
EndSplineSet
EndChar

StartChar: uni0438
Encoding: 1080 1080 276
Width: 740
GlyphClass: 1
Flags: W
LayerCount: 2
Fore
SplineSet
0 802 m 1,0,-1
 201 802 l 1,1,-1
 201 735 l 1,2,-1
 134 735 l 1,3,-1
 134 267 l 1,4,-1
 201 267 l 1,5,6
 201 334 201 334 234 334 c 2,7,-1
 267 334 l 1,8,-1
 267 468 l 1,9,10
 334 468 334 468 334 501 c 0,11,12
 334 539 334 539 401 551 c 1,13,14
 401 602 401 602 451 602 c 2,15,-1
 468 602 l 1,16,-1
 468 735 l 1,17,18
 535 735 535 735 535 769 c 2,19,-1
 535 802 l 1,20,-1
 735 802 l 1,21,-1
 735 735 l 1,22,-1
 668 735 l 1,23,-1
 668 67 l 1,24,-1
 735 67 l 1,25,-1
 735 0 l 1,26,-1
 535 0 l 1,27,-1
 535 67 l 1,28,-1
 602 67 l 1,29,-1
 602 602 l 1,30,-1
 535 602 l 1,31,32
 535 535 535 535 501 535 c 2,33,-1
 468 535 l 1,34,-1
 468 401 l 1,35,36
 401 401 401 401 401 368 c 0,37,38
 401 330 401 330 334 317 c 1,39,40
 334 267 334 267 284 267 c 2,41,-1
 267 267 l 1,42,-1
 267 134 l 1,43,44
 201 134 201 134 201 100 c 0,45,46
 201 63 201 63 134 50 c 1,47,-1
 134 0 l 1,48,-1
 67 0 l 1,49,-1
 67 735 l 1,50,-1
 0 735 l 1,51,-1
 0 802 l 1,0,-1
EndSplineSet
EndChar

StartChar: uni0439
Encoding: 1081 1081 277
Width: 736
GlyphClass: 1
Flags: W
LayerCount: 2
Fore
SplineSet
0 800 m 1,0,-1
 200 800 l 1,1,-1
 200 733 l 1,2,-1
 133 733 l 1,3,-1
 133 267 l 1,4,-1
 200 267 l 1,5,6
 200 333 200 333 233 333 c 2,7,-1
 267 333 l 1,8,-1
 267 467 l 1,9,10
 333 467 333 467 333 500 c 0,11,12
 333 538 333 538 400 550 c 1,13,14
 400 600 400 600 450 600 c 2,15,-1
 467 600 l 1,16,-1
 467 733 l 1,17,18
 533 733 533 733 533 767 c 2,19,-1
 533 800 l 1,20,-1
 733 800 l 1,21,-1
 733 733 l 1,22,-1
 667 733 l 1,23,-1
 667 67 l 1,24,-1
 733 67 l 1,25,-1
 733 0 l 1,26,-1
 533 0 l 1,27,-1
 533 67 l 1,28,-1
 600 67 l 1,29,-1
 600 600 l 1,30,-1
 533 600 l 1,31,32
 533 533 533 533 500 533 c 2,33,-1
 467 533 l 1,34,-1
 467 400 l 1,35,36
 400 400 400 400 400 367 c 0,37,38
 400 329 400 329 333 317 c 1,39,40
 333 267 333 267 283 267 c 2,41,-1
 267 267 l 1,42,-1
 267 133 l 1,43,44
 200 133 200 133 200 100 c 0,45,46
 200 63 200 63 133 50 c 1,47,-1
 133 0 l 1,48,-1
 67 0 l 1,49,-1
 67 733 l 1,50,-1
 0 733 l 1,51,-1
 0 800 l 1,0,-1
EndSplineSet
EndChar

StartChar: uni043A
Encoding: 1082 1082 278
Width: 736
GlyphClass: 1
Flags: W
LayerCount: 2
Fore
SplineSet
0 798 m 1,0,-1
 266 798 l 1,1,-1
 266 732 l 1,2,-1
 200 732 l 1,3,-1
 200 466 l 1,4,5
 271 466 271 466 283 399 c 1,6,7
 333 399 333 399 333 349 c 1,8,9
 399 327 399 327 416 266 c 1,10,11
 470 266 470 266 482 200 c 1,12,13
 532 200 532 200 532 150 c 1,14,15
 599 138 599 138 599 67 c 1,16,-1
 732 67 l 1,17,-1
 732 17 l 1,18,19
 485 0 485 0 399 0 c 1,20,-1
 399 67 l 1,21,-1
 466 67 l 1,22,-1
 466 133 l 1,23,24
 394 133 394 133 382 200 c 1,25,26
 333 200 333 200 333 249 c 1,27,28
 266 261 266 261 266 333 c 1,29,-1
 200 333 l 1,30,-1
 200 67 l 1,31,-1
 266 67 l 1,32,-1
 266 0 l 1,33,-1
 0 0 l 1,34,-1
 0 67 l 1,35,-1
 67 67 l 1,36,-1
 67 732 l 1,37,-1
 0 732 l 1,38,-1
 0 798 l 1,0,-1
399 798 m 1,39,-1
 665 798 l 1,40,-1
 665 732 l 1,41,-1
 532 732 l 1,42,-1
 532 665 l 1,43,-1
 466 665 l 1,44,45
 466 732 466 732 432 732 c 2,46,-1
 399 732 l 1,47,-1
 399 798 l 1,39,-1
399 665 m 1,48,-1
 466 665 l 1,49,-1
 466 599 l 1,50,-1
 399 599 l 1,51,-1
 399 665 l 1,48,-1
333 599 m 1,52,-1
 399 599 l 1,53,-1
 399 532 l 1,54,-1
 333 532 l 1,55,-1
 333 599 l 1,52,-1
266 532 m 1,56,-1
 333 532 l 1,57,-1
 333 466 l 1,58,-1
 266 466 l 1,59,-1
 266 532 l 1,56,-1
EndSplineSet
EndChar

StartChar: uni043B
Encoding: 1083 1083 279
Width: 668
GlyphClass: 1
Flags: W
LayerCount: 2
Fore
SplineSet
67 798 m 1,0,-1
 665 798 l 1,1,-1
 665 732 l 1,2,-1
 599 732 l 1,3,-1
 599 67 l 1,4,-1
 665 67 l 1,5,-1
 665 0 l 1,6,-1
 399 0 l 1,7,-1
 399 67 l 1,8,-1
 466 67 l 1,9,-1
 466 732 l 1,10,-1
 266 732 l 1,11,-1
 266 715 l 2,12,13
 266 600 266 600 249 283 c 1,14,15
 266 141 266 141 266 67 c 1,16,17
 200 67 200 67 200 33 c 2,18,-1
 200 0 l 1,19,-1
 0 0 l 1,20,-1
 0 67 l 1,21,-1
 133 67 l 1,22,-1
 133 732 l 1,23,-1
 67 732 l 1,24,-1
 67 798 l 1,0,-1
EndSplineSet
EndChar

StartChar: uni043C
Encoding: 1084 1084 280
Width: 734
GlyphClass: 1
Flags: W
LayerCount: 2
Fore
SplineSet
0 800 m 1,0,-1
 200 800 l 1,1,-1
 200 600 l 1,2,-1
 267 600 l 1,3,-1
 267 333 l 1,4,-1
 333 333 l 1,5,6
 333 400 333 400 367 400 c 2,7,-1
 400 400 l 1,8,-1
 400 600 l 1,9,-1
 467 600 l 1,10,-1
 467 733 l 1,11,12
 533 733 533 733 533 767 c 2,13,-1
 533 800 l 1,14,-1
 733 800 l 1,15,-1
 733 733 l 1,16,-1
 667 733 l 1,17,-1
 667 67 l 1,18,-1
 733 67 l 1,19,-1
 733 17 l 1,20,-1
 717 17 l 2,21,22
 676 17 676 17 467 0 c 1,23,-1
 467 67 l 1,24,-1
 533 67 l 1,25,-1
 533 467 l 1,26,-1
 467 467 l 1,27,-1
 467 200 l 1,28,-1
 400 200 l 1,29,-1
 400 0 l 1,30,-1
 333 0 l 1,31,-1
 333 133 l 1,32,-1
 267 133 l 1,33,-1
 267 267 l 1,34,-1
 200 267 l 1,35,-1
 200 467 l 1,36,-1
 133 467 l 1,37,-1
 133 67 l 1,38,-1
 200 67 l 1,39,-1
 200 0 l 1,40,-1
 0 0 l 1,41,-1
 0 67 l 1,42,-1
 67 67 l 1,43,-1
 67 733 l 1,44,-1
 0 733 l 1,45,-1
 0 800 l 1,0,-1
EndSplineSet
EndChar

StartChar: uni043D
Encoding: 1085 1085 281
Width: 738
GlyphClass: 1
Flags: W
LayerCount: 2
Fore
SplineSet
0 796 m 1,0,-1
 265 796 l 1,1,-1
 265 730 l 1,2,-1
 199 730 l 1,3,-1
 199 464 l 1,4,-1
 531 464 l 1,5,-1
 531 730 l 1,6,-1
 464 730 l 1,7,-1
 464 796 l 1,8,-1
 730 796 l 1,9,-1
 730 730 l 1,10,-1
 663 730 l 1,11,-1
 663 398 l 2,12,13
 663 329 663 329 647 216 c 1,14,15
 663 199 663 199 663 83 c 2,16,-1
 663 66 l 1,17,-1
 730 66 l 1,18,-1
 730 0 l 1,19,20
 717 0 717 0 630 17 c 1,21,-1
 464 0 l 1,22,-1
 464 66 l 1,23,-1
 531 66 l 1,24,-1
 531 398 l 1,25,-1
 199 398 l 1,26,27
 182 174 182 174 182 66 c 2,28,-1
 182 50 l 1,29,-1
 265 50 l 1,30,-1
 265 17 l 1,31,-1
 116 17 l 1,32,-1
 0 0 l 1,33,-1
 0 66 l 1,34,-1
 66 66 l 1,35,-1
 66 730 l 1,36,-1
 0 730 l 1,37,-1
 0 796 l 1,0,-1
EndSplineSet
EndChar

StartChar: uni043E
Encoding: 1086 1086 282
Width: 796
GlyphClass: 1
Flags: W
LayerCount: 2
Fore
SplineSet
199 796 m 1,0,-1
 597 796 l 1,1,2
 597 697 597 697 647 697 c 0,3,4
 703 697 703 697 721 597 c 1,5,-1
 796 597 l 1,6,-1
 796 199 l 1,7,8
 697 199 697 199 697 149 c 0,9,10
 697 93 697 93 597 75 c 1,11,-1
 597 0 l 1,12,-1
 199 0 l 1,13,14
 199 100 199 100 149 100 c 0,15,16
 93 100 93 100 75 199 c 1,17,-1
 0 199 l 1,18,-1
 0 597 l 1,19,20
 100 597 100 597 100 647 c 0,21,22
 100 703 100 703 199 721 c 1,23,-1
 199 796 l 1,0,-1
299 697 m 1,24,25
 299 597 299 597 249 597 c 2,26,-1
 199 597 l 1,27,-1
 199 199 l 1,28,29
 299 199 299 199 299 149 c 2,30,-1
 299 100 l 1,31,-1
 498 100 l 1,32,33
 498 199 498 199 547 199 c 2,34,-1
 597 199 l 1,35,-1
 597 597 l 1,36,37
 498 597 498 597 498 647 c 2,38,-1
 498 697 l 1,39,-1
 299 697 l 1,24,25
EndSplineSet
EndChar

StartChar: uni043F
Encoding: 1087 1087 283
Width: 464
GlyphClass: 1
Flags: W
LayerCount: 2
Fore
SplineSet
0 798 m 1,0,-1
 466 798 l 1,1,-1
 466 0 l 1,2,-1
 333 0 l 1,3,-1
 333 732 l 1,4,-1
 133 732 l 1,5,-1
 133 0 l 1,6,-1
 0 0 l 1,7,-1
 0 798 l 1,0,-1
EndSplineSet
EndChar

StartChar: uni0440
Encoding: 1088 1088 284
Width: 590
GlyphClass: 1
Flags: W
LayerCount: 2
Fore
SplineSet
146 804 m 1,0,-1
 219 804 l 1,1,2
 219 731 219 731 256 731 c 2,3,-1
 292 731 l 1,4,-1
 292 658 l 1,5,-1
 219 658 l 1,6,-1
 219 365 l 1,7,-1
 365 365 l 1,8,9
 365 439 365 439 402 439 c 2,10,-1
 439 439 l 1,11,-1
 439 731 l 1,12,-1
 512 731 l 1,13,14
 512 658 512 658 548 658 c 2,15,-1
 585 658 l 1,16,-1
 585 365 l 1,17,18
 512 365 512 365 512 329 c 0,19,20
 512 288 512 288 439 274 c 1,21,-1
 439 219 l 1,22,-1
 292 219 l 1,23,-1
 292 292 l 1,24,-1
 219 292 l 1,25,-1
 219 73 l 1,26,-1
 292 73 l 1,27,-1
 292 0 l 1,28,-1
 0 0 l 1,29,-1
 0 73 l 1,30,-1
 73 73 l 1,31,-1
 73 658 l 1,32,-1
 0 658 l 1,33,-1
 0 731 l 1,34,-1
 146 731 l 1,35,-1
 146 804 l 1,0,-1
292 804 m 1,36,-1
 439 804 l 1,37,-1
 439 731 l 1,38,-1
 292 731 l 1,39,-1
 292 804 l 1,36,-1
EndSplineSet
EndChar

StartChar: uni0441
Encoding: 1089 1089 285
Width: 706
GlyphClass: 1
Flags: W
LayerCount: 2
Fore
SplineSet
199 796 m 1,0,-1
 597 796 l 1,1,2
 597 697 597 697 647 697 c 2,3,-1
 697 697 l 1,4,-1
 697 498 l 1,5,-1
 498 498 l 1,6,-1
 498 697 l 1,7,-1
 299 697 l 1,8,9
 299 597 299 597 249 597 c 2,10,-1
 199 597 l 1,11,-1
 199 199 l 1,12,13
 299 199 299 199 299 149 c 2,14,-1
 299 100 l 1,15,-1
 498 100 l 1,16,17
 498 207 498 207 597 224 c 1,18,-1
 597 299 l 1,19,-1
 697 299 l 1,20,-1
 697 100 l 1,21,22
 597 100 597 100 597 50 c 2,23,-1
 597 0 l 1,24,-1
 199 0 l 1,25,26
 199 100 199 100 149 100 c 0,27,28
 93 100 93 100 75 199 c 1,29,-1
 0 199 l 1,30,-1
 0 597 l 1,31,32
 100 597 100 597 100 647 c 0,33,34
 100 703 100 703 199 721 c 1,35,-1
 199 796 l 1,0,-1
EndSplineSet
EndChar

StartChar: uni0442
Encoding: 1090 1090 286
Width: 1110
GlyphClass: 1
Flags: W
LayerCount: 2
Fore
SplineSet
100 801 m 1,0,-1
 200 801 l 1,1,2
 200 701 200 701 250 701 c 2,3,-1
 301 701 l 1,4,-1
 301 601 l 1,5,-1
 200 601 l 1,6,-1
 200 100 l 1,7,-1
 301 100 l 1,8,-1
 301 0 l 1,9,-1
 0 0 l 1,10,-1
 0 100 l 1,11,-1
 100 100 l 1,12,-1
 100 601 l 1,13,-1
 0 601 l 1,14,-1
 0 701 l 1,15,16
 100 701 100 701 100 751 c 2,17,-1
 100 801 l 1,0,-1
301 801 m 1,18,-1
 501 801 l 1,19,-1
 501 701 l 1,20,-1
 301 701 l 1,21,-1
 301 801 l 1,18,-1
701 801 m 1,22,-1
 1002 801 l 1,23,24
 1002 701 1002 701 1052 701 c 2,25,-1
 1102 701 l 1,26,-1
 1102 0 l 1,27,-1
 801 0 l 1,28,-1
 801 100 l 1,29,-1
 902 100 l 1,30,-1
 902 701 l 1,31,-1
 701 701 l 1,32,-1
 701 801 l 1,22,-1
501 701 m 1,33,-1
 701 701 l 1,34,-1
 701 601 l 1,35,-1
 601 601 l 1,36,-1
 601 100 l 1,37,-1
 701 100 l 1,38,-1
 701 0 l 1,39,-1
 401 0 l 1,40,-1
 401 100 l 1,41,-1
 501 100 l 1,42,-1
 501 701 l 1,33,-1
EndSplineSet
EndChar

StartChar: uni0443
Encoding: 1091 1091 287
Width: 680
GlyphClass: 1
Flags: W
LayerCount: 2
Fore
SplineSet
0 804 m 1,0,-1
 270 804 l 1,1,-1
 270 736 l 1,2,-1
 202 736 l 1,3,-1
 202 399 l 1,4,-1
 472 399 l 1,5,-1
 489 517 l 1,6,-1
 489 753 l 1,7,-1
 405 753 l 1,8,-1
 405 804 l 1,9,-1
 675 804 l 1,10,-1
 675 770 l 2,11,12
 675 736 675 736 607 736 c 1,13,-1
 607 129 l 1,14,15
 540 129 540 129 540 95 c 0,16,17
 540 57 540 57 472 45 c 1,18,-1
 472 11 l 1,19,-1
 304 11 l 1,20,-1
 219 -6 l 1,21,22
 219 78 219 78 186 78 c 0,23,24
 148 78 148 78 135 146 c 1,25,-1
 84 146 l 1,26,-1
 84 196 l 1,27,-1
 202 196 l 1,28,29
 202 124 202 124 270 112 c 1,30,-1
 270 61 l 1,31,-1
 337 61 l 1,32,33
 337 129 337 129 371 129 c 1,34,-1
 439 180 l 1,35,-1
 489 180 l 1,36,-1
 489 348 l 1,37,38
 321 331 321 331 236 331 c 2,39,-1
 135 331 l 1,40,41
 135 399 135 399 101 399 c 2,42,-1
 84 399 l 1,43,-1
 84 753 l 1,44,-1
 0 753 l 1,45,-1
 0 804 l 1,0,-1
EndSplineSet
EndChar

StartChar: uni0444
Encoding: 1092 1092 288
Width: 732
GlyphClass: 1
Flags: W
LayerCount: 2
Fore
SplineSet
133 798 m 1,0,-1
 599 798 l 1,1,2
 599 732 599 732 632 732 c 2,3,-1
 665 732 l 1,4,-1
 665 599 l 1,5,-1
 732 599 l 1,6,-1
 732 333 l 1,7,-1
 665 333 l 1,8,-1
 665 200 l 1,9,10
 599 200 599 200 599 166 c 2,11,-1
 599 133 l 1,12,-1
 466 133 l 1,13,-1
 466 67 l 1,14,-1
 532 67 l 1,15,-1
 532 0 l 1,16,-1
 200 0 l 1,17,-1
 200 67 l 1,18,-1
 266 67 l 1,19,-1
 266 133 l 1,20,-1
 133 133 l 1,21,22
 133 200 133 200 100 200 c 2,23,-1
 67 200 l 1,24,-1
 67 333 l 1,25,-1
 0 333 l 1,26,-1
 0 599 l 1,27,-1
 67 599 l 1,28,-1
 67 732 l 1,29,30
 133 732 133 732 133 765 c 2,31,-1
 133 798 l 1,0,-1
200 732 m 1,32,-1
 200 599 l 1,33,-1
 133 599 l 1,34,-1
 133 333 l 1,35,-1
 200 333 l 1,36,-1
 200 200 l 1,37,-1
 266 200 l 1,38,-1
 266 732 l 1,39,-1
 200 732 l 1,32,-1
466 732 m 1,40,-1
 466 200 l 1,41,-1
 532 200 l 1,42,-1
 532 333 l 1,43,-1
 599 333 l 1,44,-1
 599 599 l 1,45,-1
 532 599 l 1,46,-1
 532 732 l 1,47,-1
 466 732 l 1,40,-1
EndSplineSet
EndChar

StartChar: uni0445
Encoding: 1093 1093 289
Width: 804
GlyphClass: 1
Flags: W
LayerCount: 2
Fore
SplineSet
0 796 m 1,0,-1
 398 796 l 1,1,-1
 398 697 l 1,2,-1
 299 697 l 1,3,-1
 299 597 l 1,4,5
 406 597 406 597 423 498 c 1,6,-1
 498 498 l 1,7,-1
 498 299 l 1,8,9
 597 299 597 299 597 249 c 0,10,11
 597 193 597 193 697 174 c 1,12,13
 697 100 697 100 771 100 c 2,14,-1
 796 100 l 1,15,-1
 796 0 l 1,16,-1
 398 0 l 1,17,-1
 398 100 l 1,18,-1
 498 100 l 1,19,-1
 498 199 l 1,20,21
 390 199 390 199 373 299 c 1,22,-1
 299 299 l 1,23,-1
 299 498 l 1,24,25
 199 498 199 498 199 547 c 0,26,27
 199 603 199 603 100 622 c 1,28,29
 100 697 100 697 25 697 c 2,30,-1
 0 697 l 1,31,-1
 0 796 l 1,0,-1
498 796 m 1,32,-1
 796 796 l 1,33,-1
 796 697 l 1,34,35
 697 697 697 697 697 647 c 2,36,-1
 697 597 l 1,37,-1
 597 597 l 1,38,39
 597 697 597 697 547 697 c 2,40,-1
 498 697 l 1,41,-1
 498 796 l 1,32,-1
498 597 m 1,42,-1
 597 597 l 1,43,-1
 597 498 l 1,44,-1
 498 498 l 1,45,-1
 498 597 l 1,42,-1
199 299 m 1,46,-1
 299 299 l 1,47,-1
 299 199 l 1,48,-1
 199 199 l 1,49,-1
 199 299 l 1,46,-1
100 199 m 1,50,-1
 199 199 l 1,51,52
 199 100 199 100 249 100 c 2,53,-1
 299 100 l 1,54,-1
 299 0 l 1,55,-1
 0 0 l 1,56,-1
 0 100 l 1,57,58
 100 100 100 100 100 149 c 2,59,-1
 100 199 l 1,50,-1
EndSplineSet
EndChar

StartChar: uni0446
Encoding: 1094 1094 290
Width: 740
GlyphClass: 1
Flags: W
LayerCount: 2
Fore
SplineSet
0 798 m 1,0,-1
 266 798 l 1,1,-1
 266 748 l 1,2,-1
 183 748 l 1,3,4
 200 582 200 582 200 499 c 2,5,-1
 200 67 l 1,6,-1
 466 67 l 1,7,-1
 466 732 l 1,8,-1
 399 732 l 1,9,-1
 399 798 l 1,10,-1
 665 798 l 1,11,-1
 665 732 l 1,12,-1
 599 732 l 1,13,-1
 599 67 l 1,14,-1
 732 67 l 1,15,-1
 732 0 l 1,16,-1
 67 0 l 1,17,-1
 67 732 l 1,18,-1
 0 732 l 1,19,-1
 0 798 l 1,0,-1
EndSplineSet
EndChar

StartChar: uni0447
Encoding: 1095 1095 291
Width: 470
GlyphClass: 1
Flags: W
LayerCount: 2
Fore
SplineSet
0 802 m 1,0,-1
 134 802 l 1,1,-1
 134 334 l 1,2,-1
 334 334 l 1,3,-1
 334 802 l 1,4,-1
 468 802 l 1,5,-1
 468 0 l 1,6,-1
 334 0 l 1,7,-1
 334 267 l 1,8,-1
 0 267 l 1,9,-1
 0 802 l 1,0,-1
EndSplineSet
EndChar

StartChar: uni0448
Encoding: 1096 1096 292
Width: 672
GlyphClass: 1
Flags: W
LayerCount: 2
Fore
SplineSet
0 796 m 1,0,-1
 199 796 l 1,1,-1
 199 66 l 1,2,-1
 265 66 l 1,3,-1
 265 796 l 1,4,-1
 398 796 l 1,5,-1
 398 66 l 1,6,-1
 464 66 l 1,7,-1
 464 796 l 1,8,-1
 663 796 l 1,9,-1
 663 730 l 1,10,-1
 597 730 l 1,11,-1
 597 66 l 1,12,-1
 663 66 l 1,13,-1
 663 0 l 1,14,-1
 0 0 l 1,15,-1
 0 66 l 1,16,-1
 66 66 l 1,17,-1
 66 730 l 1,18,-1
 0 730 l 1,19,-1
 0 796 l 1,0,-1
EndSplineSet
EndChar

StartChar: uni0449
Encoding: 1097 1097 293
Width: 666
GlyphClass: 1
Flags: W
LayerCount: 2
Fore
SplineSet
0 794 m 1,0,-1
 199 794 l 1,1,-1
 199 66 l 1,2,-1
 265 66 l 1,3,-1
 265 794 l 1,4,-1
 397 794 l 1,5,-1
 397 66 l 1,6,-1
 463 66 l 1,7,-1
 463 794 l 1,8,-1
 662 794 l 1,9,-1
 662 728 l 1,10,-1
 596 728 l 1,11,-1
 596 66 l 1,12,-1
 662 66 l 1,13,-1
 662 0 l 1,14,-1
 0 0 l 1,15,-1
 0 66 l 1,16,-1
 66 66 l 1,17,-1
 66 728 l 1,18,-1
 0 728 l 1,19,-1
 0 794 l 1,0,-1
EndSplineSet
EndChar

StartChar: uni044A
Encoding: 1098 1098 294
Width: 534
GlyphClass: 1
Flags: W
LayerCount: 2
Fore
SplineSet
0 800 m 1,0,-1
 267 800 l 1,1,-1
 267 750 l 1,2,-1
 183 750 l 1,3,-1
 183 450 l 1,4,-1
 333 450 l 1,5,-1
 333 400 l 1,6,-1
 200 400 l 1,7,-1
 200 67 l 1,8,-1
 333 67 l 1,9,-1
 333 17 l 1,10,-1
 133 0 l 1,11,-1
 0 0 l 1,12,-1
 0 67 l 1,13,-1
 67 67 l 1,14,-1
 67 733 l 1,15,-1
 0 733 l 1,16,-1
 0 800 l 1,0,-1
333 400 m 1,17,18
 450 400 450 400 467 317 c 1,19,-1
 533 317 l 1,20,-1
 533 133 l 1,21,22
 467 133 467 133 467 100 c 2,23,-1
 467 67 l 1,24,-1
 333 67 l 1,25,-1
 333 133 l 1,26,-1
 400 133 l 1,27,-1
 400 333 l 1,28,-1
 333 333 l 1,29,-1
 333 400 l 1,17,18
EndSplineSet
EndChar

StartChar: uni044B
Encoding: 1099 1099 295
Width: 670
GlyphClass: 1
Flags: W
LayerCount: 2
Fore
SplineSet
0 798 m 1,0,-1
 266 798 l 1,1,-1
 266 732 l 1,2,-1
 200 732 l 1,3,-1
 200 466 l 1,4,-1
 266 466 l 1,5,-1
 266 399 l 1,6,-1
 200 399 l 1,7,-1
 200 67 l 1,8,-1
 266 67 l 1,9,-1
 266 17 l 1,10,-1
 116 17 l 1,11,-1
 0 0 l 1,12,-1
 0 67 l 1,13,-1
 67 67 l 1,14,-1
 67 732 l 1,15,-1
 0 732 l 1,16,-1
 0 798 l 1,0,-1
399 798 m 1,17,-1
 665 798 l 1,18,-1
 665 732 l 1,19,-1
 599 732 l 1,20,-1
 599 67 l 1,21,-1
 665 67 l 1,22,-1
 665 0 l 1,23,-1
 399 0 l 1,24,-1
 399 67 l 1,25,-1
 466 67 l 1,26,-1
 466 732 l 1,27,-1
 399 732 l 1,28,-1
 399 798 l 1,17,-1
266 399 m 1,29,-1
 399 399 l 1,30,-1
 399 67 l 1,31,-1
 266 67 l 1,32,-1
 266 133 l 1,33,-1
 333 133 l 1,34,-1
 333 333 l 1,35,-1
 266 333 l 1,36,-1
 266 399 l 1,29,-1
EndSplineSet
EndChar

StartChar: uni044C
Encoding: 1100 1100 296
Width: 538
GlyphClass: 1
Flags: W
LayerCount: 2
Fore
SplineSet
0 802 m 1,0,-1
 267 802 l 1,1,-1
 267 752 l 1,2,-1
 184 752 l 1,3,-1
 184 451 l 1,4,-1
 334 451 l 1,5,-1
 334 401 l 1,6,-1
 201 401 l 1,7,-1
 201 67 l 1,8,-1
 334 67 l 1,9,-1
 334 17 l 1,10,-1
 134 0 l 1,11,-1
 0 0 l 1,12,-1
 0 67 l 1,13,-1
 67 67 l 1,14,-1
 67 735 l 1,15,-1
 0 735 l 1,16,-1
 0 802 l 1,0,-1
334 401 m 1,17,18
 451 401 451 401 468 317 c 1,19,-1
 535 317 l 1,20,-1
 535 134 l 1,21,22
 468 134 468 134 468 100 c 2,23,-1
 468 67 l 1,24,-1
 334 67 l 1,25,-1
 334 134 l 1,26,-1
 401 134 l 1,27,-1
 401 334 l 1,28,-1
 334 334 l 1,29,-1
 334 401 l 1,17,18
EndSplineSet
EndChar

StartChar: uni044D
Encoding: 1101 1101 297
Width: 732
GlyphClass: 1
Flags: W
LayerCount: 2
Fore
SplineSet
268 804 m 1,0,-1
 469 804 l 1,1,-1
 469 737 l 1,2,-1
 268 737 l 1,3,-1
 268 804 l 1,0,-1
134 737 m 1,4,-1
 268 737 l 1,5,-1
 268 687 l 1,6,-1
 184 687 l 1,7,-1
 184 553 l 1,8,9
 117 553 117 553 117 519 c 2,10,-1
 117 469 l 1,11,-1
 0 469 l 1,12,-1
 0 536 l 1,13,-1
 67 536 l 1,14,-1
 67 670 l 1,15,16
 134 670 134 670 134 704 c 2,17,-1
 134 737 l 1,4,-1
469 737 m 1,18,-1
 603 737 l 1,19,20
 603 670 603 670 637 670 c 2,21,-1
 670 670 l 1,22,-1
 670 536 l 1,23,-1
 737 536 l 1,24,-1
 720 419 l 1,25,-1
 720 285 l 1,26,-1
 653 285 l 1,27,-1
 653 151 l 1,28,29
 581 151 581 151 570 84 c 1,30,31
 469 84 469 84 469 17 c 1,32,-1
 385 17 l 1,33,-1
 268 0 l 1,34,-1
 268 67 l 1,35,-1
 469 67 l 1,36,37
 469 134 469 134 503 134 c 2,38,-1
 536 134 l 1,39,-1
 536 268 l 1,40,-1
 603 268 l 1,41,-1
 603 335 l 1,42,-1
 335 335 l 1,43,-1
 335 469 l 1,44,-1
 603 469 l 1,45,-1
 603 536 l 1,46,-1
 536 536 l 1,47,-1
 536 670 l 1,48,-1
 469 670 l 1,49,-1
 469 737 l 1,18,-1
0 335 m 1,50,-1
 134 335 l 1,51,52
 134 268 134 268 168 268 c 2,53,-1
 201 268 l 1,54,-1
 201 134 l 1,55,-1
 268 134 l 1,56,-1
 268 67 l 1,57,-1
 134 67 l 1,58,59
 134 134 134 134 101 134 c 2,60,-1
 67 134 l 1,61,-1
 67 268 l 1,62,-1
 0 268 l 1,63,-1
 0 335 l 1,50,-1
EndSplineSet
EndChar

StartChar: uni044E
Encoding: 1102 1102 298
Width: 650
GlyphClass: 1
Flags: W
LayerCount: 2
Fore
SplineSet
0 796 m 1,0,-1
 265 796 l 1,1,-1
 265 730 l 1,2,-1
 199 730 l 1,3,-1
 199 464 l 1,4,-1
 265 464 l 1,5,-1
 265 663 l 1,6,7
 332 663 332 663 332 697 c 0,8,9
 332 734 332 734 398 746 c 1,10,-1
 398 796 l 1,11,-1
 514 796 l 1,12,13
 514 713 514 713 547 713 c 0,14,15
 585 713 585 713 597 647 c 1,16,-1
 647 647 l 1,17,-1
 647 149 l 1,18,19
 580 149 580 149 580 116 c 0,20,21
 580 79 580 79 514 66 c 1,22,-1
 514 17 l 1,23,-1
 415 17 l 1,24,25
 415 83 415 83 381 83 c 0,26,27
 344 83 344 83 332 149 c 1,28,-1
 265 149 l 1,29,-1
 265 332 l 1,30,-1
 199 332 l 1,31,-1
 199 66 l 1,32,-1
 249 66 l 1,33,-1
 249 0 l 1,34,-1
 0 0 l 1,35,-1
 0 66 l 1,36,-1
 66 66 l 1,37,-1
 66 730 l 1,38,-1
 0 730 l 1,39,-1
 0 796 l 1,0,-1
398 663 m 1,40,-1
 398 133 l 1,41,-1
 531 133 l 1,42,-1
 531 663 l 1,43,-1
 398 663 l 1,40,-1
EndSplineSet
EndChar

StartChar: uni044F
Encoding: 1103 1103 299
Width: 744
GlyphClass: 1
Flags: W
LayerCount: 2
Fore
SplineSet
336 806 m 1,0,-1
 739 806 l 1,1,-1
 739 739 l 1,2,-1
 672 739 l 1,3,-1
 672 67 l 1,4,-1
 739 67 l 1,5,-1
 739 17 l 1,6,7
 472 0 472 0 420 0 c 1,8,-1
 403 34 l 1,9,-1
 403 67 l 1,10,-1
 521 50 l 1,11,-1
 554 50 l 1,12,-1
 554 353 l 1,13,-1
 453 353 l 1,14,15
 453 269 453 269 420 269 c 1,16,17
 397 202 397 202 336 185 c 1,18,19
 336 134 336 134 285 134 c 1,20,21
 263 67 263 67 202 50 c 1,22,-1
 202 17 l 1,23,-1
 118 17 l 1,24,-1
 0 0 l 1,25,-1
 0 67 l 1,26,27
 67 67 67 67 67 101 c 2,28,-1
 67 134 l 1,29,-1
 202 134 l 1,30,31
 202 202 202 202 235 202 c 0,32,33
 273 202 273 202 285 269 c 1,34,-1
 336 269 l 1,35,-1
 336 403 l 1,36,-1
 353 403 l 1,37,38
 527 386 527 386 554 386 c 1,39,-1
 554 756 l 1,40,-1
 336 756 l 1,41,-1
 336 806 l 1,0,-1
202 739 m 1,42,-1
 319 739 l 1,43,-1
 319 672 l 1,44,-1
 269 672 l 1,45,-1
 269 470 l 1,46,-1
 336 470 l 1,47,-1
 336 403 l 1,48,49
 218 403 218 403 218 470 c 0,50,51
 218 487 218 487 151 487 c 1,52,-1
 151 554 l 1,53,-1
 134 672 l 1,54,55
 202 672 202 672 202 705 c 2,56,-1
 202 739 l 1,42,-1
EndSplineSet
EndChar
